Gelasio Bold Italic.ufo
<glyph name="exclam" format="1">
  <advance width="770"/>
  <unicode hex="0021"/>
  <outline>
    <contour>
      <point x="300" y="472" type="curve"/>
      <point x="400" y="472" type="line"/>
      <point x="545" y="1029"/>
      <point x="666" y="1266"/>
      <point x="666" y="1389" type="curve" smooth="yes"/>
      <point x="666" y="1469"/>
      <point x="602" y="1528"/>
      <point x="494" y="1528" type="curve" smooth="yes"/>
      <point x="395" y="1528"/>
      <point x="322" y="1466"/>
      <point x="304" y="1389" type="curve" smooth="yes"/>
      <point x="275" y="1266"/>
      <point x="315" y="1029"/>
    </contour>
    <contour>
      <point x="121" y="163" type="curve" smooth="yes"/>
      <point x="121" y="63"/>
      <point x="182" y="-20"/>
      <point x="290" y="-20" type="curve" smooth="yes"/>
      <point x="399" y="-20"/>
      <point x="487" y="77"/>
      <point x="487" y="188" type="curve" smooth="yes"/>
      <point x="487" y="287"/>
      <point x="424" y="364"/>
      <point x="316" y="364" type="curve" smooth="yes"/>
      <point x="199" y="364"/>
      <point x="121" y="256"/>
    </contour>
  </outline>
</glyph>
<glyph name="numbersign" format="1">
  <advance width="1440"/>
  <unicode hex="0023"/>
  <outline>
    <contour>
      <point x="225" y="0" type="line"/>
      <point x="350" y="0" type="line"/>
      <point x="495" y="420" type="line"/>
      <point x="827" y="420" type="line"/>
      <point x="682" y="0" type="line"/>
      <point x="807" y="0" type="line"/>
      <point x="952" y="420" type="line"/>
      <point x="1246" y="420" type="line"/>
      <point x="1261" y="526" type="line"/>
      <point x="987" y="526" type="line"/>
      <point x="1118" y="900" type="line"/>
      <point x="1391" y="900" type="line"/>
      <point x="1407" y="1006" type="line"/>
      <point x="1154" y="1006" type="line"/>
      <point x="1299" y="1419" type="line"/>
      <point x="1172" y="1419" type="line"/>
      <point x="1028" y="1006" type="line"/>
      <point x="697" y="1006" type="line"/>
      <point x="842" y="1419" type="line"/>
      <point x="715" y="1419" type="line"/>
      <point x="571" y="1006" type="line"/>
      <point x="277" y="1006" type="line"/>
      <point x="261" y="900" type="line"/>
      <point x="535" y="900" type="line"/>
      <point x="405" y="526" type="line"/>
      <point x="151" y="526" type="line"/>
      <point x="136" y="420" type="line"/>
      <point x="370" y="420" type="line"/>
    </contour>
    <contour>
      <point x="530" y="526" type="line"/>
      <point x="661" y="900" type="line"/>
      <point x="992" y="900" type="line"/>
      <point x="862" y="526" type="line"/>
    </contour>
  </outline>
</glyph>
<glyph name="dollar" format="1">
  <advance width="1313"/>
  <unicode hex="0024"/>
  <outline>
    <contour>
      <point x="843" y="1344" type="line"/>
      <point x="875" y="1572" type="line"/>
      <point x="759" y="1572" type="line"/>
      <point x="727" y="1344" type="line"/>
    </contour>
    <contour>
      <point x="605" y="-245" type="line"/>
      <point x="639" y="3" type="line"/>
      <point x="523" y="3" type="line"/>
      <point x="489" y="-245" type="line"/>
    </contour>
    <contour>
      <point x="90" y="66" type="curve" smooth="yes"/>
      <point x="85" y="44"/>
      <point x="110" y="17"/>
      <point x="137" y="17" type="curve" smooth="yes"/>
      <point x="155" y="17"/>
      <point x="185" y="29"/>
      <point x="207" y="56" type="curve" smooth="yes"/>
      <point x="217" y="70"/>
      <point x="231" y="77"/>
      <point x="238" y="72" type="curve" smooth="yes"/>
      <point x="293" y="34"/>
      <point x="458" y="-30"/>
      <point x="614" y="-30" type="curve" smooth="yes"/>
      <point x="987" y="-30"/>
      <point x="1154" y="182"/>
      <point x="1154" y="376" type="curve" smooth="yes"/>
      <point x="1154" y="583"/>
      <point x="989" y="707"/>
      <point x="833" y="806" type="curve" smooth="yes"/>
      <point x="693" y="894"/>
      <point x="555" y="972"/>
      <point x="555" y="1106" type="curve" smooth="yes"/>
      <point x="555" y="1240"/>
      <point x="636" y="1292"/>
      <point x="775" y="1292" type="curve" smooth="yes"/>
      <point x="922" y="1292"/>
      <point x="1047" y="1221"/>
      <point x="1082" y="999" type="curve" smooth="yes"/>
      <point x="1085" y="981"/>
      <point x="1118" y="969"/>
      <point x="1138" y="969" type="curve" smooth="yes"/>
      <point x="1164" y="969"/>
      <point x="1187" y="973"/>
      <point x="1189" y="1025" type="curve" smooth="yes"/>
      <point x="1194" y="1139"/>
      <point x="1206" y="1255"/>
      <point x="1215" y="1324" type="curve" smooth="yes"/>
      <point x="1217" y="1341"/>
      <point x="1191" y="1351"/>
      <point x="1161" y="1351" type="curve" smooth="yes"/>
      <point x="1125" y="1351"/>
      <point x="1126" y="1305"/>
      <point x="1087" y="1305" type="curve" smooth="yes"/>
      <point x="1081" y="1305"/>
      <point x="1063" y="1307"/>
      <point x="1054" y="1312" type="curve" smooth="yes"/>
      <point x="1026" y="1325"/>
      <point x="914" y="1367"/>
      <point x="779" y="1367" type="curve" smooth="yes"/>
      <point x="465" y="1367"/>
      <point x="268" y="1218"/>
      <point x="268" y="1004" type="curve" smooth="yes"/>
      <point x="268" y="811"/>
      <point x="417" y="681"/>
      <point x="559" y="581" type="curve"/>
      <point x="710" y="477"/>
      <point x="866" y="396"/>
      <point x="866" y="262" type="curve" smooth="yes"/>
      <point x="866" y="110"/>
      <point x="770" y="54"/>
      <point x="601" y="54" type="curve" smooth="yes"/>
      <point x="464" y="54"/>
      <point x="332" y="117"/>
      <point x="288" y="260" type="curve" smooth="yes"/>
      <point x="259" y="353"/>
      <point x="258" y="418"/>
      <point x="256" y="450" type="curve"/>
      <point x="256" y="475"/>
      <point x="222" y="489"/>
      <point x="200" y="489" type="curve" smooth="yes"/>
      <point x="175" y="489"/>
      <point x="146" y="483"/>
      <point x="145" y="443" type="curve"/>
      <point x="141" y="368"/>
      <point x="120" y="200"/>
    </contour>
  </outline>
</glyph>
<glyph name="percent" format="1">
  <advance width="1800"/>
  <unicode hex="0025"/>
  <outline>
    <contour>
      <point x="396" y="711" type="curve" smooth="yes"/>
      <point x="691" y="711"/>
      <point x="866" y="892"/>
      <point x="866" y="1130" type="curve" smooth="yes"/>
      <point x="866" y="1328"/>
      <point x="731" y="1449"/>
      <point x="504" y="1449" type="curve" smooth="yes"/>
      <point x="212" y="1449"/>
      <point x="42" y="1257"/>
      <point x="42" y="1023" type="curve" smooth="yes"/>
      <point x="42" y="830"/>
      <point x="174" y="711"/>
    </contour>
    <contour>
      <point x="409" y="798" type="curve" smooth="yes"/>
      <point x="310" y="798"/>
      <point x="269" y="852"/>
      <point x="269" y="984" type="curve" smooth="yes"/>
      <point x="269" y="1175"/>
      <point x="334" y="1362"/>
      <point x="488" y="1362" type="curve" smooth="yes"/>
      <point x="586" y="1362"/>
      <point x="628" y="1306"/>
      <point x="628" y="1170" type="curve" smooth="yes"/>
      <point x="628" y="1031"/>
      <point x="595" y="798"/>
    </contour>
    <contour>
      <point x="1229" y="-28" type="curve" smooth="yes"/>
      <point x="1534" y="-28"/>
      <point x="1699" y="153"/>
      <point x="1699" y="391" type="curve" smooth="yes"/>
      <point x="1699" y="589"/>
      <point x="1564" y="710"/>
      <point x="1337" y="710" type="curve" smooth="yes"/>
      <point x="1045" y="710"/>
      <point x="875" y="518"/>
      <point x="875" y="284" type="curve" smooth="yes"/>
      <point x="875" y="91"/>
      <point x="1007" y="-28"/>
    </contour>
    <contour>
      <point x="1242" y="59" type="curve" smooth="yes"/>
      <point x="1143" y="59"/>
      <point x="1102" y="113"/>
      <point x="1102" y="245" type="curve" smooth="yes"/>
      <point x="1102" y="436"/>
      <point x="1167" y="623"/>
      <point x="1321" y="623" type="curve" smooth="yes"/>
      <point x="1419" y="623"/>
      <point x="1461" y="567"/>
      <point x="1461" y="431" type="curve" smooth="yes"/>
      <point x="1461" y="292"/>
      <point x="1428" y="59"/>
    </contour>
    <contour>
      <point x="473" y="0" type="line"/>
      <point x="1411" y="1419" type="line"/>
      <point x="1244" y="1419" type="line"/>
      <point x="308" y="0" type="line"/>
    </contour>
  </outline>
</glyph>
<glyph name="ampersand" format="1">
  <advance width="1636"/>
  <unicode hex="0026"/>
  <outline>
    <contour>
      <point x="1466" y="711" type="curve" smooth="yes"/>
      <point x="1498" y="779"/>
      <point x="1561" y="818"/>
      <point x="1618" y="818" type="curve" smooth="yes"/>
      <point x="1640" y="818"/>
      <point x="1653" y="831"/>
      <point x="1657" y="855" type="curve"/>
      <point x="1659" y="875"/>
      <point x="1651" y="896"/>
      <point x="1628" y="896" type="curve" smooth="yes"/>
      <point x="1175" y="896" type="line" smooth="yes"/>
      <point x="1152" y="896"/>
      <point x="1137" y="875"/>
      <point x="1136" y="855" type="curve" smooth="yes"/>
      <point x="1133" y="834"/>
      <point x="1135" y="821"/>
      <point x="1161" y="818" type="curve" smooth="yes"/>
      <point x="1215" y="811"/>
      <point x="1313" y="795"/>
      <point x="1300" y="718" type="curve" smooth="yes"/>
      <point x="1296" y="702"/>
      <point x="1280" y="549"/>
      <point x="1131" y="367" type="curve" smooth="yes"/>
      <point x="1093" y="324"/>
      <point x="1028" y="278"/>
      <point x="993" y="248" type="curve" smooth="yes"/>
      <point x="877" y="141"/>
      <point x="767" y="131"/>
      <point x="653" y="131" type="curve" smooth="yes"/>
      <point x="498" y="131"/>
      <point x="405" y="240"/>
      <point x="405" y="351" type="curve" smooth="yes"/>
      <point x="405" y="676"/>
      <point x="647" y="705"/>
      <point x="828" y="804" type="curve" smooth="yes"/>
      <point x="993" y="894"/>
      <point x="1211" y="1044"/>
      <point x="1211" y="1232" type="curve" smooth="yes"/>
      <point x="1211" y="1368"/>
      <point x="1076" y="1458"/>
      <point x="844" y="1458" type="curve" smooth="yes"/>
      <point x="601" y="1458"/>
      <point x="348" y="1334"/>
      <point x="348" y="1073" type="curve" smooth="yes"/>
      <point x="348" y="869"/>
      <point x="507" y="730"/>
      <point x="610" y="585" type="curve" smooth="yes"/>
      <point x="706" y="450"/>
      <point x="1062" y="10"/>
      <point x="1074" y="0" type="curve"/>
      <point x="1541" y="0" type="line" smooth="yes"/>
      <point x="1564" y="0"/>
      <point x="1577" y="21"/>
      <point x="1580" y="41" type="curve" smooth="yes"/>
      <point x="1584" y="71"/>
      <point x="1577" y="76"/>
      <point x="1549" y="78" type="curve" smooth="yes"/>
      <point x="1458" y="86"/>
      <point x="1376" y="162"/>
      <point x="1333" y="212" type="curve" smooth="yes"/>
      <point x="1255" y="303"/>
      <point x="823" y="827"/>
      <point x="751" y="928" type="curve" smooth="yes"/>
      <point x="683" y="1013"/>
      <point x="664" y="1088"/>
      <point x="664" y="1152" type="curve" smooth="yes"/>
      <point x="664" y="1298"/>
      <point x="725" y="1369"/>
      <point x="855" y="1369" type="curve" smooth="yes"/>
      <point x="965" y="1369"/>
      <point x="1001" y="1259"/>
      <point x="989" y="1192" type="curve" smooth="yes"/>
      <point x="979" y="1119"/>
      <point x="936" y="967"/>
      <point x="774" y="891" type="curve" smooth="yes"/>
      <point x="397" y="715"/>
      <point x="53" y="626"/>
      <point x="53" y="307" type="curve" smooth="yes"/>
      <point x="53" y="146"/>
      <point x="210" y="-39"/>
      <point x="571" y="-39" type="curve" smooth="yes"/>
      <point x="771" y="-39"/>
      <point x="956" y="61"/>
      <point x="1081" y="192" type="curve"/>
      <point x="1122" y="231"/>
      <point x="1195" y="262"/>
      <point x="1225" y="300" type="curve" smooth="yes"/>
      <point x="1366" y="484"/>
      <point x="1397" y="609"/>
    </contour>
  </outline>
</glyph>
<glyph name="quotesingle" format="1">
  <advance width="551"/>
  <unicode hex="0027"/>
  <outline>
    <contour>
      <point x="230" y="967" type="curve"/>
      <point x="310" y="967" type="line"/>
      <point x="372" y="1148"/>
      <point x="490" y="1457"/>
      <point x="502" y="1522" type="curve" smooth="yes"/>
      <point x="517" y="1612"/>
      <point x="476" y="1681"/>
      <point x="371" y="1681" type="curve" smooth="yes"/>
      <point x="273" y="1681"/>
      <point x="205" y="1613"/>
      <point x="200" y="1522" type="curve" smooth="yes"/>
      <point x="197" y="1457"/>
      <point x="233" y="1148"/>
    </contour>
  </outline>
</glyph>
<glyph name="parenleft" format="1">
  <advance width="915"/>
  <unicode hex="0028"/>
  <outline>
    <contour>
      <point x="125" y="485" type="curve" smooth="yes"/>
      <point x="125" y="-14"/>
      <point x="377" y="-295"/>
      <point x="606" y="-340" type="curve"/>
      <point x="621" y="-257" type="line"/>
      <point x="454" y="-98"/>
      <point x="431" y="219"/>
      <point x="431" y="446" type="curve" smooth="yes"/>
      <point x="431" y="983"/>
      <point x="660" y="1414"/>
      <point x="951" y="1463" type="curve"/>
      <point x="987" y="1550" type="line"/>
      <point x="533" y="1572"/>
      <point x="125" y="1064"/>
    </contour>
  </outline>
</glyph>
<glyph name="asterisk" format="1">
  <advance width="987"/>
  <unicode hex="002A"/>
  <outline>
    <contour>
      <point x="334" y="866" type="curve" smooth="yes"/>
      <point x="270" y="815"/>
      <point x="205" y="764"/>
      <point x="191" y="748" type="curve" smooth="yes"/>
      <point x="169" y="723"/>
      <point x="153" y="691"/>
      <point x="149" y="662" type="curve" smooth="yes"/>
      <point x="139" y="597"/>
      <point x="197" y="548"/>
      <point x="256" y="548" type="curve" smooth="yes"/>
      <point x="296" y="548"/>
      <point x="340" y="572"/>
      <point x="374" y="612" type="curve" smooth="yes"/>
      <point x="401" y="645"/>
      <point x="498" y="876"/>
      <point x="535" y="941" type="curve"/>
      <point x="554" y="879"/>
      <point x="610" y="643"/>
      <point x="628" y="612" type="curve" smooth="yes"/>
      <point x="649" y="574"/>
      <point x="698" y="549"/>
      <point x="739" y="549" type="curve" smooth="yes"/>
      <point x="802" y="549"/>
      <point x="848" y="603"/>
      <point x="857" y="662" type="curve" smooth="yes"/>
      <point x="873" y="776"/>
      <point x="681" y="905"/>
      <point x="609" y="989" type="curve"/>
      <point x="678" y="999"/>
      <point x="872" y="991"/>
      <point x="926" y="1006" type="curve" smooth="yes"/>
      <point x="986" y="1023"/>
      <point x="1033" y="1074"/>
      <point x="1041" y="1128" type="curve" smooth="yes"/>
      <point x="1052" y="1207"/>
      <point x="999" y="1238"/>
      <point x="941" y="1238" type="curve" smooth="yes"/>
      <point x="896" y="1238"/>
      <point x="850" y="1222"/>
      <point x="743" y="1160" type="curve" smooth="yes"/>
      <point x="686" y="1127"/>
      <point x="631" y="1085"/>
      <point x="595" y="1067" type="curve"/>
      <point x="607" y="1126"/>
      <point x="717" y="1323"/>
      <point x="717" y="1403" type="curve" smooth="yes"/>
      <point x="717" y="1452"/>
      <point x="705" y="1521"/>
      <point x="614" y="1521" type="curve" smooth="yes"/>
      <point x="536" y="1521"/>
      <point x="477" y="1469"/>
      <point x="477" y="1385" type="curve" smooth="yes"/>
      <point x="477" y="1353"/>
      <point x="508" y="1156"/>
      <point x="511" y="1067" type="curve"/>
      <point x="447" y="1101"/>
      <point x="322" y="1199"/>
      <point x="283" y="1218" type="curve" smooth="yes"/>
      <point x="253" y="1233"/>
      <point x="230" y="1238"/>
      <point x="213" y="1238" type="curve" smooth="yes"/>
      <point x="155" y="1238"/>
      <point x="89" y="1207"/>
      <point x="78" y="1131" type="curve" smooth="yes"/>
      <point x="70" y="1075"/>
      <point x="107" y="1024"/>
      <point x="160" y="1006" type="curve" smooth="yes"/>
      <point x="202" y="991"/>
      <point x="412" y="998"/>
      <point x="476" y="989" type="curve"/>
      <point x="444" y="961"/>
      <point x="385" y="906"/>
    </contour>
  </outline>
</glyph>
<glyph name="comma" format="1">
  <advance width="672"/>
  <unicode hex="002C"/>
  <outline>
    <contour>
      <point x="83" y="162" type="curve" smooth="yes"/>
      <point x="83" y="28"/>
      <point x="182" y="8"/>
      <point x="184" y="-7" type="curve" smooth="yes"/>
      <point x="184" y="-10"/>
      <point x="184" y="-13"/>
      <point x="184" y="-17" type="curve" smooth="yes"/>
      <point x="184" y="-67"/>
      <point x="167" y="-190"/>
      <point x="88" y="-271" type="curve" smooth="yes"/>
      <point x="68" y="-292"/>
      <point x="58" y="-307"/>
      <point x="58" y="-320" type="curve" smooth="yes"/>
      <point x="58" y="-339"/>
      <point x="82" y="-360"/>
      <point x="132" y="-360" type="curve" smooth="yes"/>
      <point x="141" y="-360"/>
      <point x="151" y="-356"/>
      <point x="160" y="-352" type="curve" smooth="yes"/>
      <point x="231" y="-320"/>
      <point x="459" y="-56"/>
      <point x="459" y="139" type="curve" smooth="yes"/>
      <point x="459" y="269"/>
      <point x="398" y="356"/>
      <point x="289" y="356" type="curve" smooth="yes"/>
      <point x="181" y="356"/>
      <point x="83" y="289"/>
    </contour>
  </outline>
</glyph>
<glyph name="hyphen" format="1">
  <advance width="776"/>
  <unicode hex="002D"/>
  <outline>
    <contour>
      <point x="97" y="496" type="line"/>
      <point x="654" y="496" type="line"/>
      <point x="673" y="632" type="line"/>
      <point x="116" y="632" type="line"/>
    </contour>
  </outline>
</glyph>
<glyph name="period" format="1">
  <advance width="672"/>
  <unicode hex="002E"/>
  <outline>
    <contour>
      <point x="116" y="163" type="curve" smooth="yes"/>
      <point x="116" y="63"/>
      <point x="177" y="-20"/>
      <point x="285" y="-20" type="curve" smooth="yes"/>
      <point x="394" y="-20"/>
      <point x="482" y="77"/>
      <point x="482" y="188" type="curve" smooth="yes"/>
      <point x="482" y="287"/>
      <point x="419" y="364"/>
      <point x="311" y="364" type="curve" smooth="yes"/>
      <point x="194" y="364"/>
      <point x="116" y="266"/>
    </contour>
  </outline>
</glyph>
<glyph name="slash" format="1">
  <advance width="967"/>
  <unicode hex="002F"/>
  <outline>
    <contour>
      <point x="10" y="-340" type="line"/>
      <point x="145" y="-340" type="line"/>
      <point x="1018" y="1547" type="line"/>
      <point x="881" y="1547" type="line"/>
    </contour>
  </outline>
</glyph>
<glyph name="zero" format="1">
  <advance width="1436"/>
  <unicode hex="0030"/>
  <outline>
    <contour>
      <point x="125" y="507" type="curve" smooth="yes"/>
      <point x="125" y="172"/>
      <point x="312" y="-29"/>
      <point x="642" y="-29" type="curve" smooth="yes"/>
      <point x="1078" y="-29"/>
      <point x="1333" y="297"/>
      <point x="1324" y="707" type="curve" smooth="yes"/>
      <point x="1318" y="1017"/>
      <point x="1144" y="1205"/>
      <point x="811" y="1205" type="curve" smooth="yes"/>
      <point x="375" y="1205"/>
      <point x="125" y="891"/>
    </contour>
    <contour>
      <point x="659" y="66" type="curve" smooth="yes"/>
      <point x="526" y="66"/>
      <point x="470" y="173"/>
      <point x="466" y="399" type="curve" smooth="yes"/>
      <point x="458" y="756"/>
      <point x="547" y="1110"/>
      <point x="790" y="1110" type="curve" smooth="yes"/>
      <point x="922" y="1110"/>
      <point x="976" y="1004"/>
      <point x="981" y="785" type="curve" smooth="yes"/>
      <point x="989" y="438"/>
      <point x="910" y="66"/>
    </contour>
  </outline>
</glyph>
<glyph name="one" format="1">
  <advance width="1004"/>
  <unicode hex="0031"/>
  <outline>
    <contour>
      <point x="68" y="41" type="curve" smooth="yes"/>
      <point x="66" y="26"/>
      <point x="74" y="0"/>
      <point x="97" y="0" type="curve" smooth="yes"/>
      <point x="807" y="0" type="line" smooth="yes"/>
      <point x="830" y="0"/>
      <point x="846" y="16"/>
      <point x="846" y="41" type="curve" smooth="yes"/>
      <point x="846" y="64"/>
      <point x="843" y="75"/>
      <point x="815" y="78" type="curve" smooth="yes"/>
      <point x="755" y="83"/>
      <point x="635" y="89"/>
      <point x="647" y="175" type="curve" smooth="yes"/>
      <point x="761" y="1189" type="line"/>
      <point x="556" y="1189" type="line"/>
      <point x="453" y="1116"/>
      <point x="254" y="1067"/>
      <point x="192" y="1062" type="curve" smooth="yes"/>
      <point x="164" y="1059"/>
      <point x="152" y="1035"/>
      <point x="148" y="1005" type="curve" smooth="yes"/>
      <point x="146" y="990"/>
      <point x="155" y="974"/>
      <point x="178" y="974" type="curve" smooth="yes"/>
      <point x="223" y="974"/>
      <point x="343" y="985"/>
      <point x="401" y="994" type="curve"/>
      <point x="310" y="152" type="line" smooth="yes"/>
      <point x="305" y="108"/>
      <point x="171" y="83"/>
      <point x="106" y="78" type="curve"/>
      <point x="80" y="75"/>
      <point x="71" y="62"/>
    </contour>
  </outline>
</glyph>
<glyph name="two" format="1">
  <advance width="1282"/>
  <unicode hex="0032"/>
  <outline>
    <contour>
      <point x="44" y="0" type="line"/>
      <point x="1116" y="0" type="line"/>
      <point x="1154" y="249" type="line"/>
      <point x="484" y="249" type="line"/>
      <point x="833" y="414"/>
      <point x="1148" y="625"/>
      <point x="1148" y="883" type="curve" smooth="yes"/>
      <point x="1148" y="1066"/>
      <point x="1022" y="1205"/>
      <point x="663" y="1205" type="curve" smooth="yes"/>
      <point x="408" y="1205"/>
      <point x="136" y="1056"/>
      <point x="136" y="874" type="curve" smooth="yes"/>
      <point x="135" y="764"/>
      <point x="231" y="710"/>
      <point x="300" y="710" type="curve" smooth="yes"/>
      <point x="340" y="710"/>
      <point x="381" y="735"/>
      <point x="394" y="776" type="curve" smooth="yes"/>
      <point x="479" y="1043" type="line"/>
      <point x="500" y="1065"/>
      <point x="525" y="1103"/>
      <point x="624" y="1103" type="curve" smooth="yes"/>
      <point x="754" y="1103"/>
      <point x="797" y="981"/>
      <point x="795" y="900" type="curve" smooth="yes"/>
      <point x="788" y="572"/>
      <point x="397" y="300"/>
      <point x="55" y="75" type="curve"/>
    </contour>
  </outline>
</glyph>
<glyph name="three" format="1">
  <advance width="1280"/>
  <unicode hex="0033"/>
  <outline>
    <contour>
      <point x="516" y="1086" type="line"/>
      <point x="541" y="1103"/>
      <point x="597" y="1107"/>
      <point x="643" y="1107" type="curve" smooth="yes"/>
      <point x="800" y="1107"/>
      <point x="839" y="1014"/>
      <point x="840" y="926" type="curve" smooth="yes"/>
      <point x="845" y="680"/>
      <point x="696" y="497"/>
      <point x="500" y="497" type="curve" smooth="yes"/>
      <point x="437" y="497" type="line"/>
      <point x="417" y="383" type="line"/>
      <point x="480" y="383" type="line" smooth="yes"/>
      <point x="599" y="383"/>
      <point x="778" y="277"/>
      <point x="778" y="28" type="curve" smooth="yes"/>
      <point x="778" y="-243"/>
      <point x="585" y="-356"/>
      <point x="444" y="-356" type="curve" smooth="yes"/>
      <point x="324" y="-356"/>
      <point x="226" y="-322"/>
      <point x="194" y="-245" type="curve"/>
      <point x="272" y="81" type="line"/>
      <point x="271" y="126"/>
      <point x="223" y="161"/>
      <point x="168" y="161" type="curve" smooth="yes"/>
      <point x="71" y="161"/>
      <point x="-41" y="73"/>
      <point x="-38" y="-99" type="curve" smooth="yes"/>
      <point x="-32" y="-370"/>
      <point x="276" y="-451"/>
      <point x="482" y="-451" type="curve" smooth="yes"/>
      <point x="808" y="-451"/>
      <point x="1125" y="-283"/>
      <point x="1118" y="67" type="curve" smooth="yes"/>
      <point x="1114" y="274"/>
      <point x="915" y="446"/>
      <point x="659" y="448" type="curve"/>
      <point x="923" y="467"/>
      <point x="1186" y="634"/>
      <point x="1182" y="868" type="curve" smooth="yes"/>
      <point x="1177" y="1067"/>
      <point x="1022" y="1205"/>
      <point x="683" y="1205" type="curve" smooth="yes"/>
      <point x="434" y="1205"/>
      <point x="250" y="1097"/>
      <point x="184" y="977" type="curve" smooth="yes"/>
      <point x="165" y="938"/>
      <point x="158" y="898"/>
      <point x="158" y="874" type="curve" smooth="yes"/>
      <point x="157" y="764"/>
      <point x="253" y="710"/>
      <point x="322" y="710" type="curve" smooth="yes"/>
      <point x="362" y="710"/>
      <point x="403" y="735"/>
      <point x="416" y="776" type="curve" smooth="yes"/>
    </contour>
  </outline>
</glyph>
<glyph name="four" format="1">
  <advance width="1329"/>
  <unicode hex="0034"/>
  <outline>
    <contour>
      <point x="61" y="0" type="line"/>
      <point x="703" y="0" type="line"/>
      <point x="661" y="-384" type="line"/>
      <point x="964" y="-384" type="line"/>
      <point x="1006" y="0" type="line"/>
      <point x="1216" y="0" type="line"/>
      <point x="1234" y="164" type="line"/>
      <point x="1019" y="164" type="line"/>
      <point x="1067" y="576" type="line"/>
      <point x="817" y="576" type="line"/>
      <point x="760" y="536" type="line"/>
      <point x="716" y="164" type="line"/>
      <point x="262" y="164" type="line"/>
      <point x="1008" y="1125" type="line" smooth="yes"/>
      <point x="1013" y="1132"/>
      <point x="1016" y="1144"/>
      <point x="1016" y="1155" type="curve" smooth="yes"/>
      <point x="1016" y="1204"/>
      <point x="922" y="1258"/>
      <point x="825" y="1258" type="curve" smooth="yes"/>
      <point x="773" y="1258"/>
      <point x="713" y="1237"/>
      <point x="701" y="1217" type="curve" smooth="yes"/>
      <point x="27" y="87" type="line"/>
    </contour>
  </outline>
</glyph>
<glyph name="five" format="1">
  <advance width="1227"/>
  <unicode hex="0035"/>
  <outline>
    <contour>
      <point x="109" y="55" type="curve" smooth="yes"/>
      <point x="50" y="55"/>
      <point x="-38" y="4"/>
      <point x="-38" y="-108" type="curve" smooth="yes"/>
      <point x="-38" y="-284"/>
      <point x="155" y="-451"/>
      <point x="403" y="-451" type="curve" smooth="yes"/>
      <point x="804" y="-451"/>
      <point x="1081" y="-145"/>
      <point x="1081" y="178" type="curve" smooth="yes"/>
      <point x="1081" y="422"/>
      <point x="948" y="607"/>
      <point x="637" y="607" type="curve" smooth="yes"/>
      <point x="520" y="607"/>
      <point x="396" y="573"/>
      <point x="314" y="523" type="curve"/>
      <point x="425" y="910" type="line"/>
      <point x="1077" y="910" type="line"/>
      <point x="1113" y="1189" type="line"/>
      <point x="355" y="1189" type="line"/>
      <point x="158" y="391" type="line"/>
      <point x="219" y="358" type="line"/>
      <point x="300" y="455"/>
      <point x="443" y="494"/>
      <point x="547" y="494" type="curve" smooth="yes"/>
      <point x="666" y="494"/>
      <point x="749" y="365"/>
      <point x="749" y="160" type="curve" smooth="yes"/>
      <point x="749" y="-69"/>
      <point x="670" y="-365"/>
      <point x="385" y="-357" type="curve" smooth="yes"/>
      <point x="314" y="-355"/>
      <point x="287" y="-330"/>
      <point x="287" y="-330" type="curve"/>
      <point x="278" y="-297"/>
      <point x="224" y="-68"/>
      <point x="213" y="-20" type="curve" smooth="yes"/>
      <point x="202" y="27"/>
      <point x="161" y="55"/>
    </contour>
  </outline>
</glyph>
<glyph name="six" format="1">
  <advance width="1327"/>
  <unicode hex="0036"/>
  <outline>
    <contour>
      <point x="77" y="479" type="curve" smooth="yes"/>
      <point x="77" y="219"/>
      <point x="234" y="-29"/>
      <point x="589" y="-29" type="curve" smooth="yes"/>
      <point x="987" y="-29"/>
      <point x="1246" y="249"/>
      <point x="1246" y="602" type="curve" smooth="yes"/>
      <point x="1246" y="794"/>
      <point x="1121" y="964"/>
      <point x="828" y="964" type="curve" smooth="yes"/>
      <point x="702" y="964"/>
      <point x="551" y="893"/>
      <point x="487" y="830" type="curve"/>
      <point x="557" y="1086"/>
      <point x="719" y="1359"/>
      <point x="1035" y="1456" type="curve"/>
      <point x="1052" y="1548" type="line"/>
      <point x="439" y="1432"/>
      <point x="77" y="971"/>
    </contour>
    <contour>
      <point x="444" y="701" type="curve" smooth="yes"/>
      <point x="510" y="774"/>
      <point x="623" y="836"/>
      <point x="739" y="836" type="curve" smooth="yes"/>
      <point x="867" y="836"/>
      <point x="922" y="731"/>
      <point x="922" y="598" type="curve" smooth="yes"/>
      <point x="922" y="327"/>
      <point x="802" y="66"/>
      <point x="594" y="66" type="curve" smooth="yes"/>
      <point x="432" y="66"/>
      <point x="384" y="171"/>
      <point x="384" y="317" type="curve" smooth="yes"/>
      <point x="384" y="444"/>
      <point x="408" y="584"/>
    </contour>
  </outline>
</glyph>
<glyph name="seven" format="1">
  <advance width="1159"/>
  <unicode hex="0037"/>
  <outline>
    <contour>
      <point x="253" y="-382" type="line"/>
      <point x="491" y="-383" type="line"/>
      <point x="1159" y="1122" type="line"/>
      <point x="1120" y="1189" type="line"/>
      <point x="203" y="1190" type="line"/>
      <point x="110" y="786" type="line"/>
      <point x="105" y="763"/>
      <point x="129" y="752"/>
      <point x="144" y="752" type="curve" smooth="yes"/>
      <point x="173" y="752"/>
      <point x="205" y="759"/>
      <point x="218" y="785" type="curve" smooth="yes"/>
      <point x="225" y="803"/>
      <point x="286" y="905"/>
      <point x="368" y="905" type="curve"/>
      <point x="905" y="905" type="line"/>
    </contour>
  </outline>
</glyph>
<glyph name="eight" format="1">
  <advance width="1384"/>
  <unicode hex="0038"/>
  <outline>
    <contour>
      <point x="110" y="311" type="curve" smooth="yes"/>
      <point x="122" y="118"/>
      <point x="325" y="-29"/>
      <point x="638" y="-29" type="curve" smooth="yes"/>
      <point x="1064" y="-29"/>
      <point x="1264" y="179"/>
      <point x="1250" y="422" type="curve" smooth="yes"/>
      <point x="1241" y="572"/>
      <point x="1118" y="676"/>
      <point x="991" y="755" type="curve"/>
      <point x="1150" y="826"/>
      <point x="1313" y="961"/>
      <point x="1302" y="1153" type="curve" smooth="yes"/>
      <point x="1290" y="1341"/>
      <point x="1106" y="1451"/>
      <point x="840" y="1451" type="curve" smooth="yes"/>
      <point x="525" y="1451"/>
      <point x="267" y="1297"/>
      <point x="282" y="1055" type="curve" smooth="yes"/>
      <point x="290" y="922"/>
      <point x="353" y="843"/>
      <point x="440" y="761" type="curve"/>
      <point x="230" y="686"/>
      <point x="99" y="509"/>
    </contour>
    <contour>
      <point x="865" y="830" type="line" smooth="yes"/>
      <point x="710" y="905"/>
      <point x="586" y="1029"/>
      <point x="581" y="1109" type="curve" smooth="yes"/>
      <point x="572" y="1270"/>
      <point x="652" y="1354"/>
      <point x="804" y="1354" type="curve" smooth="yes"/>
      <point x="959" y="1354"/>
      <point x="1029" y="1267"/>
      <point x="1036" y="1155" type="curve" smooth="yes"/>
      <point x="1044" y="1021"/>
      <point x="1003" y="868"/>
      <point x="912" y="803" type="curve"/>
    </contour>
    <contour>
      <point x="523" y="705" type="curve" smooth="yes"/>
      <point x="560" y="682"/>
      <point x="598" y="661"/>
      <point x="637" y="641" type="curve" smooth="yes"/>
      <point x="762" y="578"/>
      <point x="940" y="450"/>
      <point x="948" y="323" type="curve" smooth="yes"/>
      <point x="959" y="149"/>
      <point x="823" y="66"/>
      <point x="693" y="66" type="curve" smooth="yes"/>
      <point x="479" y="66"/>
      <point x="414" y="205"/>
      <point x="409" y="322" type="curve" smooth="yes"/>
      <point x="400" y="500"/>
      <point x="449" y="644"/>
    </contour>
  </outline>
</glyph>
<glyph name="nine" format="1">
  <advance width="1327"/>
  <unicode hex="0039"/>
  <outline>
    <contour>
      <point x="1262" y="697" type="curve" smooth="yes"/>
      <point x="1262" y="957"/>
      <point x="1098" y="1205"/>
      <point x="736" y="1205" type="curve" smooth="yes"/>
      <point x="368" y="1205"/>
      <point x="86" y="947"/>
      <point x="86" y="594" type="curve" smooth="yes"/>
      <point x="86" y="402"/>
      <point x="204" y="212"/>
      <point x="497" y="212" type="curve" smooth="yes"/>
      <point x="663" y="212"/>
      <point x="779" y="283"/>
      <point x="843" y="346" type="curve"/>
      <point x="773" y="90"/>
      <point x="606" y="-183"/>
      <point x="290" y="-280" type="curve"/>
      <point x="273" y="-372" type="line"/>
      <point x="892" y="-256"/>
      <point x="1262" y="205"/>
    </contour>
    <contour>
      <point x="886" y="475" type="curve"/>
      <point x="820" y="402"/>
      <point x="702" y="340"/>
      <point x="586" y="340" type="curve" smooth="yes"/>
      <point x="458" y="340"/>
      <point x="403" y="445"/>
      <point x="403" y="578" type="curve" smooth="yes"/>
      <point x="403" y="849"/>
      <point x="523" y="1110"/>
      <point x="731" y="1110" type="curve" smooth="yes"/>
      <point x="893" y="1110"/>
      <point x="941" y="1005"/>
      <point x="941" y="859" type="curve" smooth="yes"/>
      <point x="941" y="732"/>
      <point x="922" y="592"/>
    </contour>
  </outline>
</glyph>
<glyph name="equal" format="1">
  <advance width="1440"/>
  <unicode hex="003D"/>
  <outline>
    <contour>
      <point x="230" y="700" type="line"/>
      <point x="1200" y="700" type="line"/>
      <point x="1200" y="846" type="line"/>
      <point x="230" y="846" type="line"/>
    </contour>
    <contour>
      <point x="230" y="272" type="line"/>
      <point x="1200" y="272" type="line"/>
      <point x="1200" y="418" type="line"/>
      <point x="230" y="418" type="line"/>
    </contour>
  </outline>
</glyph>
<glyph name="question" format="1">
  <advance width="1122"/>
  <unicode hex="003F"/>
  <outline>
    <contour>
      <point x="277" y="163" type="curve" smooth="yes"/>
      <point x="277" y="63"/>
      <point x="338" y="-20"/>
      <point x="446" y="-20" type="curve" smooth="yes"/>
      <point x="555" y="-20"/>
      <point x="643" y="77"/>
      <point x="643" y="188" type="curve" smooth="yes"/>
      <point x="643" y="287"/>
      <point x="580" y="364"/>
      <point x="472" y="364" type="curve" smooth="yes"/>
      <point x="355" y="364"/>
      <point x="277" y="256"/>
    </contour>
    <contour>
      <point x="408" y="483" type="line"/>
      <point x="590" y="483" type="line"/>
      <point x="602" y="554" type="line" smooth="yes"/>
      <point x="646" y="814"/>
      <point x="1111" y="792"/>
      <point x="1111" y="1219" type="curve" smooth="yes"/>
      <point x="1111" y="1368"/>
      <point x="998" y="1528"/>
      <point x="630" y="1528" type="curve" smooth="yes"/>
      <point x="390" y="1528"/>
      <point x="95" y="1394"/>
      <point x="95" y="1157" type="curve" smooth="yes"/>
      <point x="95" y="1056"/>
      <point x="148" y="1006"/>
      <point x="253" y="1006" type="curve" smooth="yes"/>
      <point x="311" y="1006"/>
      <point x="370" y="1040"/>
      <point x="378" y="1075" type="curve" smooth="yes"/>
      <point x="447" y="1378" type="line"/>
      <point x="447" y="1378"/>
      <point x="498" y="1443"/>
      <point x="620" y="1443" type="curve" smooth="yes"/>
      <point x="769" y="1443"/>
      <point x="804" y="1350"/>
      <point x="804" y="1259" type="curve" smooth="yes"/>
      <point x="804" y="811"/>
      <point x="474" y="942"/>
      <point x="416" y="537" type="curve" smooth="yes"/>
    </contour>
  </outline>
</glyph>
<glyph name="at" format="1">
  <advance width="1980"/>
  <unicode hex="0040"/>
  <outline>
    <contour>
      <point x="1186" y="1341" type="curve" smooth="yes"/>
      <point x="1478" y="1341"/>
      <point x="1750" y="1166"/>
      <point x="1750" y="846" type="curve" smooth="yes"/>
      <point x="1750" y="480"/>
      <point x="1468" y="220"/>
      <point x="1289" y="220" type="curve" smooth="yes"/>
      <point x="1238" y="220"/>
      <point x="1232" y="263"/>
      <point x="1238" y="302" type="curve" smooth="yes"/>
      <point x="1241" y="327"/>
      <point x="1248" y="350"/>
      <point x="1254" y="362" type="curve"/>
      <point x="1512" y="994" type="line"/>
      <point x="1288" y="994" type="line"/>
      <point x="1250" y="943" type="line"/>
      <point x="1231" y="984"/>
      <point x="1187" y="1014"/>
      <point x="1112" y="1014" type="curve" smooth="yes"/>
      <point x="773" y="1013"/>
      <point x="539" y="682"/>
      <point x="539" y="361" type="curve" smooth="yes"/>
      <point x="539" y="147"/>
      <point x="690" y="111"/>
      <point x="807" y="111" type="curve" smooth="yes"/>
      <point x="874" y="111"/>
      <point x="966" y="141"/>
      <point x="1041" y="217" type="curve"/>
      <point x="1066" y="157"/>
      <point x="1131" y="103"/>
      <point x="1255" y="103" type="curve" smooth="yes"/>
      <point x="1487" y="103"/>
      <point x="1894" y="388"/>
      <point x="1894" y="869" type="curve" smooth="yes"/>
      <point x="1894" y="1268"/>
      <point x="1554" y="1449"/>
      <point x="1214" y="1449" type="curve" smooth="yes"/>
      <point x="722" y="1449"/>
      <point x="131" y="1058"/>
      <point x="131" y="372" type="curve" smooth="yes"/>
      <point x="131" y="-126"/>
      <point x="491" y="-330"/>
      <point x="923" y="-330" type="curve" smooth="yes"/>
      <point x="1271" y="-330"/>
      <point x="1482" y="-150"/>
      <point x="1537" y="-100" type="curve"/>
      <point x="1483" y="-17" type="line"/>
      <point x="1426" y="-67"/>
      <point x="1253" y="-225"/>
      <point x="937" y="-225" type="curve" smooth="yes"/>
      <point x="690" y="-225"/>
      <point x="284" y="-111"/>
      <point x="284" y="387" type="curve" smooth="yes"/>
      <point x="284" y="1006"/>
      <point x="798" y="1341"/>
    </contour>
    <contour>
      <point x="1028" y="404" type="line"/>
      <point x="977" y="283"/>
      <point x="898" y="222"/>
      <point x="850" y="222" type="curve" smooth="yes"/>
      <point x="807" y="222"/>
      <point x="797" y="283"/>
      <point x="797" y="337" type="curve" smooth="yes"/>
      <point x="797" y="475"/>
      <point x="900" y="916"/>
      <point x="1108" y="916" type="curve" smooth="yes"/>
      <point x="1156" y="916"/>
      <point x="1178" y="879"/>
      <point x="1178" y="828" type="curve" smooth="yes"/>
      <point x="1178" y="819"/>
      <point x="1177" y="809"/>
      <point x="1176" y="799" type="curve"/>
    </contour>
  </outline>
</glyph>
<glyph name="A" format="1">
  <advance width="1552"/>
  <unicode hex="0041"/>
  <outline>
    <contour>
      <point x="1020" y="142" type="line" smooth="yes"/>
      <point x="1023" y="132"/>
      <point x="1023" y="125"/>
      <point x="1023" y="122" type="curve" smooth="yes"/>
      <point x="1023" y="87"/>
      <point x="959" y="95"/>
      <point x="874" y="88" type="curve" smooth="yes"/>
      <point x="847" y="86"/>
      <point x="838" y="71"/>
      <point x="838" y="48" type="curve" smooth="yes"/>
      <point x="838" y="32"/>
      <point x="845" y="0"/>
      <point x="867" y="0" type="curve" smooth="yes"/>
      <point x="1513" y="0" type="line" smooth="yes"/>
      <point x="1535" y="0"/>
      <point x="1552" y="28"/>
      <point x="1552" y="53" type="curve" smooth="yes"/>
      <point x="1552" y="79"/>
      <point x="1540" y="88"/>
      <point x="1508" y="88" type="curve" smooth="yes"/>
      <point x="1438" y="88"/>
      <point x="1396" y="130"/>
      <point x="1381" y="184" type="curve"/>
      <point x="993" y="1451" type="line"/>
      <point x="817" y="1451" type="line"/>
      <point x="122" y="186" type="line" smooth="yes"/>
      <point x="90" y="128"/>
      <point x="33" y="104"/>
      <point x="-54" y="88" type="curve" smooth="yes"/>
      <point x="-69" y="85"/>
      <point x="-92" y="79"/>
      <point x="-92" y="44" type="curve" smooth="yes"/>
      <point x="-92" y="27"/>
      <point x="-84" y="0"/>
      <point x="-64" y="0" type="curve" smooth="yes"/>
      <point x="405" y="0" type="line" smooth="yes"/>
      <point x="432" y="0"/>
      <point x="440" y="29"/>
      <point x="440" y="52" type="curve" smooth="yes"/>
      <point x="440" y="72"/>
      <point x="436" y="83"/>
      <point x="401" y="87" type="curve" smooth="yes"/>
      <point x="319" y="96"/>
      <point x="253" y="113"/>
      <point x="253" y="146" type="curve" smooth="yes"/>
      <point x="253" y="160"/>
      <point x="264" y="188"/>
      <point x="271" y="201" type="curve" smooth="yes"/>
      <point x="764" y="1126" type="line"/>
    </contour>
    <contour>
      <point x="364" y="408" type="line"/>
      <point x="1011" y="408" type="line"/>
      <point x="1011" y="494" type="line"/>
      <point x="364" y="494" type="line"/>
    </contour>
    <contour>
      <point x="585" y="-170" type="move" name="btm"/>
    </contour>
    <contour>
      <point x="945" y="1700" type="move" name="top"/>
    </contour>
  </outline>
</glyph>
<glyph name="B" format="1">
  <advance width="1554"/>
  <unicode hex="0042"/>
  <outline>
    <contour>
      <point x="24" y="51" type="curve" smooth="yes"/>
      <point x="23" y="35"/>
      <point x="27" y="0"/>
      <point x="51" y="0" type="curve" smooth="yes"/>
      <point x="743" y="0" type="line" smooth="yes"/>
      <point x="1274" y="0"/>
      <point x="1485" y="165"/>
      <point x="1491" y="437" type="curve" smooth="yes"/>
      <point x="1495" y="635"/>
      <point x="1302" y="737"/>
      <point x="1099" y="747" type="curve"/>
      <point x="1330" y="765"/>
      <point x="1462" y="933"/>
      <point x="1465" y="1104" type="curve" smooth="yes"/>
      <point x="1469" y="1305"/>
      <point x="1327" y="1419"/>
      <point x="867" y="1419" type="curve" smooth="yes"/>
      <point x="238" y="1419" type="line" smooth="yes"/>
      <point x="215" y="1419"/>
      <point x="198" y="1383"/>
      <point x="196" y="1368" type="curve" smooth="yes"/>
      <point x="195" y="1363"/>
      <point x="195" y="1359"/>
      <point x="195" y="1355" type="curve" smooth="yes"/>
      <point x="194" y="1337"/>
      <point x="203" y="1333"/>
      <point x="226" y="1331" type="curve" smooth="yes"/>
      <point x="290" y="1326"/>
      <point x="375" y="1321"/>
      <point x="374" y="1248" type="curve" smooth="yes"/>
      <point x="374" y="1243"/>
      <point x="374" y="1239"/>
      <point x="373" y="1234" type="curve" smooth="yes"/>
      <point x="221" y="152" type="line"/>
      <point x="214" y="107"/>
      <point x="137" y="94"/>
      <point x="62" y="88" type="curve" smooth="yes"/>
      <point x="35" y="86"/>
      <point x="26" y="71"/>
    </contour>
    <contour>
      <point x="591" y="704" type="line"/>
      <point x="765" y="704" type="line" smooth="yes"/>
      <point x="940" y="704"/>
      <point x="1124" y="696"/>
      <point x="1122" y="458" type="curve"/>
      <point x="1116" y="131"/>
      <point x="897" y="100"/>
      <point x="737" y="100" type="curve" smooth="yes"/>
      <point x="704" y="100"/>
      <point x="565" y="104"/>
      <point x="565" y="137" type="curve"/>
      <point x="730" y="1331" type="line"/>
      <point x="816" y="1331" type="line" smooth="yes"/>
      <point x="1019" y="1331"/>
      <point x="1126" y="1277"/>
      <point x="1124" y="1128" type="curve" smooth="yes"/>
      <point x="1121" y="894"/>
      <point x="1044" y="790"/>
      <point x="836" y="790" type="curve" smooth="yes"/>
      <point x="572" y="790" type="line"/>
    </contour>
    <contour>
      <point x="939" y="1700" type="move" name="top"/>
    </contour>
    <contour>
      <point x="638" y="-170" type="move" name="btm"/>
    </contour>
  </outline>
</glyph>
<glyph name="C" format="1">
  <advance width="1464"/>
  <unicode hex="0043"/>
  <outline>
    <contour>
      <point x="838" y="-30" type="curve" smooth="yes"/>
      <point x="1098" y="-30"/>
      <point x="1331" y="70"/>
      <point x="1340" y="98" type="curve"/>
      <point x="1381" y="375" type="line"/>
      <point x="1381" y="396"/>
      <point x="1316" y="406"/>
      <point x="1299" y="406" type="curve" smooth="yes"/>
      <point x="1272" y="406"/>
      <point x="1256" y="398"/>
      <point x="1244" y="372" type="curve" smooth="yes"/>
      <point x="1157" y="149"/>
      <point x="1068" y="65"/>
      <point x="842" y="65" type="curve" smooth="yes"/>
      <point x="667" y="65"/>
      <point x="479" y="200"/>
      <point x="479" y="621" type="curve" smooth="yes"/>
      <point x="479" y="1115"/>
      <point x="755" y="1353"/>
      <point x="996" y="1353" type="curve" smooth="yes"/>
      <point x="1201" y="1353"/>
      <point x="1309" y="1253"/>
      <point x="1309" y="1070" type="curve" smooth="yes"/>
      <point x="1309" y="1063"/>
      <point x="1309" y="1056"/>
      <point x="1309" y="1049" type="curve" smooth="yes"/>
      <point x="1311" y="1027"/>
      <point x="1344" y="1010"/>
      <point x="1370" y="1010" type="curve" smooth="yes"/>
      <point x="1387" y="1010"/>
      <point x="1452" y="1020"/>
      <point x="1453" y="1051" type="curve"/>
      <point x="1491" y="1361" type="line"/>
      <point x="1426" y="1392"/>
      <point x="1278" y="1449"/>
      <point x="1013" y="1449" type="curve" smooth="yes"/>
      <point x="516" y="1449"/>
      <point x="106" y="1119"/>
      <point x="106" y="629" type="curve" smooth="yes"/>
      <point x="106" y="214"/>
      <point x="353" y="-30"/>
    </contour>
    <contour>
      <point x="1036" y="1700" type="move" name="top"/>
    </contour>
    <contour>
      <point x="726" y="-170" type="move" name="btm"/>
    </contour>
  </outline>
</glyph>
<glyph name="D" format="1">
  <advance width="1708"/>
  <unicode hex="0044"/>
  <outline>
    <contour>
      <point x="40" y="51" type="curve"/>
      <point x="37" y="36"/>
      <point x="45" y="0"/>
      <point x="67" y="0" type="curve" smooth="yes"/>
      <point x="817" y="0" type="line" smooth="yes"/>
      <point x="1276" y="0"/>
      <point x="1671" y="329"/>
      <point x="1671" y="877" type="curve" smooth="yes"/>
      <point x="1671" y="1158"/>
      <point x="1472" y="1417"/>
      <point x="978" y="1419" type="curve"/>
      <point x="281" y="1419" type="line" smooth="yes"/>
      <point x="258" y="1419"/>
      <point x="240" y="1383"/>
      <point x="239" y="1368" type="curve"/>
      <point x="234" y="1338"/>
      <point x="241" y="1334"/>
      <point x="268" y="1331" type="curve" smooth="yes"/>
      <point x="328" y="1326"/>
      <point x="418" y="1320"/>
      <point x="405" y="1234" type="curve"/>
      <point x="233" y="152" type="line"/>
      <point x="227" y="108"/>
      <point x="143" y="93"/>
      <point x="78" y="88" type="curve"/>
      <point x="51" y="85"/>
      <point x="42" y="72"/>
    </contour>
    <contour>
      <point x="583" y="158" type="curve"/>
      <point x="767" y="1331" type="line"/>
      <point x="881" y="1331" type="line" smooth="yes"/>
      <point x="1130" y="1331"/>
      <point x="1306" y="1251"/>
      <point x="1306" y="904" type="curve" smooth="yes"/>
      <point x="1306" y="338"/>
      <point x="1067" y="91"/>
      <point x="763" y="91" type="curve" smooth="yes"/>
      <point x="549" y="91"/>
      <point x="578" y="130"/>
    </contour>
    <contour>
      <point x="1058" y="1700" type="move" name="top"/>
    </contour>
    <contour>
      <point x="695" y="-170" type="move" name="btm"/>
    </contour>
  </outline>
</glyph>
<glyph name="E" format="1">
  <advance width="1477"/>
  <unicode hex="0045"/>
  <outline>
    <contour>
      <point x="495" y="682" type="line"/>
      <point x="919" y="682" type="line" smooth="yes"/>
      <point x="976" y="682"/>
      <point x="991" y="546"/>
      <point x="990" y="503" type="curve"/>
      <point x="988" y="477"/>
      <point x="1025" y="470"/>
      <point x="1056" y="470" type="curve" smooth="yes"/>
      <point x="1071" y="470"/>
      <point x="1099" y="481"/>
      <point x="1103" y="504" type="curve" smooth="yes"/>
      <point x="1173" y="947" type="line" smooth="yes"/>
      <point x="1177" y="970"/>
      <point x="1151" y="981"/>
      <point x="1136" y="981" type="curve" smooth="yes"/>
      <point x="1107" y="981"/>
      <point x="1068" y="974"/>
      <point x="1060" y="948" type="curve" smooth="yes"/>
      <point x="1049" y="908"/>
      <point x="990" y="785"/>
      <point x="937" y="778" type="curve"/>
      <point x="493" y="778" type="line"/>
    </contour>
    <contour>
      <point x="737" y="1331" type="line"/>
      <point x="1140" y="1331" type="line" smooth="yes"/>
      <point x="1287" y="1331"/>
      <point x="1300" y="1144"/>
      <point x="1300" y="1103" type="curve" smooth="yes"/>
      <point x="1300" y="1077"/>
      <point x="1328" y="1070"/>
      <point x="1349" y="1070" type="curve" smooth="yes"/>
      <point x="1367" y="1070"/>
      <point x="1400" y="1081"/>
      <point x="1404" y="1104" type="curve"/>
      <point x="1429" y="1419" type="line"/>
      <point x="231" y="1419" type="line" smooth="yes"/>
      <point x="208" y="1419"/>
      <point x="190" y="1383"/>
      <point x="189" y="1368" type="curve"/>
      <point x="184" y="1338"/>
      <point x="190" y="1334"/>
      <point x="218" y="1331" type="curve" smooth="yes"/>
      <point x="278" y="1326"/>
      <point x="388" y="1320"/>
      <point x="375" y="1234" type="curve"/>
      <point x="223" y="152" type="line"/>
      <point x="217" y="108"/>
      <point x="113" y="93"/>
      <point x="48" y="88" type="curve"/>
      <point x="21" y="85"/>
      <point x="12" y="72"/>
      <point x="10" y="51" type="curve"/>
      <point x="7" y="36"/>
      <point x="14" y="0"/>
      <point x="37" y="0" type="curve" smooth="yes"/>
      <point x="1345" y="0" type="line"/>
      <point x="1414" y="372" type="line"/>
      <point x="1415" y="395"/>
      <point x="1392" y="406"/>
      <point x="1355" y="406" type="curve" smooth="yes"/>
      <point x="1334" y="406"/>
      <point x="1305" y="398"/>
      <point x="1297" y="373" type="curve"/>
      <point x="1282" y="332"/>
      <point x="1189" y="101"/>
      <point x="1025" y="101" type="curve" smooth="yes"/>
      <point x="652" y="101" type="line"/>
      <point x="608" y="105"/>
      <point x="567" y="124"/>
      <point x="577" y="197" type="curve" smooth="yes"/>
    </contour>
    <contour>
      <point x="626" y="-170" type="move" name="btm"/>
    </contour>
    <contour>
      <point x="942" y="1700" type="move" name="top"/>
    </contour>
  </outline>
</glyph>
<glyph name="F" format="1">
  <advance width="1374"/>
  <unicode hex="0046"/>
  <outline>
    <contour>
      <point x="10" y="51" type="curve" smooth="yes"/>
      <point x="7" y="36"/>
      <point x="14" y="0"/>
      <point x="37" y="0" type="curve" smooth="yes"/>
      <point x="819" y="0" type="line" smooth="yes"/>
      <point x="842" y="0"/>
      <point x="850" y="36"/>
      <point x="853" y="51" type="curve" smooth="yes"/>
      <point x="857" y="81"/>
      <point x="844" y="87"/>
      <point x="822" y="88" type="curve" smooth="yes"/>
      <point x="627" y="98"/>
      <point x="554" y="110"/>
      <point x="567" y="197" type="curve" smooth="yes"/>
      <point x="736" y="1331" type="line"/>
      <point x="1115" y="1331" type="line" smooth="yes"/>
      <point x="1221" y="1331"/>
      <point x="1283" y="1108"/>
      <point x="1283" y="1069" type="curve" smooth="yes"/>
      <point x="1280" y="1043"/>
      <point x="1298" y="1036"/>
      <point x="1319" y="1036" type="curve" smooth="yes"/>
      <point x="1340" y="1036"/>
      <point x="1380" y="1047"/>
      <point x="1387" y="1070" type="curve"/>
      <point x="1405" y="1419" type="line"/>
      <point x="241" y="1419" type="line" smooth="yes"/>
      <point x="218" y="1419"/>
      <point x="200" y="1383"/>
      <point x="199" y="1368" type="curve" smooth="yes"/>
      <point x="194" y="1338"/>
      <point x="200" y="1334"/>
      <point x="228" y="1331" type="curve"/>
      <point x="300" y="1326"/>
      <point x="398" y="1320"/>
      <point x="385" y="1234" type="curve" smooth="yes"/>
      <point x="223" y="152" type="line" smooth="yes"/>
      <point x="217" y="108"/>
      <point x="128" y="93"/>
      <point x="48" y="88" type="curve"/>
      <point x="21" y="85"/>
      <point x="12" y="72"/>
    </contour>
    <contour>
      <point x="475" y="643" type="line"/>
      <point x="899" y="643" type="line" smooth="yes"/>
      <point x="956" y="643"/>
      <point x="971" y="507"/>
      <point x="970" y="464" type="curve"/>
      <point x="968" y="438"/>
      <point x="1005" y="431"/>
      <point x="1036" y="431" type="curve" smooth="yes"/>
      <point x="1051" y="431"/>
      <point x="1079" y="442"/>
      <point x="1083" y="465" type="curve" smooth="yes"/>
      <point x="1153" y="908" type="line" smooth="yes"/>
      <point x="1157" y="931"/>
      <point x="1128" y="942"/>
      <point x="1113" y="942" type="curve" smooth="yes"/>
      <point x="1084" y="942"/>
      <point x="1048" y="935"/>
      <point x="1040" y="909" type="curve" smooth="yes"/>
      <point x="1029" y="869"/>
      <point x="970" y="746"/>
      <point x="917" y="739" type="curve"/>
      <point x="473" y="739" type="line"/>
    </contour>
    <contour>
      <point x="944" y="1700" type="move" name="top"/>
    </contour>
    <contour>
      <point x="620" y="-170" type="move" name="btm"/>
    </contour>
  </outline>
</glyph>
<glyph name="G" format="1">
  <advance width="1653"/>
  <unicode hex="0047"/>
  <outline>
    <contour>
      <point x="105" y="575" type="curve" smooth="yes"/>
      <point x="119" y="126"/>
      <point x="482" y="-30"/>
      <point x="817" y="-30" type="curve" smooth="yes"/>
      <point x="1132" y="-30"/>
      <point x="1362" y="79"/>
      <point x="1396" y="123" type="curve"/>
      <point x="1459" y="489" type="line"/>
      <point x="1459" y="533"/>
      <point x="1532" y="548"/>
      <point x="1595" y="553" type="curve" smooth="yes"/>
      <point x="1626" y="556"/>
      <point x="1636" y="576"/>
      <point x="1635" y="603" type="curve" smooth="yes"/>
      <point x="1635" y="620"/>
      <point x="1627" y="641"/>
      <point x="1610" y="641" type="curve" smooth="yes"/>
      <point x="958" y="641" type="line" smooth="yes"/>
      <point x="916" y="641"/>
      <point x="916" y="569"/>
      <point x="913" y="574" type="curve"/>
      <point x="914" y="559"/>
      <point x="923" y="554"/>
      <point x="944" y="553" type="curve"/>
      <point x="1015" y="547"/>
      <point x="1122" y="543"/>
      <point x="1125" y="475" type="curve"/>
      <point x="1124" y="469"/>
      <point x="1123" y="463"/>
      <point x="1124" y="456" type="curve"/>
      <point x="1069" y="170" type="line"/>
      <point x="1053" y="129"/>
      <point x="962" y="65"/>
      <point x="790" y="65" type="curve" smooth="yes"/>
      <point x="666" y="65"/>
      <point x="482" y="187"/>
      <point x="475" y="568" type="curve" smooth="yes"/>
      <point x="466" y="906"/>
      <point x="609" y="1353"/>
      <point x="958" y="1353" type="curve" smooth="yes"/>
      <point x="1138" y="1353"/>
      <point x="1325" y="1327"/>
      <point x="1355" y="1039" type="curve" smooth="yes"/>
      <point x="1362" y="1011"/>
      <point x="1390" y="1010"/>
      <point x="1427" y="1010" type="curve" smooth="yes"/>
      <point x="1443" y="1010"/>
      <point x="1484" y="1020"/>
      <point x="1485" y="1051" type="curve"/>
      <point x="1534" y="1361" type="line"/>
      <point x="1459" y="1392"/>
      <point x="1344" y="1449"/>
      <point x="984" y="1449" type="curve" smooth="yes"/>
      <point x="525" y="1449"/>
      <point x="87" y="1145"/>
    </contour>
    <contour>
      <point x="763" y="-170" type="move" name="btm"/>
    </contour>
    <contour>
      <point x="1080" y="1700" type="move" name="top"/>
    </contour>
  </outline>
</glyph>
<glyph name="H" format="1">
  <advance width="1870"/>
  <unicode hex="0048"/>
  <outline>
    <contour>
      <point x="719" y="1267" type="line"/>
      <point x="727" y="1311"/>
      <point x="809" y="1326"/>
      <point x="875" y="1331" type="curve"/>
      <point x="901" y="1334"/>
      <point x="910" y="1347"/>
      <point x="913" y="1368" type="curve" smooth="yes"/>
      <point x="917" y="1383"/>
      <point x="911" y="1419"/>
      <point x="888" y="1419" type="curve" smooth="yes"/>
      <point x="263" y="1419" type="line" smooth="yes"/>
      <point x="240" y="1419"/>
      <point x="220" y="1394"/>
      <point x="220" y="1377" type="curve" smooth="yes"/>
      <point x="220" y="1347"/>
      <point x="223" y="1334"/>
      <point x="251" y="1331" type="curve" smooth="yes"/>
      <point x="316" y="1326"/>
      <point x="402" y="1320"/>
      <point x="385" y="1234" type="curve" smooth="yes"/>
      <point x="224" y="152" type="line" smooth="yes"/>
      <point x="215" y="108"/>
      <point x="137" y="93"/>
      <point x="68" y="88" type="curve"/>
      <point x="41" y="85"/>
      <point x="33" y="72"/>
      <point x="28" y="51" type="curve" smooth="yes"/>
      <point x="26" y="36"/>
      <point x="34" y="0"/>
      <point x="57" y="0" type="curve" smooth="yes"/>
      <point x="682" y="0" type="line" smooth="yes"/>
      <point x="705" y="0"/>
      <point x="721" y="24"/>
      <point x="721" y="51" type="curve" smooth="yes"/>
      <point x="721" y="71"/>
      <point x="719" y="85"/>
      <point x="692" y="88" type="curve" smooth="yes"/>
      <point x="632" y="93"/>
      <point x="541" y="99"/>
      <point x="558" y="185" type="curve" smooth="yes"/>
    </contour>
    <contour>
      <point x="1209" y="152" type="line"/>
      <point x="1201" y="108"/>
      <point x="1118" y="93"/>
      <point x="1053" y="88" type="curve"/>
      <point x="1026" y="85"/>
      <point x="1018" y="72"/>
      <point x="1013" y="51" type="curve" smooth="yes"/>
      <point x="1011" y="36"/>
      <point x="1019" y="0"/>
      <point x="1042" y="0" type="curve" smooth="yes"/>
      <point x="1687" y="0" type="line" smooth="yes"/>
      <point x="1710" y="0"/>
      <point x="1726" y="23"/>
      <point x="1726" y="51" type="curve" smooth="yes"/>
      <point x="1726" y="71"/>
      <point x="1724" y="85"/>
      <point x="1697" y="88" type="curve" smooth="yes"/>
      <point x="1629" y="93"/>
      <point x="1524" y="99"/>
      <point x="1543" y="185" type="curve" smooth="yes"/>
      <point x="1704" y="1267" type="line" smooth="yes"/>
      <point x="1710" y="1311"/>
      <point x="1782" y="1326"/>
      <point x="1840" y="1331" type="curve"/>
      <point x="1866" y="1334"/>
      <point x="1875" y="1347"/>
      <point x="1878" y="1368" type="curve" smooth="yes"/>
      <point x="1881" y="1383"/>
      <point x="1876" y="1419"/>
      <point x="1853" y="1419" type="curve" smooth="yes"/>
      <point x="1248" y="1419" type="line" smooth="yes"/>
      <point x="1225" y="1419"/>
      <point x="1205" y="1392"/>
      <point x="1205" y="1374" type="curve" smooth="yes"/>
      <point x="1205" y="1344"/>
      <point x="1208" y="1334"/>
      <point x="1236" y="1331" type="curve" smooth="yes"/>
      <point x="1303" y="1326"/>
      <point x="1385" y="1319"/>
      <point x="1370" y="1234" type="curve" smooth="yes"/>
    </contour>
    <contour>
      <point x="583" y="682" type="line"/>
      <point x="1360" y="682" type="line"/>
      <point x="1360" y="778" type="line"/>
      <point x="583" y="778" type="line"/>
    </contour>
    <contour>
      <point x="831" y="-170" type="move" name="btm"/>
    </contour>
    <contour>
      <point x="1194" y="1700" type="move" name="top"/>
    </contour>
  </outline>
</glyph>
<glyph name="I" format="1">
  <advance width="924"/>
  <unicode hex="0049"/>
  <outline>
    <contour>
      <point x="68" y="51" type="curve" smooth="yes"/>
      <point x="66" y="36"/>
      <point x="68" y="0"/>
      <point x="91" y="0" type="curve" smooth="yes"/>
      <point x="746" y="0" type="line" smooth="yes"/>
      <point x="769" y="0"/>
      <point x="787" y="36"/>
      <point x="789" y="51" type="curve" smooth="yes"/>
      <point x="795" y="81"/>
      <point x="787" y="85"/>
      <point x="760" y="88" type="curve" smooth="yes"/>
      <point x="700" y="93"/>
      <point x="599" y="99"/>
      <point x="616" y="185" type="curve" smooth="yes"/>
      <point x="757" y="1267" type="line" smooth="yes"/>
      <point x="768" y="1311"/>
      <point x="838" y="1326"/>
      <point x="906" y="1331" type="curve" smooth="yes"/>
      <point x="932" y="1334"/>
      <point x="943" y="1347"/>
      <point x="946" y="1368" type="curve" smooth="yes"/>
      <point x="948" y="1383"/>
      <point x="946" y="1419"/>
      <point x="923" y="1419" type="curve" smooth="yes"/>
      <point x="278" y="1419" type="line" smooth="yes"/>
      <point x="255" y="1419"/>
      <point x="235" y="1383"/>
      <point x="233" y="1368" type="curve" smooth="yes"/>
      <point x="227" y="1338"/>
      <point x="234" y="1334"/>
      <point x="262" y="1331" type="curve" smooth="yes"/>
      <point x="322" y="1326"/>
      <point x="421" y="1320"/>
      <point x="405" y="1234" type="curve" smooth="yes"/>
      <point x="262" y="152" type="line" smooth="yes"/>
      <point x="256" y="108"/>
      <point x="171" y="93"/>
      <point x="106" y="88" type="curve" smooth="yes"/>
      <point x="80" y="85"/>
      <point x="71" y="72"/>
    </contour>
    <contour>
      <point x="675" y="1700" type="move" name="top"/>
    </contour>
    <contour>
      <point x="312" y="-170" type="move" name="btm"/>
    </contour>
  </outline>
</glyph>
<glyph name="J" format="1">
  <advance width="1219"/>
  <unicode hex="004A"/>
  <outline>
    <contour>
      <point x="449" y="-30" type="curve" smooth="yes"/>
      <point x="697" y="-30"/>
      <point x="964" y="48"/>
      <point x="1041" y="439" type="curve" smooth="yes"/>
      <point x="1159" y="1267" type="line" smooth="yes"/>
      <point x="1165" y="1311"/>
      <point x="1282" y="1325"/>
      <point x="1342" y="1331" type="curve" smooth="yes"/>
      <point x="1367" y="1333"/>
      <point x="1382" y="1350"/>
      <point x="1382" y="1372" type="curve" smooth="yes"/>
      <point x="1382" y="1389"/>
      <point x="1377" y="1419"/>
      <point x="1356" y="1419" type="curve" smooth="yes"/>
      <point x="611" y="1419" type="line" smooth="yes"/>
      <point x="581" y="1419"/>
      <point x="577" y="1375"/>
      <point x="577" y="1352" type="curve" smooth="yes"/>
      <point x="577" y="1337"/>
      <point x="586" y="1332"/>
      <point x="608" y="1331" type="curve" smooth="yes"/>
      <point x="766" y="1326"/>
      <point x="816" y="1323"/>
      <point x="816" y="1259" type="curve" smooth="yes"/>
      <point x="816" y="1254"/>
      <point x="816" y="1239"/>
      <point x="815" y="1234" type="curve" smooth="yes"/>
      <point x="695" y="406" type="line" smooth="yes"/>
      <point x="658" y="134"/>
      <point x="590" y="59"/>
      <point x="454" y="59" type="curve" smooth="yes"/>
      <point x="375" y="59"/>
      <point x="305" y="104"/>
      <point x="305" y="177" type="curve"/>
      <point x="347" y="447" type="line"/>
      <point x="347" y="487"/>
      <point x="292" y="532"/>
      <point x="222" y="532" type="curve" smooth="yes"/>
      <point x="67" y="532"/>
      <point x="7" y="425"/>
      <point x="7" y="318" type="curve" smooth="yes"/>
      <point x="7" y="53"/>
      <point x="269" y="-30"/>
    </contour>
    <contour>
      <point x="1057" y="1700" type="move" name="top"/>
    </contour>
    <contour>
      <point x="546" y="-170" type="move" name="btm"/>
    </contour>
  </outline>
</glyph>
<glyph name="K" format="1">
  <advance width="1673"/>
  <unicode hex="004B"/>
  <outline>
    <contour>
      <point x="30" y="51" type="curve"/>
      <point x="27" y="36"/>
      <point x="34" y="0"/>
      <point x="57" y="0" type="curve" smooth="yes"/>
      <point x="712" y="0" type="line" smooth="yes"/>
      <point x="734" y="0"/>
      <point x="750" y="36"/>
      <point x="753" y="51" type="curve"/>
      <point x="757" y="81"/>
      <point x="749" y="85"/>
      <point x="722" y="88" type="curve"/>
      <point x="647" y="93"/>
      <point x="551" y="99"/>
      <point x="565" y="185" type="curve" smooth="yes"/>
      <point x="717" y="1267" type="line" smooth="yes"/>
      <point x="724" y="1312"/>
      <point x="794" y="1325"/>
      <point x="862" y="1331" type="curve" smooth="yes"/>
      <point x="888" y="1333"/>
      <point x="898" y="1347"/>
      <point x="902" y="1368" type="curve"/>
      <point x="903" y="1383"/>
      <point x="899" y="1419"/>
      <point x="876" y="1419" type="curve" smooth="yes"/>
      <point x="251" y="1419" type="line" smooth="yes"/>
      <point x="228" y="1419"/>
      <point x="210" y="1383"/>
      <point x="209" y="1368" type="curve"/>
      <point x="204" y="1338"/>
      <point x="210" y="1334"/>
      <point x="238" y="1331" type="curve" smooth="yes"/>
      <point x="298" y="1326"/>
      <point x="389" y="1320"/>
      <point x="375" y="1234" type="curve" smooth="yes"/>
      <point x="223" y="152" type="line" smooth="yes"/>
      <point x="216" y="108"/>
      <point x="133" y="94"/>
      <point x="68" y="88" type="curve" smooth="yes"/>
      <point x="41" y="85"/>
      <point x="32" y="72"/>
    </contour>
    <contour>
      <point x="693" y="692" type="line"/>
      <point x="776" y="625"/>
      <point x="867" y="495"/>
      <point x="1094" y="70" type="curve" smooth="yes"/>
      <point x="1109" y="41"/>
      <point x="1127" y="0"/>
      <point x="1194" y="0" type="curve" smooth="yes"/>
      <point x="1612" y="0" type="line" smooth="yes"/>
      <point x="1634" y="0"/>
      <point x="1646" y="17"/>
      <point x="1649" y="32" type="curve" smooth="yes"/>
      <point x="1654" y="62"/>
      <point x="1651" y="86"/>
      <point x="1622" y="89" type="curve" smooth="yes"/>
      <point x="1527" y="99"/>
      <point x="1423" y="244"/>
      <point x="1371" y="317" type="curve" smooth="yes"/>
      <point x="1302" y="415"/>
      <point x="1225" y="554"/>
      <point x="991" y="846" type="curve"/>
      <point x="1365" y="1211" type="line" smooth="yes"/>
      <point x="1399" y="1245"/>
      <point x="1495" y="1330"/>
      <point x="1656" y="1330" type="curve" smooth="yes"/>
      <point x="1678" y="1330"/>
      <point x="1692" y="1343"/>
      <point x="1697" y="1367" type="curve"/>
      <point x="1698" y="1382"/>
      <point x="1694" y="1418"/>
      <point x="1671" y="1418" type="curve" smooth="yes"/>
      <point x="1149" y="1418" type="line" smooth="yes"/>
      <point x="1126" y="1418"/>
      <point x="1108" y="1382"/>
      <point x="1107" y="1367" type="curve"/>
      <point x="1103" y="1346"/>
      <point x="1105" y="1332"/>
      <point x="1130" y="1330" type="curve" smooth="yes"/>
      <point x="1200" y="1324"/>
      <point x="1259" y="1303"/>
      <point x="1259" y="1275" type="curve" smooth="yes"/>
      <point x="1259" y="1266"/>
      <point x="1255" y="1256"/>
      <point x="1244" y="1246" type="curve" smooth="yes"/>
    </contour>
    <contour>
      <point x="783" y="-170" type="move" name="btm"/>
    </contour>
    <contour>
      <point x="1047" y="1700" type="move" name="top"/>
    </contour>
  </outline>
</glyph>
<glyph name="L" format="1">
  <advance width="1405"/>
  <unicode hex="004C"/>
  <outline>
    <contour>
      <point x="30" y="51" type="curve" smooth="yes"/>
      <point x="27" y="36"/>
      <point x="34" y="0"/>
      <point x="57" y="0" type="curve" smooth="yes"/>
      <point x="1248" y="0" type="line"/>
      <point x="1363" y="497" type="line" smooth="yes"/>
      <point x="1369" y="520"/>
      <point x="1326" y="531"/>
      <point x="1297" y="531" type="curve" smooth="yes"/>
      <point x="1276" y="531"/>
      <point x="1246" y="522"/>
      <point x="1235" y="498" type="curve" smooth="yes"/>
      <point x="1161" y="354"/>
      <point x="1044" y="101"/>
      <point x="924" y="101" type="curve" smooth="yes"/>
      <point x="654" y="101" type="line" smooth="yes"/>
      <point x="609" y="102"/>
      <point x="574" y="116"/>
      <point x="583" y="177" type="curve" smooth="yes"/>
      <point x="722" y="1237" type="line" smooth="yes"/>
      <point x="735" y="1311"/>
      <point x="824" y="1331"/>
      <point x="892" y="1331" type="curve" smooth="yes"/>
      <point x="918" y="1331"/>
      <point x="928" y="1347"/>
      <point x="932" y="1368" type="curve" smooth="yes"/>
      <point x="933" y="1383"/>
      <point x="929" y="1419"/>
      <point x="906" y="1419" type="curve" smooth="yes"/>
      <point x="241" y="1419" type="line" smooth="yes"/>
      <point x="218" y="1419"/>
      <point x="200" y="1383"/>
      <point x="199" y="1368" type="curve" smooth="yes"/>
      <point x="194" y="1338"/>
      <point x="200" y="1334"/>
      <point x="228" y="1331" type="curve" smooth="yes"/>
      <point x="288" y="1326"/>
      <point x="378" y="1320"/>
      <point x="365" y="1234" type="curve" smooth="yes"/>
      <point x="223" y="152" type="line" smooth="yes"/>
      <point x="217" y="108"/>
      <point x="133" y="94"/>
      <point x="68" y="88" type="curve" smooth="yes"/>
      <point x="41" y="85"/>
      <point x="32" y="72"/>
    </contour>
    <contour>
      <point x="654" y="-170" type="move" name="btm"/>
    </contour>
    <contour>
      <point x="703" y="1700" type="move" name="top"/>
    </contour>
  </outline>
</glyph>
<glyph name="M" format="1">
  <advance width="2116"/>
  <unicode hex="004D"/>
  <outline>
    <contour>
      <point x="847" y="0" type="line"/>
      <point x="952" y="0" type="line"/>
      <point x="1548" y="1281" type="line"/>
      <point x="1577" y="1281" type="line"/>
      <point x="1489" y="152" type="line" smooth="yes"/>
      <point x="1484" y="108"/>
      <point x="1360" y="93"/>
      <point x="1295" y="88" type="curve"/>
      <point x="1268" y="85"/>
      <point x="1260" y="72"/>
      <point x="1257" y="51" type="curve" smooth="yes"/>
      <point x="1255" y="36"/>
      <point x="1262" y="0"/>
      <point x="1284" y="0" type="curve" smooth="yes"/>
      <point x="1986" y="0" type="line" smooth="yes"/>
      <point x="2008" y="0"/>
      <point x="2024" y="36"/>
      <point x="2027" y="51" type="curve" smooth="yes"/>
      <point x="2031" y="81"/>
      <point x="2023" y="85"/>
      <point x="1996" y="88" type="curve" smooth="yes"/>
      <point x="1936" y="93"/>
      <point x="1818" y="99"/>
      <point x="1828" y="185" type="curve" smooth="yes"/>
      <point x="1907" y="1267" type="line" smooth="yes"/>
      <point x="1912" y="1311"/>
      <point x="2018" y="1326"/>
      <point x="2083" y="1331" type="curve"/>
      <point x="2109" y="1334"/>
      <point x="2118" y="1347"/>
      <point x="2121" y="1368" type="curve" smooth="yes"/>
      <point x="2123" y="1383"/>
      <point x="2119" y="1419"/>
      <point x="2096" y="1419" type="curve" smooth="yes"/>
      <point x="1498" y="1419" type="line"/>
      <point x="1481" y="1373"/>
      <point x="1466" y="1326"/>
      <point x="1429" y="1246" type="curve"/>
      <point x="1062" y="484" type="line"/>
      <point x="1050" y="484" type="line"/>
      <point x="884" y="1419" type="line"/>
      <point x="238" y="1419" type="line"/>
      <point x="213" y="1418"/>
      <point x="197" y="1383"/>
      <point x="195" y="1368" type="curve" smooth="yes"/>
      <point x="191" y="1338"/>
      <point x="198" y="1334"/>
      <point x="226" y="1331" type="curve"/>
      <point x="298" y="1326"/>
      <point x="430" y="1319"/>
      <point x="413" y="1234" type="curve" smooth="yes"/>
      <point x="217" y="184" type="line" smooth="yes"/>
      <point x="200" y="101"/>
      <point x="79" y="93"/>
      <point x="1" y="88" type="curve"/>
      <point x="-26" y="85"/>
      <point x="-33" y="72"/>
      <point x="-36" y="51" type="curve" smooth="yes"/>
      <point x="-38" y="36"/>
      <point x="-34" y="0"/>
      <point x="-12" y="0" type="curve" smooth="yes"/>
      <point x="483" y="0" type="line" smooth="yes"/>
      <point x="506" y="0"/>
      <point x="522" y="36"/>
      <point x="524" y="51" type="curve" smooth="yes"/>
      <point x="528" y="81"/>
      <point x="520" y="85"/>
      <point x="493" y="88" type="curve"/>
      <point x="421" y="93"/>
      <point x="298" y="100"/>
      <point x="315" y="185" type="curve" smooth="yes"/>
      <point x="517" y="1281" type="line"/>
      <point x="553" y="1281" type="line"/>
    </contour>
    <contour>
      <point x="1216" y="1700" type="move" name="top"/>
    </contour>
    <contour>
      <point x="853" y="-170" type="move" name="btm"/>
    </contour>
  </outline>
</glyph>
<glyph name="N" format="1">
  <advance width="1700"/>
  <unicode hex="004E"/>
  <outline>
    <contour>
      <point x="-30" y="51" type="curve" smooth="yes"/>
      <point x="-33" y="36"/>
      <point x="-28" y="0"/>
      <point x="-5" y="0" type="curve" smooth="yes"/>
      <point x="513" y="0" type="line" smooth="yes"/>
      <point x="536" y="0"/>
      <point x="551" y="36"/>
      <point x="554" y="51" type="curve" smooth="yes"/>
      <point x="560" y="81"/>
      <point x="552" y="85"/>
      <point x="525" y="88" type="curve" smooth="yes"/>
      <point x="465" y="93"/>
      <point x="305" y="99"/>
      <point x="322" y="185" type="curve" smooth="yes"/>
      <point x="486" y="1180" type="line"/>
      <point x="503" y="1180" type="line"/>
      <point x="1114" y="-8" type="line"/>
      <point x="1122" y="-20"/>
      <point x="1214" y="-30"/>
      <point x="1235" y="-30" type="curve" smooth="yes"/>
      <point x="1312" y="-30"/>
      <point x="1376" y="-16"/>
      <point x="1393" y="40" type="curve" smooth="yes"/>
      <point x="1397" y="78"/>
      <point x="1396" y="88"/>
      <point x="1400" y="113" type="curve" smooth="yes"/>
      <point x="1580" y="1234" type="line" smooth="yes"/>
      <point x="1598" y="1320"/>
      <point x="1730" y="1325"/>
      <point x="1791" y="1331" type="curve" smooth="yes"/>
      <point x="1817" y="1334"/>
      <point x="1827" y="1347"/>
      <point x="1831" y="1368" type="curve" smooth="yes"/>
      <point x="1834" y="1383"/>
      <point x="1830" y="1419"/>
      <point x="1807" y="1419" type="curve" smooth="yes"/>
      <point x="1282" y="1419" type="line" smooth="yes"/>
      <point x="1259" y="1419"/>
      <point x="1241" y="1383"/>
      <point x="1238" y="1368" type="curve" smooth="yes"/>
      <point x="1233" y="1338"/>
      <point x="1239" y="1334"/>
      <point x="1267" y="1331" type="curve" smooth="yes"/>
      <point x="1326" y="1326"/>
      <point x="1497" y="1320"/>
      <point x="1480" y="1234" type="curve" smooth="yes"/>
      <point x="1339" y="308" type="line"/>
      <point x="1327" y="308" type="line"/>
      <point x="755" y="1419" type="line"/>
      <point x="254" y="1419" type="line" smooth="yes"/>
      <point x="231" y="1419"/>
      <point x="213" y="1383"/>
      <point x="210" y="1368" type="curve" smooth="yes"/>
      <point x="205" y="1338"/>
      <point x="211" y="1334"/>
      <point x="239" y="1331" type="curve" smooth="yes"/>
      <point x="299" y="1326"/>
      <point x="410" y="1290"/>
      <point x="393" y="1204" type="curve" smooth="yes"/>
      <point x="220" y="172" type="line" smooth="yes"/>
      <point x="207" y="108"/>
      <point x="73" y="93"/>
      <point x="10" y="88" type="curve"/>
      <point x="-17" y="85"/>
      <point x="-26" y="72"/>
    </contour>
    <contour>
      <point x="1072" y="1700" type="move" name="top"/>
    </contour>
    <contour>
      <point x="818" y="-170" type="move" name="btm"/>
    </contour>
  </outline>
</glyph>
<glyph name="O" format="1">
  <advance width="1679"/>
  <unicode hex="004F"/>
  <outline>
    <contour>
      <point x="111" y="596" type="curve" smooth="yes"/>
      <point x="111" y="249"/>
      <point x="320" y="-29"/>
      <point x="772" y="-29" type="curve" smooth="yes"/>
      <point x="1318" y="-29"/>
      <point x="1643" y="390"/>
      <point x="1643" y="838" type="curve" smooth="yes"/>
      <point x="1643" y="1182"/>
      <point x="1430" y="1449"/>
      <point x="964" y="1449" type="curve" smooth="yes"/>
      <point x="430" y="1449"/>
      <point x="111" y="1045"/>
    </contour>
    <contour>
      <point x="798" y="65" type="curve" smooth="yes"/>
      <point x="562" y="65"/>
      <point x="479" y="231"/>
      <point x="479" y="499" type="curve" smooth="yes"/>
      <point x="479" y="905"/>
      <point x="583" y="1356"/>
      <point x="966" y="1356" type="curve" smooth="yes"/>
      <point x="1195" y="1356"/>
      <point x="1275" y="1194"/>
      <point x="1275" y="925" type="curve" smooth="yes"/>
      <point x="1275" y="520"/>
      <point x="1171" y="65"/>
    </contour>
    <contour>
      <point x="716" y="-170" type="move" name="btm"/>
    </contour>
    <contour>
      <point x="1079" y="1700" type="move" name="top"/>
    </contour>
  </outline>
</glyph>
<glyph name="P" format="1">
  <advance width="1446"/>
  <unicode hex="0050"/>
  <outline>
    <contour>
      <point x="30" y="51" type="curve" smooth="yes"/>
      <point x="30" y="32"/>
      <point x="37" y="0"/>
      <point x="60" y="0" type="curve" smooth="yes"/>
      <point x="772" y="0" type="line" smooth="yes"/>
      <point x="795" y="0"/>
      <point x="813" y="24"/>
      <point x="813" y="46" type="curve" smooth="yes"/>
      <point x="813" y="76"/>
      <point x="806" y="86"/>
      <point x="779" y="88" type="curve" smooth="yes"/>
      <point x="645" y="99"/>
      <point x="553" y="112"/>
      <point x="565" y="185" type="curve" smooth="yes"/>
      <point x="625" y="555" type="line"/>
      <point x="784" y="555" type="line" smooth="yes"/>
      <point x="1214" y="555"/>
      <point x="1473" y="737"/>
      <point x="1473" y="1069" type="curve" smooth="yes"/>
      <point x="1473" y="1241"/>
      <point x="1373" y="1419"/>
      <point x="898" y="1419" type="curve"/>
      <point x="251" y="1419" type="line" smooth="yes"/>
      <point x="228" y="1419"/>
      <point x="210" y="1383"/>
      <point x="209" y="1368" type="curve"/>
      <point x="204" y="1338"/>
      <point x="210" y="1334"/>
      <point x="238" y="1331" type="curve" smooth="yes"/>
      <point x="298" y="1326"/>
      <point x="389" y="1320"/>
      <point x="375" y="1234" type="curve" smooth="yes"/>
      <point x="224" y="152" type="line" smooth="yes"/>
      <point x="217" y="108"/>
      <point x="133" y="94"/>
      <point x="68" y="88" type="curve" smooth="yes"/>
      <point x="41" y="85"/>
      <point x="30" y="72"/>
    </contour>
    <contour>
      <point x="637" y="641" type="line"/>
      <point x="727" y="1331" type="line"/>
      <point x="769" y="1331" type="line" smooth="yes"/>
      <point x="1056" y="1331"/>
      <point x="1106" y="1229"/>
      <point x="1106" y="1071" type="curve" smooth="yes"/>
      <point x="1106" y="777"/>
      <point x="974" y="641"/>
      <point x="733" y="641" type="curve" smooth="yes"/>
    </contour>
    <contour>
      <point x="922" y="1700" type="move" name="top"/>
    </contour>
    <contour>
      <point x="405" y="-170" type="move" name="btm"/>
    </contour>
  </outline>
</glyph>
<glyph name="Q" format="1">
  <advance width="1679"/>
  <unicode hex="0051"/>
  <outline>
    <contour>
      <point x="622" y="0" type="curve"/>
      <point x="586" y="-254"/>
      <point x="822" y="-419"/>
      <point x="1131" y="-419" type="curve" smooth="yes"/>
      <point x="1307" y="-419"/>
      <point x="1394" y="-383"/>
      <point x="1394" y="-383" type="curve"/>
      <point x="1394" y="-383"/>
      <point x="1394" y="-313"/>
      <point x="1394" y="-313" type="curve"/>
      <point x="1038" y="-320"/>
      <point x="922" y="-96"/>
      <point x="954" y="29" type="curve"/>
      <point x="954" y="29"/>
      <point x="622" y="0"/>
    </contour>
    <component base="O" xOffset="5"/>
    <contour>
      <point x="775" y="-170" type="move" name="btm"/>
    </contour>
    <contour>
      <point x="775" y="1700" type="move" name="top"/>
    </contour>
  </outline>
</glyph>
<glyph name="R" format="1">
  <advance width="1632"/>
  <unicode hex="0052"/>
  <outline>
    <contour>
      <point x="707" y="1331" type="line"/>
      <point x="833" y="1331" type="line" smooth="yes"/>
      <point x="1080" y="1331"/>
      <point x="1162" y="1265"/>
      <point x="1162" y="1054" type="curve" smooth="yes"/>
      <point x="1162" y="833"/>
      <point x="1051" y="701"/>
      <point x="787" y="701" type="curve" smooth="yes"/>
      <point x="558" y="701" type="line"/>
      <point x="558" y="625" type="line"/>
      <point x="820" y="625" type="line"/>
      <point x="1017" y="636" type="line"/>
      <point x="1290" y="661"/>
      <point x="1507" y="838"/>
      <point x="1507" y="1057" type="curve" smooth="yes"/>
      <point x="1507" y="1291"/>
      <point x="1380" y="1419"/>
      <point x="853" y="1419" type="curve" smooth="yes"/>
      <point x="229" y="1419" type="line" smooth="yes"/>
      <point x="198" y="1419"/>
      <point x="187" y="1391"/>
      <point x="187" y="1358" type="curve" smooth="yes"/>
      <point x="187" y="1305"/>
      <point x="372" y="1348"/>
      <point x="361" y="1251" type="curve"/>
      <point x="225" y="152" type="line" smooth="yes"/>
      <point x="220" y="107"/>
      <point x="147" y="94"/>
      <point x="82" y="88" type="curve" smooth="yes"/>
      <point x="56" y="86"/>
      <point x="49" y="63"/>
      <point x="49" y="42" type="curve" smooth="yes"/>
      <point x="49" y="25"/>
      <point x="56" y="0"/>
      <point x="75" y="0" type="curve" smooth="yes"/>
      <point x="710" y="0" type="line" smooth="yes"/>
      <point x="747" y="0"/>
      <point x="747" y="39"/>
      <point x="747" y="56" type="curve" smooth="yes"/>
      <point x="747" y="72"/>
      <point x="737" y="86"/>
      <point x="716" y="88" type="curve" smooth="yes"/>
      <point x="654" y="93"/>
      <point x="554" y="98"/>
      <point x="565" y="185" type="curve" smooth="yes"/>
    </contour>
    <contour>
      <point x="807" y="667" type="line"/>
      <point x="901" y="569"/>
      <point x="1000" y="243"/>
      <point x="1077" y="80" type="curve" smooth="yes"/>
      <point x="1105" y="23"/>
      <point x="1151" y="0"/>
      <point x="1224" y="0" type="curve" smooth="yes"/>
      <point x="1547" y="0" type="line" smooth="yes"/>
      <point x="1569" y="0"/>
      <point x="1581" y="17"/>
      <point x="1581" y="32" type="curve" smooth="yes"/>
      <point x="1582" y="62"/>
      <point x="1575" y="86"/>
      <point x="1547" y="89" type="curve" smooth="yes"/>
      <point x="1462" y="99"/>
      <point x="1421" y="172"/>
      <point x="1337" y="307" type="curve" smooth="yes"/>
      <point x="1265" y="418"/>
      <point x="1193" y="595"/>
      <point x="1127" y="700" type="curve"/>
    </contour>
    <contour>
      <point x="819" y="-170" type="move" name="btm"/>
    </contour>
    <contour>
      <point x="910" y="1700" type="move" name="top"/>
    </contour>
  </outline>
</glyph>
<glyph name="S" format="1">
  <advance width="1337"/>
  <unicode hex="0053"/>
  <outline>
    <contour>
      <point x="90" y="72" type="curve" smooth="yes"/>
      <point x="85" y="48"/>
      <point x="112" y="20"/>
      <point x="140" y="20" type="curve" smooth="yes"/>
      <point x="160" y="20"/>
      <point x="192" y="32"/>
      <point x="215" y="61" type="curve" smooth="yes"/>
      <point x="226" y="76"/>
      <point x="241" y="83"/>
      <point x="248" y="78" type="curve" smooth="yes"/>
      <point x="307" y="38"/>
      <point x="482" y="-30"/>
      <point x="648" y="-30" type="curve" smooth="yes"/>
      <point x="1046" y="-30"/>
      <point x="1224" y="194"/>
      <point x="1224" y="400" type="curve" smooth="yes"/>
      <point x="1224" y="619"/>
      <point x="1054" y="753"/>
      <point x="882" y="858" type="curve" smooth="yes"/>
      <point x="728" y="951"/>
      <point x="587" y="1034"/>
      <point x="587" y="1176" type="curve" smooth="yes"/>
      <point x="587" y="1308"/>
      <point x="684" y="1370"/>
      <point x="843" y="1370" type="curve" smooth="yes"/>
      <point x="999" y="1370"/>
      <point x="1111" y="1295"/>
      <point x="1148" y="1059" type="curve" smooth="yes"/>
      <point x="1151" y="1040"/>
      <point x="1187" y="1028"/>
      <point x="1208" y="1028" type="curve" smooth="yes"/>
      <point x="1236" y="1028"/>
      <point x="1260" y="1032"/>
      <point x="1262" y="1087" type="curve" smooth="yes"/>
      <point x="1267" y="1208"/>
      <point x="1280" y="1330"/>
      <point x="1290" y="1404" type="curve" smooth="yes"/>
      <point x="1292" y="1422"/>
      <point x="1263" y="1432"/>
      <point x="1232" y="1432" type="curve" smooth="yes"/>
      <point x="1194" y="1432"/>
      <point x="1195" y="1383"/>
      <point x="1154" y="1383" type="curve" smooth="yes"/>
      <point x="1147" y="1383"/>
      <point x="1128" y="1386"/>
      <point x="1118" y="1391" type="curve" smooth="yes"/>
      <point x="1089" y="1405"/>
      <point x="969" y="1449"/>
      <point x="825" y="1449" type="curve" smooth="yes"/>
      <point x="491" y="1449"/>
      <point x="281" y="1291"/>
      <point x="281" y="1065" type="curve" smooth="yes"/>
      <point x="281" y="860"/>
      <point x="434" y="720"/>
      <point x="590" y="614" type="curve" smooth="yes"/>
      <point x="756" y="504"/>
      <point x="917" y="418"/>
      <point x="917" y="276" type="curve" smooth="yes"/>
      <point x="917" y="119"/>
      <point x="815" y="59"/>
      <point x="635" y="59" type="curve" smooth="yes"/>
      <point x="489" y="59"/>
      <point x="348" y="126"/>
      <point x="301" y="277" type="curve" smooth="yes"/>
      <point x="270" y="376"/>
      <point x="269" y="444"/>
      <point x="267" y="478" type="curve"/>
      <point x="267" y="505"/>
      <point x="231" y="520"/>
      <point x="208" y="520" type="curve" smooth="yes"/>
      <point x="181" y="520"/>
      <point x="150" y="513"/>
      <point x="149" y="471" type="curve"/>
      <point x="145" y="391"/>
      <point x="122" y="214"/>
    </contour>
    <contour>
      <point x="928" y="1700" type="move" name="top"/>
    </contour>
    <contour>
      <point x="565" y="-170" type="move" name="btm"/>
    </contour>
  </outline>
</glyph>
<glyph name="T" format="1">
  <advance width="1401"/>
  <unicode hex="0054"/>
  <outline>
    <contour>
      <point x="231" y="51" type="curve" smooth="yes"/>
      <point x="228" y="36"/>
      <point x="235" y="0"/>
      <point x="258" y="0" type="curve" smooth="yes"/>
      <point x="1044" y="0" type="line" smooth="yes"/>
      <point x="1067" y="0"/>
      <point x="1089" y="27"/>
      <point x="1089" y="50" type="curve" smooth="yes"/>
      <point x="1089" y="80"/>
      <point x="1081" y="86"/>
      <point x="1054" y="88" type="curve" smooth="yes"/>
      <point x="974" y="95"/>
      <point x="828" y="99"/>
      <point x="841" y="185" type="curve" smooth="yes"/>
      <point x="1011" y="1331" type="line"/>
      <point x="1133" y="1331" type="line" smooth="yes"/>
      <point x="1350" y="1331"/>
      <point x="1332" y="1002"/>
      <point x="1332" y="937" type="curve"/>
      <point x="1330" y="911"/>
      <point x="1356" y="904"/>
      <point x="1377" y="904" type="curve" smooth="yes"/>
      <point x="1392" y="904"/>
      <point x="1441" y="915"/>
      <point x="1445" y="938" type="curve"/>
      <point x="1460" y="1069"/>
      <point x="1503" y="1419"/>
      <point x="1488" y="1419" type="curve" smooth="yes"/>
      <point x="221" y="1419" type="line" smooth="yes"/>
      <point x="206" y="1419"/>
      <point x="122" y="1069"/>
      <point x="99" y="938" type="curve"/>
      <point x="95" y="915"/>
      <point x="162" y="904"/>
      <point x="177" y="904" type="curve" smooth="yes"/>
      <point x="198" y="904"/>
      <point x="226" y="911"/>
      <point x="234" y="937" type="curve"/>
      <point x="249" y="1002"/>
      <point x="365" y="1331"/>
      <point x="569" y="1331" type="curve" smooth="yes"/>
      <point x="679" y="1331" type="line"/>
      <point x="508" y="182" type="line" smooth="yes"/>
      <point x="497" y="108"/>
      <point x="364" y="96"/>
      <point x="269" y="88" type="curve" smooth="yes"/>
      <point x="242" y="86"/>
      <point x="233" y="72"/>
    </contour>
    <contour>
      <point x="610" y="-170" type="move" name="btm"/>
    </contour>
    <contour>
      <point x="941" y="1700" type="move" name="top"/>
    </contour>
  </outline>
</glyph>
<glyph name="U" format="1">
  <advance width="1706"/>
  <unicode hex="0055"/>
  <outline>
    <contour>
      <point x="272" y="546" type="line" smooth="yes"/>
      <point x="264" y="504"/>
      <point x="261" y="448"/>
      <point x="261" y="394" type="curve" smooth="yes"/>
      <point x="272" y="116"/>
      <point x="477" y="-29"/>
      <point x="860" y="-29" type="curve" smooth="yes"/>
      <point x="1207" y="-29"/>
      <point x="1392" y="157"/>
      <point x="1469" y="546" type="curve" smooth="yes"/>
      <point x="1575" y="1230" type="line" smooth="yes"/>
      <point x="1584" y="1294"/>
      <point x="1653" y="1326"/>
      <point x="1766" y="1331" type="curve" smooth="yes"/>
      <point x="1794" y="1332"/>
      <point x="1806" y="1352"/>
      <point x="1805" y="1378" type="curve" smooth="yes"/>
      <point x="1805" y="1395"/>
      <point x="1799" y="1419"/>
      <point x="1780" y="1419" type="curve" smooth="yes"/>
      <point x="1324" y="1419" type="line" smooth="yes"/>
      <point x="1301" y="1419"/>
      <point x="1283" y="1383"/>
      <point x="1282" y="1368" type="curve" smooth="yes"/>
      <point x="1281" y="1362"/>
      <point x="1280" y="1357"/>
      <point x="1280" y="1352" type="curve" smooth="yes"/>
      <point x="1280" y="1336"/>
      <point x="1289" y="1332"/>
      <point x="1311" y="1331" type="curve" smooth="yes"/>
      <point x="1424" y="1325"/>
      <point x="1477" y="1315"/>
      <point x="1477" y="1265" type="curve" smooth="yes"/>
      <point x="1477" y="1262"/>
      <point x="1476" y="1254"/>
      <point x="1474" y="1244" type="curve" smooth="yes"/>
      <point x="1375" y="578" type="line" smooth="yes"/>
      <point x="1327" y="331"/>
      <point x="1231" y="65"/>
      <point x="899" y="65" type="curve" smooth="yes"/>
      <point x="716" y="65"/>
      <point x="612" y="144"/>
      <point x="604" y="361" type="curve" smooth="yes"/>
      <point x="604" y="411"/>
      <point x="607" y="491"/>
      <point x="619" y="554" type="curve" smooth="yes"/>
      <point x="724" y="1267" type="line" smooth="yes"/>
      <point x="732" y="1311"/>
      <point x="789" y="1329"/>
      <point x="899" y="1331" type="curve" smooth="yes"/>
      <point x="927" y="1332"/>
      <point x="940" y="1352"/>
      <point x="938" y="1378" type="curve" smooth="yes"/>
      <point x="938" y="1395"/>
      <point x="931" y="1419"/>
      <point x="913" y="1419" type="curve" smooth="yes"/>
      <point x="248" y="1419" type="line" smooth="yes"/>
      <point x="224" y="1419"/>
      <point x="207" y="1383"/>
      <point x="206" y="1368" type="curve" smooth="yes"/>
      <point x="205" y="1362"/>
      <point x="204" y="1357"/>
      <point x="204" y="1352" type="curve" smooth="yes"/>
      <point x="206" y="1309"/>
      <point x="390" y="1350"/>
      <point x="372" y="1256" type="curve" smooth="yes"/>
    </contour>
    <contour>
      <point x="789" y="-170" type="move" name="btm"/>
    </contour>
    <contour>
      <point x="1178" y="1700" type="move" name="top"/>
    </contour>
  </outline>
</glyph>
<glyph name="V" format="1">
  <advance width="1561"/>
  <unicode hex="0056"/>
  <outline>
    <contour>
      <point x="496" y="-18" type="line"/>
      <point x="742" y="-18" type="line"/>
      <point x="1565" y="1241" type="line"/>
      <point x="1619" y="1326"/>
      <point x="1701" y="1326"/>
      <point x="1751" y="1331" type="curve" smooth="yes"/>
      <point x="1779" y="1334"/>
      <point x="1789" y="1338"/>
      <point x="1794" y="1368" type="curve" smooth="yes"/>
      <point x="1797" y="1383"/>
      <point x="1792" y="1419"/>
      <point x="1770" y="1419" type="curve" smooth="yes"/>
      <point x="1315" y="1419" type="line" smooth="yes"/>
      <point x="1292" y="1419"/>
      <point x="1274" y="1383"/>
      <point x="1271" y="1368" type="curve" smooth="yes"/>
      <point x="1267" y="1347"/>
      <point x="1271" y="1333"/>
      <point x="1297" y="1331" type="curve" smooth="yes"/>
      <point x="1424" y="1323"/>
      <point x="1456" y="1293"/>
      <point x="1434" y="1246" type="curve"/>
      <point x="789" y="222" type="line"/>
      <point x="782" y="222" type="line"/>
      <point x="631" y="1250" type="line" smooth="yes"/>
      <point x="624" y="1298"/>
      <point x="675" y="1322"/>
      <point x="790" y="1331" type="curve" smooth="yes"/>
      <point x="816" y="1333"/>
      <point x="826" y="1347"/>
      <point x="830" y="1368" type="curve" smooth="yes"/>
      <point x="833" y="1383"/>
      <point x="829" y="1419"/>
      <point x="806" y="1419" type="curve" smooth="yes"/>
      <point x="131" y="1419" type="line" smooth="yes"/>
      <point x="109" y="1419"/>
      <point x="90" y="1383"/>
      <point x="87" y="1368" type="curve" smooth="yes"/>
      <point x="82" y="1338"/>
      <point x="88" y="1334"/>
      <point x="116" y="1331" type="curve" smooth="yes"/>
      <point x="164" y="1326"/>
      <point x="246" y="1342"/>
      <point x="262" y="1254" type="curve" smooth="yes"/>
    </contour>
    <contour>
      <point x="1012" y="1700" type="move" name="top"/>
    </contour>
    <contour>
      <point x="650" y="-170" type="move" name="btm"/>
    </contour>
  </outline>
</glyph>
<glyph name="W" format="1">
  <advance width="2306"/>
  <unicode hex="0057"/>
  <outline>
    <contour>
      <point x="468" y="-18" type="line"/>
      <point x="721" y="-18" type="line"/>
      <point x="1255" y="1039" type="line"/>
      <point x="1339" y="-18" type="line"/>
      <point x="1614" y="-18" type="line"/>
      <point x="2308" y="1254" type="line" smooth="yes"/>
      <point x="2348" y="1328"/>
      <point x="2443" y="1326"/>
      <point x="2494" y="1331" type="curve" smooth="yes"/>
      <point x="2522" y="1334"/>
      <point x="2532" y="1338"/>
      <point x="2537" y="1368" type="curve" smooth="yes"/>
      <point x="2540" y="1383"/>
      <point x="2535" y="1419"/>
      <point x="2513" y="1419" type="curve" smooth="yes"/>
      <point x="1968" y="1419" type="line" smooth="yes"/>
      <point x="1945" y="1419"/>
      <point x="1927" y="1383"/>
      <point x="1924" y="1368" type="curve" smooth="yes"/>
      <point x="1920" y="1347"/>
      <point x="1924" y="1331"/>
      <point x="1950" y="1331" type="curve" smooth="yes"/>
      <point x="2058" y="1331"/>
      <point x="2166" y="1300"/>
      <point x="2137" y="1242" type="curve" smooth="yes"/>
      <point x="1668" y="291" type="line"/>
      <point x="1655" y="291" type="line"/>
      <point x="1554" y="1399" type="line"/>
      <point x="1296" y="1399" type="line"/>
      <point x="768" y="291" type="line"/>
      <point x="754" y="291" type="line"/>
      <point x="671" y="1261" type="line" smooth="yes"/>
      <point x="667" y="1309"/>
      <point x="744" y="1331"/>
      <point x="855" y="1331" type="curve" smooth="yes"/>
      <point x="881" y="1331"/>
      <point x="891" y="1347"/>
      <point x="895" y="1368" type="curve" smooth="yes"/>
      <point x="898" y="1383"/>
      <point x="894" y="1419"/>
      <point x="871" y="1419" type="curve" smooth="yes"/>
      <point x="171" y="1419" type="line" smooth="yes"/>
      <point x="149" y="1419"/>
      <point x="130" y="1383"/>
      <point x="127" y="1368" type="curve" smooth="yes"/>
      <point x="122" y="1338"/>
      <point x="128" y="1334"/>
      <point x="156" y="1331" type="curve" smooth="yes"/>
      <point x="204" y="1326"/>
      <point x="315" y="1343"/>
      <point x="322" y="1254" type="curve"/>
    </contour>
    <contour>
      <point x="999" y="-170" type="move" name="btm"/>
    </contour>
    <contour>
      <point x="1508" y="1700" type="move" name="top"/>
    </contour>
  </outline>
</glyph>
<glyph name="X" format="1">
  <advance width="1642"/>
  <unicode hex="0058"/>
  <outline>
    <contour>
      <point x="-62" y="51" type="curve"/>
      <point x="-65" y="36"/>
      <point x="-59" y="0"/>
      <point x="-37" y="0" type="curve" smooth="yes"/>
      <point x="498" y="0" type="line" smooth="yes"/>
      <point x="521" y="0"/>
      <point x="536" y="28"/>
      <point x="536" y="48" type="curve" smooth="yes"/>
      <point x="536" y="70"/>
      <point x="533" y="85"/>
      <point x="508" y="88" type="curve"/>
      <point x="358" y="93"/>
      <point x="314" y="124"/>
      <point x="357" y="162" type="curve" smooth="yes"/>
      <point x="738" y="582" type="line"/>
      <point x="931" y="181" type="line" smooth="yes"/>
      <point x="938" y="165"/>
      <point x="953" y="136"/>
      <point x="953" y="120" type="curve" smooth="yes"/>
      <point x="953" y="100"/>
      <point x="933" y="94"/>
      <point x="825" y="88" type="curve"/>
      <point x="798" y="85"/>
      <point x="789" y="72"/>
      <point x="782" y="51" type="curve"/>
      <point x="779" y="36"/>
      <point x="784" y="0"/>
      <point x="807" y="0" type="curve" smooth="yes"/>
      <point x="1479" y="0" type="line" smooth="yes"/>
      <point x="1501" y="0"/>
      <point x="1522" y="28"/>
      <point x="1522" y="51" type="curve" smooth="yes"/>
      <point x="1522" y="66"/>
      <point x="1518" y="86"/>
      <point x="1496" y="88" type="curve" smooth="yes"/>
      <point x="1448" y="92"/>
      <point x="1362" y="89"/>
      <point x="1323" y="165" type="curve" smooth="yes"/>
      <point x="991" y="774" type="line"/>
      <point x="1468" y="1254" type="line" smooth="yes"/>
      <point x="1545" y="1328"/>
      <point x="1625" y="1326"/>
      <point x="1675" y="1331" type="curve" smooth="yes"/>
      <point x="1703" y="1334"/>
      <point x="1713" y="1338"/>
      <point x="1718" y="1368" type="curve"/>
      <point x="1724" y="1383"/>
      <point x="1720" y="1419"/>
      <point x="1697" y="1419" type="curve" smooth="yes"/>
      <point x="1222" y="1419" type="line" smooth="yes"/>
      <point x="1199" y="1419"/>
      <point x="1186" y="1390"/>
      <point x="1185" y="1368" type="curve" smooth="yes"/>
      <point x="1183" y="1347"/>
      <point x="1185" y="1331"/>
      <point x="1211" y="1331" type="curve" smooth="yes"/>
      <point x="1304" y="1331"/>
      <point x="1359" y="1299"/>
      <point x="1318" y="1257" type="curve" smooth="yes"/>
      <point x="956" y="858" type="line"/>
      <point x="756" y="1276" type="line" smooth="yes"/>
      <point x="751" y="1287"/>
      <point x="748" y="1294"/>
      <point x="748" y="1303" type="curve" smooth="yes"/>
      <point x="748" y="1322"/>
      <point x="773" y="1331"/>
      <point x="871" y="1331" type="curve" smooth="yes"/>
      <point x="897" y="1331"/>
      <point x="913" y="1359"/>
      <point x="913" y="1380" type="curve" smooth="yes"/>
      <point x="913" y="1396"/>
      <point x="913" y="1419"/>
      <point x="890" y="1419" type="curve" smooth="yes"/>
      <point x="221" y="1419" type="line" smooth="yes"/>
      <point x="199" y="1419"/>
      <point x="178" y="1389"/>
      <point x="178" y="1371" type="curve" smooth="yes"/>
      <point x="178" y="1350"/>
      <point x="184" y="1333"/>
      <point x="212" y="1330" type="curve" smooth="yes"/>
      <point x="300" y="1321"/>
      <point x="358" y="1316"/>
      <point x="390" y="1254" type="curve" smooth="yes"/>
      <point x="702" y="660" type="line"/>
      <point x="203" y="165" type="line" smooth="yes"/>
      <point x="127" y="92"/>
      <point x="34" y="93"/>
      <point x="-16" y="88" type="curve" smooth="yes"/>
      <point x="-45" y="85"/>
      <point x="-53" y="81"/>
    </contour>
    <contour>
      <point x="1094" y="1700" type="move" name="top"/>
    </contour>
    <contour>
      <point x="731" y="-170" type="move" name="btm"/>
    </contour>
  </outline>
</glyph>
<glyph name="Y" format="1">
  <advance width="1499"/>
  <unicode hex="0059"/>
  <outline>
    <contour>
      <point x="266" y="51" type="curve" smooth="yes"/>
      <point x="263" y="36"/>
      <point x="268" y="0"/>
      <point x="291" y="0" type="curve" smooth="yes"/>
      <point x="1020" y="0" type="line" smooth="yes"/>
      <point x="1042" y="0"/>
      <point x="1060" y="36"/>
      <point x="1063" y="51" type="curve" smooth="yes"/>
      <point x="1070" y="81"/>
      <point x="1052" y="85"/>
      <point x="1025" y="88" type="curve" smooth="yes"/>
      <point x="959" y="94"/>
      <point x="832" y="79"/>
      <point x="849" y="165" type="curve" smooth="yes"/>
      <point x="909" y="547" type="line"/>
      <point x="1439" y="1254" type="line" smooth="yes"/>
      <point x="1503" y="1336"/>
      <point x="1558" y="1336"/>
      <point x="1609" y="1341" type="curve" smooth="yes"/>
      <point x="1637" y="1344"/>
      <point x="1646" y="1348"/>
      <point x="1653" y="1378" type="curve" smooth="yes"/>
      <point x="1656" y="1393"/>
      <point x="1649" y="1419"/>
      <point x="1627" y="1419" type="curve" smooth="yes"/>
      <point x="1182" y="1419" type="line" smooth="yes"/>
      <point x="1159" y="1419"/>
      <point x="1143" y="1393"/>
      <point x="1140" y="1378" type="curve" smooth="yes"/>
      <point x="1135" y="1357"/>
      <point x="1148" y="1331"/>
      <point x="1174" y="1331" type="curve" smooth="yes"/>
      <point x="1299" y="1331"/>
      <point x="1324" y="1302"/>
      <point x="1293" y="1258" type="curve" smooth="yes"/>
      <point x="846" y="639" type="line"/>
      <point x="588" y="1287" type="line" smooth="yes"/>
      <point x="575" y="1319"/>
      <point x="614" y="1328"/>
      <point x="750" y="1331" type="curve" smooth="yes"/>
      <point x="776" y="1332"/>
      <point x="799" y="1358"/>
      <point x="799" y="1378" type="curve" smooth="yes"/>
      <point x="799" y="1393"/>
      <point x="796" y="1419"/>
      <point x="773" y="1419" type="curve" smooth="yes"/>
      <point x="116" y="1419" type="line" smooth="yes"/>
      <point x="94" y="1419"/>
      <point x="74" y="1398"/>
      <point x="74" y="1378" type="curve" smooth="yes"/>
      <point x="74" y="1360"/>
      <point x="74" y="1343"/>
      <point x="102" y="1341" type="curve" smooth="yes"/>
      <point x="187" y="1335"/>
      <point x="221" y="1307"/>
      <point x="242" y="1254" type="curve" smooth="yes"/>
      <point x="562" y="534" type="line"/>
      <point x="495" y="152" type="line" smooth="yes"/>
      <point x="481" y="81"/>
      <point x="385" y="94"/>
      <point x="317" y="88" type="curve" smooth="yes"/>
      <point x="291" y="86"/>
      <point x="271" y="72"/>
    </contour>
    <contour>
      <point x="1017" y="1700" type="move" name="top"/>
    </contour>
    <contour>
      <point x="648" y="-170" type="move" name="btm"/>
    </contour>
  </outline>
</glyph>
<glyph name="Z" format="1">
  <advance width="1411"/>
  <unicode hex="005A"/>
  <outline>
    <contour>
      <point x="29" y="31" type="line" smooth="yes"/>
      <point x="29" y="12"/>
      <point x="42" y="0"/>
      <point x="68" y="0" type="curve" smooth="yes"/>
      <point x="1181" y="0" type="line"/>
      <point x="1201" y="1"/>
      <point x="1217" y="14"/>
      <point x="1235" y="41" type="curve"/>
      <point x="1360" y="429" type="line"/>
      <point x="1364" y="452"/>
      <point x="1321" y="463"/>
      <point x="1306" y="463" type="curve" smooth="yes"/>
      <point x="1275" y="463"/>
      <point x="1254" y="456"/>
      <point x="1242" y="430" type="curve" smooth="yes"/>
      <point x="1227" y="381"/>
      <point x="1041" y="83"/>
      <point x="907" y="83" type="curve" smooth="yes"/>
      <point x="452" y="83" type="line"/>
      <point x="1396" y="1330" type="line" smooth="yes"/>
      <point x="1403" y="1340"/>
      <point x="1411" y="1348"/>
      <point x="1411" y="1361" type="curve" smooth="yes"/>
      <point x="1411" y="1389" type="line" smooth="yes"/>
      <point x="1411" y="1408"/>
      <point x="1393" y="1419"/>
      <point x="1377" y="1419" type="curve" smooth="yes"/>
      <point x="336" y="1419" type="line"/>
      <point x="316" y="1418"/>
      <point x="298" y="1405"/>
      <point x="281" y="1378" type="curve"/>
      <point x="183" y="1020" type="line"/>
      <point x="179" y="997"/>
      <point x="212" y="986"/>
      <point x="227" y="986" type="curve" smooth="yes"/>
      <point x="258" y="986"/>
      <point x="279" y="993"/>
      <point x="291" y="1019" type="curve" smooth="yes"/>
      <point x="306" y="1068"/>
      <point x="476" y="1331"/>
      <point x="578" y="1331" type="curve" smooth="yes"/>
      <point x="985" y="1331" type="line"/>
      <point x="87" y="138" type="line"/>
      <point x="40" y="84"/>
      <point x="29" y="67"/>
      <point x="29" y="50" type="curve" smooth="yes"/>
    </contour>
    <contour>
      <point x="517" y="-170" type="move" name="btm"/>
    </contour>
    <contour>
      <point x="880" y="1700" type="move" name="top"/>
    </contour>
  </outline>
</glyph>
<glyph name="bracketleft" format="1">
  <advance width="915"/>
  <unicode hex="005B"/>
  <outline>
    <contour>
      <point x="115" y="-327" type="line"/>
      <point x="673" y="-328" type="line"/>
      <point x="687" y="-231" type="line"/>
      <point x="438" y="-231" type="line"/>
      <point x="673" y="1439" type="line"/>
      <point x="922" y="1439" type="line"/>
      <point x="935" y="1536" type="line"/>
      <point x="376" y="1535" type="line"/>
    </contour>
  </outline>
</glyph>
<glyph name="backslash" format="1">
  <advance width="967"/>
  <unicode hex="005C"/>
  <outline>
    <contour>
      <point x="869" y="-340" type="line"/>
      <point x="734" y="-340" type="line"/>
      <point x="61" y="1547" type="line"/>
      <point x="198" y="1547" type="line"/>
    </contour>
  </outline>
</glyph>
<glyph name="bracketright" format="1">
  <advance width="915"/>
  <unicode hex="005D"/>
  <outline>
    <contour>
      <point x="825" y="1535" type="line"/>
      <point x="267" y="1536" type="line"/>
      <point x="253" y="1439" type="line"/>
      <point x="502" y="1439" type="line"/>
      <point x="267" y="-231" type="line"/>
      <point x="18" y="-231" type="line"/>
      <point x="5" y="-328" type="line"/>
      <point x="564" y="-327" type="line"/>
    </contour>
  </outline>
</glyph>
<glyph name="asciicircum" format="1">
  <advance width="1440"/>
  <unicode hex="005E"/>
  <outline>
    <contour>
      <point x="144" y="300" type="line"/>
      <point x="313" y="300" type="line"/>
      <point x="802" y="1260" type="line"/>
      <point x="1069" y="300" type="line"/>
      <point x="1215" y="300" type="line"/>
      <point x="877" y="1428" type="line"/>
      <point x="758" y="1428" type="line"/>
    </contour>
  </outline>
</glyph>
<glyph name="underscore" format="1">
  <advance width="1440"/>
  <unicode hex="005F"/>
  <outline>
    <contour>
      <point x="-167" y="-190" type="line"/>
      <point x="-182" y="-296" type="line"/>
      <point x="1244" y="-296" type="line"/>
      <point x="1259" y="-190" type="line"/>
    </contour>
  </outline>
</glyph>
<glyph name="grave" format="1">
  <advance width="1024"/>
  <unicode hex="0060"/>
  <outline>
    <contour>
      <point x="827" y="1159" type="line"/>
      <point x="673" y="1348"/>
      <point x="584" y="1501"/>
      <point x="553" y="1531" type="curve" smooth="yes"/>
      <point x="516" y="1566"/>
      <point x="426" y="1588"/>
      <point x="375" y="1534" type="curve" smooth="yes"/>
      <point x="325" y="1481"/>
      <point x="339" y="1397"/>
      <point x="376" y="1363" type="curve" smooth="yes"/>
      <point x="407" y="1333"/>
      <point x="567" y="1254"/>
      <point x="771" y="1101" type="curve"/>
    </contour>
    <contour>
      <point x="805" y="1700" type="move" name="_top"/>
    </contour>
  </outline>
</glyph>
<glyph name="a" format="1">
  <advance width="1352"/>
  <unicode hex="0061"/>
  <outline>
    <contour>
      <point x="400" y="492" type="curve" smooth="yes"/>
      <point x="425" y="731"/>
      <point x="551" y="920"/>
      <point x="733" y="920" type="curve" smooth="yes"/>
      <point x="820" y="920"/>
      <point x="870" y="876"/>
      <point x="901" y="802" type="curve"/>
      <point x="826" y="406" type="line"/>
      <point x="780" y="315"/>
      <point x="621" y="153"/>
      <point x="511" y="153" type="curve" smooth="yes"/>
      <point x="451" y="153"/>
      <point x="368" y="189"/>
    </contour>
    <contour>
      <point x="712" y="1011" type="curve" smooth="yes"/>
      <point x="330" y="1011"/>
      <point x="64" y="711"/>
      <point x="64" y="372" type="curve" smooth="yes"/>
      <point x="64" y="131"/>
      <point x="222" y="-27"/>
      <point x="382" y="-27" type="curve" smooth="yes"/>
      <point x="586" y="-27"/>
      <point x="715" y="88"/>
      <point x="800" y="249" type="curve"/>
      <point x="788" y="201"/>
      <point x="776" y="135"/>
      <point x="776" y="88" type="curve" smooth="yes"/>
      <point x="776" y="25"/>
      <point x="798" y="-25"/>
      <point x="910" y="-25" type="curve" smooth="yes"/>
      <point x="1064" y="-25"/>
      <point x="1211" y="26"/>
      <point x="1238" y="34" type="curve" smooth="yes"/>
      <point x="1244" y="36"/>
      <point x="1262" y="43"/>
      <point x="1263" y="74" type="curve" smooth="yes"/>
      <point x="1264" y="96"/>
      <point x="1253" y="120"/>
      <point x="1224" y="112" type="curve" smooth="yes"/>
      <point x="1198" y="105"/>
      <point x="1176" y="102"/>
      <point x="1157" y="102" type="curve" smooth="yes"/>
      <point x="1140" y="102"/>
      <point x="1099" y="109"/>
      <point x="1099" y="147" type="curve" smooth="yes"/>
      <point x="1099" y="159"/>
      <point x="1100" y="172"/>
      <point x="1102" y="189" type="curve" smooth="yes"/>
      <point x="1231" y="970" type="line" smooth="yes"/>
      <point x="1233" y="979"/>
      <point x="1234" y="986"/>
      <point x="1234" y="990" type="curve" smooth="yes"/>
      <point x="1234" y="1006"/>
      <point x="1218" y="1011"/>
      <point x="1199" y="1011" type="curve" smooth="yes"/>
      <point x="1178" y="1011"/>
      <point x="1150" y="999"/>
      <point x="1120" y="983" type="curve" smooth="yes"/>
      <point x="1027" y="934" type="line"/>
      <point x="963" y="980"/>
      <point x="873" y="1011"/>
    </contour>
    <contour>
      <point x="591" y="-170" type="move" name="btm"/>
    </contour>
    <contour>
      <point x="898" y="1700" type="move" name="top"/>
    </contour>
  </outline>
</glyph>
<glyph name="b" format="1">
  <advance width="1329"/>
  <unicode hex="0062"/>
  <outline>
    <contour>
      <point x="92" y="126" type="line"/>
      <point x="142" y="70"/>
      <point x="378" y="-30"/>
      <point x="604" y="-30" type="curve" smooth="yes"/>
      <point x="1005" y="-30"/>
      <point x="1213" y="223"/>
      <point x="1258" y="492" type="curve" smooth="yes"/>
      <point x="1299" y="770"/>
      <point x="1189" y="1013"/>
      <point x="868" y="1013" type="curve" smooth="yes"/>
      <point x="747" y="1013"/>
      <point x="605" y="953"/>
      <point x="504" y="825" type="curve"/>
      <point x="551" y="1104" type="line"/>
      <point x="607" y="1508" type="line" smooth="yes"/>
      <point x="612" y="1540"/>
      <point x="594" y="1548"/>
      <point x="583" y="1548" type="curve" smooth="yes"/>
      <point x="503" y="1547"/>
      <point x="336" y="1546"/>
      <point x="148" y="1538" type="curve" smooth="yes"/>
      <point x="132" y="1537"/>
      <point x="120" y="1510"/>
      <point x="117" y="1494" type="curve" smooth="yes"/>
      <point x="114" y="1469"/>
      <point x="123" y="1460"/>
      <point x="136" y="1454" type="curve"/>
      <point x="188" y="1440"/>
      <point x="295" y="1453"/>
      <point x="277" y="1329" type="curve" smooth="yes"/>
    </contour>
    <contour>
      <point x="494" y="702" type="line"/>
      <point x="544" y="770"/>
      <point x="634" y="865"/>
      <point x="745" y="865" type="curve" smooth="yes"/>
      <point x="911" y="865"/>
      <point x="938" y="714"/>
      <point x="912" y="492" type="curve" smooth="yes"/>
      <point x="880" y="252"/>
      <point x="774" y="65"/>
      <point x="581" y="65" type="curve" smooth="yes"/>
      <point x="497" y="65"/>
      <point x="426" y="110"/>
      <point x="413" y="165" type="curve"/>
    </contour>
    <contour>
      <point x="1016" y="1700" type="move" name="top"/>
    </contour>
    <contour>
      <point x="588" y="-170" type="move" name="btm"/>
    </contour>
  </outline>
</glyph>
<glyph name="c" format="1">
  <advance width="1098"/>
  <unicode hex="0063"/>
  <outline>
    <contour>
      <point x="709" y="1014" type="curve" smooth="yes"/>
      <point x="352" y="1014"/>
      <point x="73" y="752"/>
      <point x="73" y="411" type="curve" smooth="yes"/>
      <point x="73" y="145"/>
      <point x="243" y="-28"/>
      <point x="541" y="-28" type="curve" smooth="yes"/>
      <point x="739" y="-28"/>
      <point x="887" y="58"/>
      <point x="992" y="184" type="curve"/>
      <point x="996" y="192"/>
      <point x="1011" y="201"/>
      <point x="998" y="212" type="curve" smooth="yes"/>
      <point x="961" y="245" type="line"/>
      <point x="952" y="251"/>
      <point x="946" y="243"/>
      <point x="939" y="235" type="curve"/>
      <point x="847" y="156"/>
      <point x="766" y="115"/>
      <point x="652" y="115" type="curve" smooth="yes"/>
      <point x="534" y="115"/>
      <point x="420" y="189"/>
      <point x="420" y="390" type="curve" smooth="yes"/>
      <point x="420" y="732"/>
      <point x="525" y="933"/>
      <point x="673" y="933" type="curve" smooth="yes"/>
      <point x="724" y="933"/>
      <point x="739" y="926"/>
      <point x="748" y="919" type="curve"/>
      <point x="803" y="705" type="line" smooth="yes"/>
      <point x="815" y="660"/>
      <point x="824" y="662"/>
      <point x="863" y="662" type="curve" smooth="yes"/>
      <point x="979" y="662"/>
      <point x="1077" y="704"/>
      <point x="1077" y="787" type="curve" smooth="yes"/>
      <point x="1077" y="934"/>
      <point x="961" y="1014"/>
    </contour>
    <contour>
      <point x="480" y="-170" type="move" name="btm"/>
    </contour>
    <contour>
      <point x="844" y="1700" type="move" name="top"/>
    </contour>
  </outline>
</glyph>
<glyph name="d" format="1">
  <advance width="1358"/>
  <unicode hex="0064"/>
  <outline>
    <contour>
      <point x="1245" y="34" type="curve"/>
      <point x="1267" y="41"/>
      <point x="1272" y="70"/>
      <point x="1269" y="85" type="curve" smooth="yes"/>
      <point x="1264" y="114"/>
      <point x="1253" y="116"/>
      <point x="1231" y="112" type="curve" smooth="yes"/>
      <point x="1182" y="103"/>
      <point x="1094" y="79"/>
      <point x="1107" y="175" type="curve" smooth="yes"/>
      <point x="1306" y="1508" type="line" smooth="yes"/>
      <point x="1311" y="1540"/>
      <point x="1292" y="1548"/>
      <point x="1282" y="1548" type="curve" smooth="yes"/>
      <point x="1206" y="1547"/>
      <point x="996" y="1546"/>
      <point x="816" y="1538" type="curve" smooth="yes"/>
      <point x="800" y="1537"/>
      <point x="788" y="1510"/>
      <point x="785" y="1494" type="curve"/>
      <point x="782" y="1469"/>
      <point x="791" y="1460"/>
      <point x="804" y="1454" type="curve"/>
      <point x="856" y="1440"/>
      <point x="993" y="1453"/>
      <point x="975" y="1329" type="curve"/>
      <point x="942" y="1104" type="line"/>
      <point x="924" y="965" type="line"/>
      <point x="875" y="991"/>
      <point x="820" y="1015"/>
      <point x="704" y="1015" type="curve" smooth="yes"/>
      <point x="315" y="1015"/>
      <point x="46" y="711"/>
      <point x="46" y="383" type="curve" smooth="yes"/>
      <point x="46" y="164"/>
      <point x="158" y="-28"/>
      <point x="434" y="-28" type="curve" smooth="yes"/>
      <point x="549" y="-28"/>
      <point x="713" y="44"/>
      <point x="794" y="146" type="curve"/>
      <point x="786" y="82"/>
      <point x="790" y="-108"/>
    </contour>
    <contour>
      <point x="725" y="920" type="curve" smooth="yes"/>
      <point x="836" y="920"/>
      <point x="879" y="846"/>
      <point x="893" y="802" type="curve"/>
      <point x="811" y="286" type="line"/>
      <point x="764" y="210"/>
      <point x="662" y="120"/>
      <point x="557" y="120" type="curve" smooth="yes"/>
      <point x="486" y="120"/>
      <point x="353" y="143"/>
      <point x="400" y="492" type="curve" smooth="yes"/>
      <point x="427" y="757"/>
      <point x="564" y="920"/>
    </contour>
    <contour>
      <point x="586" y="1700" type="move" name="top"/>
    </contour>
    <contour>
      <point x="589" y="-170" type="move" name="btm"/>
    </contour>
  </outline>
</glyph>
<glyph name="e" format="1">
  <advance width="1141"/>
  <unicode hex="0065"/>
  <outline>
    <contour>
      <point x="1096" y="781" type="curve" smooth="yes"/>
      <point x="1096" y="875"/>
      <point x="1013" y="1014"/>
      <point x="737" y="1014" type="curve" smooth="yes"/>
      <point x="385" y="1014"/>
      <point x="86" y="740"/>
      <point x="86" y="381" type="curve" smooth="yes"/>
      <point x="86" y="133"/>
      <point x="271" y="-29"/>
      <point x="569" y="-29" type="curve" smooth="yes"/>
      <point x="806" y="-29"/>
      <point x="923" y="50"/>
      <point x="1060" y="164" type="curve" smooth="yes"/>
      <point x="1063" y="167"/>
      <point x="1067" y="171"/>
      <point x="1065" y="179" type="curve" smooth="yes"/>
      <point x="1062" y="193"/>
      <point x="1040" y="214"/>
      <point x="1028" y="220" type="curve" smooth="yes"/>
      <point x="1022" y="223"/>
      <point x="1014" y="219"/>
      <point x="1007" y="215" type="curve" smooth="yes"/>
      <point x="896" y="145"/>
      <point x="798" y="105"/>
      <point x="660" y="105" type="curve" smooth="yes"/>
      <point x="542" y="105"/>
      <point x="423" y="173"/>
      <point x="423" y="360" type="curve" smooth="yes"/>
      <point x="423" y="376"/>
      <point x="423" y="392"/>
      <point x="424" y="407" type="curve"/>
      <point x="867" y="465"/>
      <point x="1096" y="558"/>
    </contour>
    <contour>
      <point x="691" y="933" type="curve" smooth="yes"/>
      <point x="776" y="933"/>
      <point x="795" y="871"/>
      <point x="795" y="808" type="curve" smooth="yes"/>
      <point x="795" y="630"/>
      <point x="662" y="534"/>
      <point x="429" y="484" type="curve"/>
      <point x="455" y="768"/>
      <point x="569" y="933"/>
    </contour>
    <contour>
      <point x="483" y="-170" type="move" name="btm"/>
    </contour>
    <contour>
      <point x="818" y="1700" type="move" name="top"/>
    </contour>
  </outline>
</glyph>
<glyph name="f" format="1">
  <advance width="780"/>
  <unicode hex="0066"/>
  <outline>
    <contour>
      <point x="138" y="20" type="line" smooth="yes"/>
      <point x="92" y="-272"/>
      <point x="11" y="-340"/>
      <point x="-67" y="-344" type="curve"/>
      <point x="-143" y="-143" type="line"/>
      <point x="-146" y="-141"/>
      <point x="-180" y="-140"/>
      <point x="-185" y="-140" type="curve" smooth="yes"/>
      <point x="-281" y="-139"/>
      <point x="-330" y="-203"/>
      <point x="-331" y="-282" type="curve" smooth="yes"/>
      <point x="-332" y="-350"/>
      <point x="-290" y="-442"/>
      <point x="-106" y="-442" type="curve" smooth="yes"/>
      <point x="208" y="-442"/>
      <point x="402" y="-198"/>
      <point x="450" y="56" type="curve" smooth="yes"/>
      <point x="562" y="892" type="line"/>
      <point x="786" y="892" type="line"/>
      <point x="801" y="898"/>
      <point x="815" y="935"/>
      <point x="818" y="960" type="curve" smooth="yes"/>
      <point x="822" y="976"/>
      <point x="815" y="993"/>
      <point x="799" y="994" type="curve"/>
      <point x="575" y="994" type="line"/>
      <point x="590" y="1107" type="line" smooth="yes"/>
      <point x="628" y="1421"/>
      <point x="672" y="1475"/>
      <point x="735" y="1475" type="curve"/>
      <point x="825" y="1312" type="line" smooth="yes"/>
      <point x="827" y="1310"/>
      <point x="830" y="1309"/>
      <point x="835" y="1309" type="curve" smooth="yes"/>
      <point x="897" y="1308"/>
      <point x="1009" y="1352"/>
      <point x="1009" y="1431" type="curve" smooth="yes"/>
      <point x="1011" y="1499"/>
      <point x="948" y="1573"/>
      <point x="764" y="1573" type="curve" smooth="yes"/>
      <point x="444" y="1573"/>
      <point x="318" y="1330"/>
      <point x="279" y="1075" type="curve" smooth="yes"/>
      <point x="267" y="994" type="line"/>
      <point x="266" y="994" type="line"/>
      <point x="132" y="984" type="line"/>
      <point x="118" y="978"/>
      <point x="106" y="966"/>
      <point x="102" y="941" type="curve" smooth="yes"/>
      <point x="102" y="925"/>
      <point x="104" y="893"/>
      <point x="120" y="892" type="curve"/>
      <point x="254" y="892" type="line"/>
    </contour>
    <contour>
      <point x="143" y="-170" type="move" name="btm"/>
    </contour>
    <contour>
      <point x="471" y="2007" type="move" name="top"/>
    </contour>
  </outline>
</glyph>
<glyph name="g" format="1">
  <advance width="1329"/>
  <unicode hex="0067"/>
  <outline>
    <contour>
      <point x="337" y="443" type="line"/>
      <point x="247" y="416"/>
      <point x="95" y="313"/>
      <point x="95" y="186" type="curve" smooth="yes"/>
      <point x="95" y="68"/>
      <point x="181" y="-3"/>
      <point x="335" y="-21" type="curve"/>
      <point x="655" y="-55" type="line" smooth="yes"/>
      <point x="776" y="-68"/>
      <point x="855" y="-106"/>
      <point x="855" y="-166" type="curve" smooth="yes"/>
      <point x="855" y="-302"/>
      <point x="710" y="-352"/>
      <point x="562" y="-352" type="curve" smooth="yes"/>
      <point x="320" y="-352"/>
      <point x="261" y="-271"/>
      <point x="261" y="-146" type="curve" smooth="yes"/>
      <point x="261" y="-38"/>
      <point x="292" y="8"/>
      <point x="330" y="53" type="curve"/>
      <point x="248" y="53" type="line"/>
      <point x="141" y="29"/>
      <point x="-23" y="-26"/>
      <point x="-23" y="-163" type="curve" smooth="yes"/>
      <point x="-23" y="-359"/>
      <point x="193" y="-448"/>
      <point x="536" y="-448" type="curve" smooth="yes"/>
      <point x="867" y="-448"/>
      <point x="1141" y="-311"/>
      <point x="1141" y="-87" type="curve" smooth="yes"/>
      <point x="1141" y="77"/>
      <point x="1041" y="172"/>
      <point x="746" y="208" type="curve" smooth="yes"/>
      <point x="422" y="244" type="line" smooth="yes"/>
      <point x="344" y="253"/>
      <point x="317" y="284"/>
      <point x="317" y="320" type="curve" smooth="yes"/>
      <point x="317" y="366"/>
      <point x="402" y="422"/>
      <point x="462" y="422" type="curve"/>
    </contour>
    <contour>
      <point x="144" y="648" type="curve" smooth="yes"/>
      <point x="144" y="492"/>
      <point x="270" y="369"/>
      <point x="575" y="369" type="curve" smooth="yes"/>
      <point x="852" y="369"/>
      <point x="1071" y="484"/>
      <point x="1071" y="745" type="curve" smooth="yes"/>
      <point x="1071" y="898"/>
      <point x="955" y="1014"/>
      <point x="646" y="1014" type="curve" smooth="yes"/>
      <point x="393" y="1014"/>
      <point x="144" y="908"/>
    </contour>
    <contour>
      <point x="624" y="928" type="curve" smooth="yes"/>
      <point x="737" y="928"/>
      <point x="782" y="876"/>
      <point x="782" y="758" type="curve" smooth="yes"/>
      <point x="782" y="593"/>
      <point x="730" y="458"/>
      <point x="599" y="458" type="curve" smooth="yes"/>
      <point x="495" y="458"/>
      <point x="459" y="528"/>
      <point x="459" y="651" type="curve" smooth="yes"/>
      <point x="459" y="811"/>
      <point x="498" y="928"/>
    </contour>
    <contour>
      <point x="1171" y="798" type="line" smooth="yes"/>
      <point x="1180" y="764"/>
      <point x="1220" y="744"/>
      <point x="1264" y="744" type="curve" smooth="yes"/>
      <point x="1324" y="744"/>
      <point x="1381" y="783"/>
      <point x="1381" y="865" type="curve" smooth="yes"/>
      <point x="1381" y="965"/>
      <point x="1309" y="1019"/>
      <point x="1229" y="1019" type="curve" smooth="yes"/>
      <point x="1122" y="1019"/>
      <point x="998" y="945"/>
      <point x="965" y="893" type="curve"/>
      <point x="1020" y="826" type="line"/>
      <point x="1041" y="855"/>
      <point x="1139" y="881"/>
      <point x="1151" y="874" type="curve"/>
    </contour>
    <contour>
      <point x="831" y="1700" type="move" name="top"/>
    </contour>
    <contour>
      <point x="615" y="-170" type="move" name="btm"/>
    </contour>
  </outline>
</glyph>
<glyph name="h" format="1">
  <advance width="1382"/>
  <unicode hex="0068"/>
  <outline>
    <contour>
      <point x="81" y="0" type="line"/>
      <point x="390" y="0" type="line"/>
      <point x="494" y="669" type="line"/>
      <point x="541" y="716"/>
      <point x="651" y="838"/>
      <point x="800" y="838" type="curve" smooth="yes"/>
      <point x="919" y="838"/>
      <point x="912" y="763"/>
      <point x="912" y="689" type="curve"/>
      <point x="829" y="94"/>
      <point x="821" y="126"/>
      <point x="821" y="105" type="curve" smooth="yes"/>
      <point x="821" y="59"/>
      <point x="846" y="-13"/>
      <point x="1006" y="-13" type="curve" smooth="yes"/>
      <point x="1072" y="-13"/>
      <point x="1162" y="0"/>
      <point x="1283" y="34" type="curve"/>
      <point x="1305" y="41"/>
      <point x="1310" y="70"/>
      <point x="1307" y="85" type="curve" smooth="yes"/>
      <point x="1302" y="114"/>
      <point x="1291" y="116"/>
      <point x="1269" y="112" type="curve" smooth="yes"/>
      <point x="1250" y="108"/>
      <point x="1226" y="103"/>
      <point x="1202" y="103" type="curve" smooth="yes"/>
      <point x="1167" y="103"/>
      <point x="1141" y="117"/>
      <point x="1145" y="175" type="curve" smooth="yes"/>
      <point x="1148" y="222"/>
      <point x="1238" y="705"/>
      <point x="1238" y="763" type="curve" smooth="yes"/>
      <point x="1238" y="970"/>
      <point x="1138" y="1014"/>
      <point x="998" y="1014" type="curve" smooth="yes"/>
      <point x="732" y="1014"/>
      <point x="552" y="832"/>
      <point x="501" y="785" type="curve"/>
      <point x="557" y="1104" type="line"/>
      <point x="623" y="1508" type="line"/>
      <point x="625" y="1540"/>
      <point x="610" y="1548"/>
      <point x="599" y="1548" type="curve" smooth="yes"/>
      <point x="518" y="1547"/>
      <point x="359" y="1546"/>
      <point x="169" y="1538" type="curve" smooth="yes"/>
      <point x="153" y="1537"/>
      <point x="141" y="1510"/>
      <point x="138" y="1494" type="curve"/>
      <point x="135" y="1469"/>
      <point x="144" y="1460"/>
      <point x="157" y="1454" type="curve"/>
      <point x="209" y="1440"/>
      <point x="308" y="1453"/>
      <point x="290" y="1329" type="curve"/>
    </contour>
    <contour>
      <point x="980" y="1700" type="move" name="top"/>
    </contour>
    <contour>
      <point x="570" y="-170" type="move" name="btm"/>
    </contour>
  </outline>
</glyph>
<glyph name="k" format="1">
  <advance width="1313"/>
  <unicode hex="006B"/>
  <outline>
    <contour>
      <point x="527" y="743" type="line"/>
      <point x="643" y="1508" type="line" smooth="yes"/>
      <point x="648" y="1540"/>
      <point x="630" y="1548"/>
      <point x="619" y="1548" type="curve" smooth="yes"/>
      <point x="538" y="1547"/>
      <point x="392" y="1546"/>
      <point x="202" y="1538" type="curve" smooth="yes"/>
      <point x="186" y="1537"/>
      <point x="174" y="1510"/>
      <point x="171" y="1494" type="curve"/>
      <point x="168" y="1469"/>
      <point x="177" y="1460"/>
      <point x="190" y="1454" type="curve"/>
      <point x="242" y="1440"/>
      <point x="333" y="1453"/>
      <point x="315" y="1329" type="curve"/>
      <point x="108" y="0" type="line"/>
      <point x="420" y="0" type="line"/>
      <point x="481" y="366" type="line"/>
      <point x="607" y="467" type="line"/>
      <point x="683" y="366"/>
      <point x="718" y="199"/>
      <point x="776" y="67" type="curve" smooth="yes"/>
      <point x="800" y="12"/>
      <point x="841" y="-13"/>
      <point x="898" y="-13" type="curve" smooth="yes"/>
      <point x="1043" y="-13"/>
      <point x="1131" y="0"/>
      <point x="1258" y="34" type="curve"/>
      <point x="1280" y="41"/>
      <point x="1285" y="70"/>
      <point x="1282" y="85" type="curve" smooth="yes"/>
      <point x="1277" y="114"/>
      <point x="1266" y="116"/>
      <point x="1244" y="112" type="curve" smooth="yes"/>
      <point x="1232" y="109"/>
      <point x="1216" y="104"/>
      <point x="1200" y="103" type="curve" smooth="yes"/>
      <point x="1163" y="102"/>
      <point x="1130" y="143"/>
      <point x="1107" y="175" type="curve" smooth="yes"/>
      <point x="1001" y="322"/>
      <point x="927" y="549"/>
      <point x="839" y="649" type="curve"/>
      <point x="1004" y="808" type="line" smooth="yes"/>
      <point x="1066" y="868"/>
      <point x="1204" y="908"/>
      <point x="1293" y="906" type="curve" smooth="yes"/>
      <point x="1315" y="906"/>
      <point x="1329" y="925"/>
      <point x="1332" y="949" type="curve" smooth="yes"/>
      <point x="1334" y="964"/>
      <point x="1327" y="994"/>
      <point x="1304" y="994" type="curve" smooth="yes"/>
      <point x="771" y="994" type="line" smooth="yes"/>
      <point x="748" y="994"/>
      <point x="733" y="964"/>
      <point x="731" y="949" type="curve" smooth="yes"/>
      <point x="728" y="928"/>
      <point x="730" y="908"/>
      <point x="756" y="906" type="curve" smooth="yes"/>
      <point x="818" y="900"/>
      <point x="927" y="882"/>
      <point x="869" y="832" type="curve" smooth="yes"/>
      <point x="491" y="490" type="line"/>
    </contour>
    <contour>
      <point x="580" y="-170" type="move" name="btm"/>
    </contour>
    <contour>
      <point x="1051" y="1700" type="move" name="top"/>
    </contour>
  </outline>
</glyph>
<glyph name="l" format="1">
  <advance width="725"/>
  <unicode hex="006C"/>
  <outline>
    <contour>
      <point x="138" y="180" type="curve" smooth="yes"/>
      <point x="133" y="144"/>
      <point x="130" y="123"/>
      <point x="130" y="102" type="curve" smooth="yes"/>
      <point x="130" y="57"/>
      <point x="136" y="-13"/>
      <point x="252" y="-13" type="curve" smooth="yes"/>
      <point x="330" y="-13"/>
      <point x="447" y="1"/>
      <point x="593" y="34" type="curve" smooth="yes"/>
      <point x="611" y="40"/>
      <point x="618" y="60"/>
      <point x="618" y="76" type="curve" smooth="yes"/>
      <point x="618" y="105"/>
      <point x="604" y="107"/>
      <point x="592" y="107" type="curve" smooth="yes"/>
      <point x="572" y="107"/>
      <point x="540" y="98"/>
      <point x="512" y="98" type="curve" smooth="yes"/>
      <point x="456" y="98"/>
      <point x="449" y="130"/>
      <point x="455" y="170" type="curve" smooth="yes"/>
      <point x="662" y="1508" type="line" smooth="yes"/>
      <point x="662" y="1512"/>
      <point x="663" y="1515"/>
      <point x="663" y="1518" type="curve" smooth="yes"/>
      <point x="663" y="1542"/>
      <point x="648" y="1548"/>
      <point x="638" y="1548" type="curve" smooth="yes"/>
      <point x="558" y="1547"/>
      <point x="375" y="1546"/>
      <point x="187" y="1538" type="curve" smooth="yes"/>
      <point x="166" y="1537"/>
      <point x="153" y="1497"/>
      <point x="153" y="1485" type="curve" smooth="yes"/>
      <point x="153" y="1414"/>
      <point x="321" y="1461"/>
      <point x="321" y="1364" type="curve" smooth="yes"/>
      <point x="321" y="1357"/>
      <point x="313" y="1318"/>
      <point x="307" y="1276" type="curve" smooth="yes"/>
      <point x="248" y="883"/>
      <point x="194" y="576"/>
    </contour>
    <contour>
      <point x="244" y="-170" type="move" name="btm"/>
    </contour>
    <contour>
      <point x="549" y="1700" type="move" name="top"/>
    </contour>
  </outline>
</glyph>
<glyph name="m" format="1">
  <advance width="2052"/>
  <unicode hex="006D"/>
  <outline>
    <contour>
      <point x="1946" y="726" type="line"/>
      <point x="1981" y="964"/>
      <point x="1834" y="1014"/>
      <point x="1671" y="1014" type="curve" smooth="yes"/>
      <point x="1500" y="1014"/>
      <point x="1350" y="895"/>
      <point x="1265" y="824" type="curve"/>
      <point x="1247" y="976"/>
      <point x="1139" y="1014"/>
      <point x="990" y="1014" type="curve" smooth="yes"/>
      <point x="776" y="1014"/>
      <point x="610" y="852"/>
      <point x="560" y="785" type="curve"/>
      <point x="586" y="957" type="line"/>
      <point x="590" y="989"/>
      <point x="573" y="997"/>
      <point x="562" y="997" type="curve" smooth="yes"/>
      <point x="482" y="996"/>
      <point x="326" y="995"/>
      <point x="140" y="987" type="curve" smooth="yes"/>
      <point x="124" y="986"/>
      <point x="112" y="959"/>
      <point x="110" y="943" type="curve" smooth="yes"/>
      <point x="107" y="918"/>
      <point x="115" y="909"/>
      <point x="128" y="903" type="curve"/>
      <point x="176" y="889"/>
      <point x="280" y="901"/>
      <point x="260" y="778" type="curve" smooth="yes"/>
      <point x="137" y="0" type="line"/>
      <point x="449" y="0" type="line"/>
      <point x="558" y="688" type="line"/>
      <point x="620" y="751"/>
      <point x="712" y="843"/>
      <point x="836" y="843" type="curve" smooth="yes"/>
      <point x="955" y="843"/>
      <point x="958" y="751"/>
      <point x="950" y="697" type="curve" smooth="yes"/>
      <point x="843" y="0" type="line"/>
      <point x="1157" y="0" type="line"/>
      <point x="1265" y="722" type="line"/>
      <point x="1328" y="777"/>
      <point x="1411" y="843"/>
      <point x="1516" y="843" type="curve" smooth="yes"/>
      <point x="1635" y="843"/>
      <point x="1636" y="748"/>
      <point x="1628" y="694" type="curve" smooth="yes"/>
      <point x="1544" y="142" type="line"/>
      <point x="1544" y="142"/>
      <point x="1498" y="-19"/>
      <point x="1683" y="-13" type="curve"/>
      <point x="1851" y="-13"/>
      <point x="1974" y="40"/>
      <point x="1999" y="54" type="curve" smooth="yes"/>
      <point x="2015" y="68"/>
      <point x="2005" y="122"/>
      <point x="1973" y="113" type="curve" smooth="yes"/>
      <point x="1948" y="106"/>
      <point x="1909" y="100"/>
      <point x="1890" y="100" type="curve" smooth="yes"/>
      <point x="1868" y="100"/>
      <point x="1855" y="125"/>
      <point x="1865" y="195" type="curve" smooth="yes"/>
    </contour>
    <contour>
      <point x="1269" y="1700" type="move" name="top"/>
    </contour>
    <contour>
      <point x="835" y="-170" type="move" name="btm"/>
    </contour>
  </outline>
</glyph>
<glyph name="n" format="1">
  <advance width="1413"/>
  <unicode hex="006E"/>
  <outline>
    <contour>
      <point x="1269" y="719" type="line"/>
      <point x="1299" y="947"/>
      <point x="1186" y="1014"/>
      <point x="1059" y="1014" type="curve" smooth="yes"/>
      <point x="784" y="1014"/>
      <point x="626" y="842"/>
      <point x="563" y="785" type="curve"/>
      <point x="589" y="957" type="line" smooth="yes"/>
      <point x="593" y="989"/>
      <point x="576" y="997"/>
      <point x="565" y="997" type="curve" smooth="yes"/>
      <point x="485" y="996"/>
      <point x="327" y="995"/>
      <point x="141" y="987" type="curve" smooth="yes"/>
      <point x="125" y="986"/>
      <point x="113" y="959"/>
      <point x="111" y="943" type="curve" smooth="yes"/>
      <point x="109" y="918"/>
      <point x="115" y="909"/>
      <point x="129" y="903" type="curve"/>
      <point x="177" y="889"/>
      <point x="279" y="901"/>
      <point x="260" y="778" type="curve" smooth="yes"/>
      <point x="139" y="0" type="line"/>
      <point x="451" y="0" type="line"/>
      <point x="561" y="689" type="line"/>
      <point x="627" y="759"/>
      <point x="739" y="844"/>
      <point x="878" y="844" type="curve" smooth="yes"/>
      <point x="948" y="844"/>
      <point x="965" y="784"/>
      <point x="954" y="701" type="curve" smooth="yes"/>
      <point x="871" y="142" type="line"/>
      <point x="871" y="142"/>
      <point x="825" y="-19"/>
      <point x="1010" y="-13" type="curve" smooth="yes"/>
      <point x="1173" y="-13"/>
      <point x="1302" y="40"/>
      <point x="1326" y="54" type="curve" smooth="yes"/>
      <point x="1342" y="68"/>
      <point x="1332" y="122"/>
      <point x="1300" y="113" type="curve" smooth="yes"/>
      <point x="1275" y="106"/>
      <point x="1236" y="100"/>
      <point x="1217" y="100" type="curve" smooth="yes"/>
      <point x="1195" y="100"/>
      <point x="1184" y="125"/>
      <point x="1192" y="195" type="curve" smooth="yes"/>
    </contour>
    <contour>
      <point x="903" y="1700" type="move" name="top"/>
    </contour>
    <contour>
      <point x="615" y="-170" type="move" name="btm"/>
    </contour>
  </outline>
</glyph>
<glyph name="o" format="1">
  <advance width="1303"/>
  <unicode hex="006F"/>
  <outline>
    <contour>
      <point x="85" y="431" type="curve" smooth="yes"/>
      <point x="92" y="161"/>
      <point x="238" y="-28"/>
      <point x="606" y="-28" type="curve" smooth="yes"/>
      <point x="1007" y="-28"/>
      <point x="1227" y="240"/>
      <point x="1218" y="555" type="curve" smooth="yes"/>
      <point x="1211" y="825"/>
      <point x="1064" y="1014"/>
      <point x="689" y="1014" type="curve" smooth="yes"/>
      <point x="287" y="1014"/>
      <point x="78" y="715"/>
    </contour>
    <contour>
      <point x="600" y="59" type="curve" smooth="yes"/>
      <point x="466" y="59"/>
      <point x="424" y="173"/>
      <point x="421" y="338" type="curve" smooth="yes"/>
      <point x="416" y="615"/>
      <point x="491" y="926"/>
      <point x="691" y="926" type="curve" smooth="yes"/>
      <point x="827" y="926"/>
      <point x="875" y="813"/>
      <point x="878" y="646" type="curve" smooth="yes"/>
      <point x="884" y="368"/>
      <point x="807" y="59"/>
    </contour>
    <contour>
      <point x="834" y="1700" type="move" name="top"/>
    </contour>
    <contour>
      <point x="529" y="-170" type="move" name="btm"/>
    </contour>
  </outline>
</glyph>
<glyph name="p" format="1">
  <advance width="1358"/>
  <unicode hex="0070"/>
  <outline>
    <contour>
      <point x="438" y="11" type="line"/>
      <point x="413" y="-1" type="line"/>
      <point x="485" y="-19"/>
      <point x="565" y="-30"/>
      <point x="642" y="-30" type="curve" smooth="yes"/>
      <point x="1073" y="-30"/>
      <point x="1290" y="301"/>
      <point x="1290" y="610" type="curve" smooth="yes"/>
      <point x="1290" y="835"/>
      <point x="1184" y="1013"/>
      <point x="916" y="1013" type="curve" smooth="yes"/>
      <point x="795" y="1013"/>
      <point x="653" y="952"/>
      <point x="552" y="815" type="curve"/>
      <point x="574" y="957" type="line"/>
      <point x="574" y="961"/>
      <point x="575" y="964"/>
      <point x="575" y="967" type="curve" smooth="yes"/>
      <point x="575" y="991"/>
      <point x="560" y="997"/>
      <point x="550" y="997" type="curve" smooth="yes"/>
      <point x="470" y="996"/>
      <point x="314" y="995"/>
      <point x="128" y="987" type="curve" smooth="yes"/>
      <point x="106" y="986"/>
      <point x="97" y="944"/>
      <point x="97" y="933" type="curve" smooth="yes"/>
      <point x="97" y="864"/>
      <point x="250" y="930"/>
      <point x="250" y="804" type="curve" smooth="yes"/>
      <point x="250" y="796"/>
      <point x="249" y="787"/>
      <point x="248" y="778" type="curve" smooth="yes"/>
      <point x="96" y="-269" type="line" smooth="yes"/>
      <point x="84" y="-355"/>
      <point x="10" y="-361"/>
      <point x="-40" y="-366" type="curve" smooth="yes"/>
      <point x="-66" y="-369"/>
      <point x="-80" y="-374"/>
      <point x="-80" y="-408" type="curve" smooth="yes"/>
      <point x="-80" y="-423"/>
      <point x="-72" y="-444"/>
      <point x="-53" y="-444" type="curve" smooth="yes"/>
      <point x="557" y="-444" type="line" smooth="yes"/>
      <point x="589" y="-444"/>
      <point x="598" y="-403"/>
      <point x="598" y="-393" type="curve" smooth="yes"/>
      <point x="598" y="-378"/>
      <point x="591" y="-368"/>
      <point x="569" y="-366" type="curve" smooth="yes"/>
      <point x="493" y="-360"/>
      <point x="402" y="-347"/>
      <point x="402" y="-306" type="curve" smooth="yes"/>
      <point x="402" y="-305"/>
      <point x="402" y="-303"/>
      <point x="402" y="-302" type="curve"/>
      <point x="429" y="-108" type="line"/>
    </contour>
    <contour>
      <point x="550" y="719" type="line"/>
      <point x="600" y="787"/>
      <point x="701" y="865"/>
      <point x="793" y="865" type="curve" smooth="yes"/>
      <point x="906" y="865"/>
      <point x="943" y="773"/>
      <point x="943" y="627" type="curve" smooth="yes"/>
      <point x="943" y="327"/>
      <point x="836" y="65"/>
      <point x="619" y="65" type="curve" smooth="yes"/>
      <point x="540" y="65"/>
      <point x="461" y="113"/>
      <point x="458" y="144" type="curve"/>
    </contour>
    <contour>
      <point x="940" y="1700" type="move" name="top"/>
    </contour>
    <contour>
      <point x="419" y="-170" type="move" name="btm"/>
    </contour>
  </outline>
</glyph>
<glyph name="q" format="1">
  <advance width="1331"/>
  <unicode hex="0071"/>
  <outline>
    <contour>
      <point x="769" y="-29" type="line"/>
      <point x="728" y="-302" type="line"/>
      <point x="722" y="-346"/>
      <point x="643" y="-359"/>
      <point x="576" y="-366" type="curve" smooth="yes"/>
      <point x="550" y="-368"/>
      <point x="541" y="-382"/>
      <point x="538" y="-403" type="curve" smooth="yes"/>
      <point x="536" y="-418"/>
      <point x="543" y="-444"/>
      <point x="566" y="-444" type="curve" smooth="yes"/>
      <point x="1162" y="-444" type="line" smooth="yes"/>
      <point x="1185" y="-444"/>
      <point x="1199" y="-418"/>
      <point x="1202" y="-403" type="curve" smooth="yes"/>
      <point x="1206" y="-373"/>
      <point x="1199" y="-369"/>
      <point x="1171" y="-366" type="curve" smooth="yes"/>
      <point x="1108" y="-361"/>
      <point x="1030" y="-355"/>
      <point x="1043" y="-275" type="curve"/>
      <point x="1225" y="981" type="line" smooth="yes"/>
      <point x="1229" y="1006"/>
      <point x="1214" y="1028"/>
      <point x="1192" y="1028" type="curve" smooth="yes"/>
      <point x="1169" y="1028"/>
      <point x="1086" y="997"/>
      <point x="1073" y="994" type="curve" smooth="yes"/>
      <point x="1029" y="984"/>
      <point x="1003" y="968"/>
      <point x="918" y="941" type="curve"/>
      <point x="981" y="931" type="line"/>
      <point x="885" y="993"/>
      <point x="820" y="1015"/>
      <point x="704" y="1015" type="curve"/>
      <point x="315" y="1015"/>
      <point x="46" y="722"/>
      <point x="46" y="383" type="curve" smooth="yes"/>
      <point x="46" y="164"/>
      <point x="158" y="-28"/>
      <point x="431" y="-28" type="curve" smooth="yes"/>
      <point x="549" y="-28"/>
      <point x="665" y="18"/>
      <point x="794" y="146" type="curve"/>
    </contour>
    <contour>
      <point x="400" y="492" type="curve" smooth="yes"/>
      <point x="427" y="757"/>
      <point x="564" y="920"/>
      <point x="725" y="920" type="curve" smooth="yes"/>
      <point x="836" y="920"/>
      <point x="879" y="840"/>
      <point x="893" y="802" type="curve"/>
      <point x="811" y="279" type="line"/>
      <point x="764" y="210"/>
      <point x="662" y="120"/>
      <point x="557" y="120" type="curve" smooth="yes"/>
      <point x="486" y="120"/>
      <point x="364" y="141"/>
    </contour>
    <contour>
      <point x="763" y="1700" type="move" name="top"/>
    </contour>
    <contour>
      <point x="549" y="-170" type="move" name="btm"/>
    </contour>
  </outline>
</glyph>
<glyph name="r" format="1">
  <advance width="1094"/>
  <unicode hex="0072"/>
  <outline>
    <contour>
      <point x="573" y="957" type="line"/>
      <point x="578" y="989"/>
      <point x="560" y="997"/>
      <point x="549" y="997" type="curve" smooth="yes"/>
      <point x="469" y="996"/>
      <point x="323" y="995"/>
      <point x="137" y="987" type="curve" smooth="yes"/>
      <point x="121" y="986"/>
      <point x="109" y="959"/>
      <point x="107" y="943" type="curve" smooth="yes"/>
      <point x="104" y="918"/>
      <point x="112" y="909"/>
      <point x="125" y="903" type="curve"/>
      <point x="173" y="889"/>
      <point x="277" y="901"/>
      <point x="257" y="778" type="curve" smooth="yes"/>
      <point x="134" y="0" type="line"/>
      <point x="446" y="0" type="line"/>
      <point x="560" y="721" type="line"/>
      <point x="607" y="763"/>
      <point x="701" y="820"/>
      <point x="781" y="820" type="curve"/>
      <point x="835" y="614" type="line"/>
      <point x="844" y="608"/>
      <point x="867" y="600"/>
      <point x="893" y="600" type="curve" smooth="yes"/>
      <point x="1023" y="600"/>
      <point x="1095" y="716"/>
      <point x="1095" y="845" type="curve" smooth="yes"/>
      <point x="1095" y="944"/>
      <point x="1041" y="1014"/>
      <point x="921" y="1014" type="curve" smooth="yes"/>
      <point x="763" y="1014"/>
      <point x="621" y="885"/>
      <point x="560" y="811" type="curve"/>
    </contour>
    <contour>
      <point x="261" y="-170" type="move" name="btm"/>
    </contour>
    <contour>
      <point x="716" y="1700" type="move" name="top"/>
    </contour>
  </outline>
</glyph>
<glyph name="s" format="1">
  <advance width="1059"/>
  <unicode hex="0073"/>
  <outline>
    <contour>
      <point x="502" y="50" type="curve" smooth="yes"/>
      <point x="456" y="50"/>
      <point x="409" y="62"/>
      <point x="382" y="85" type="curve"/>
      <point x="263" y="262" type="line" smooth="yes"/>
      <point x="238" y="298"/>
      <point x="191" y="305"/>
      <point x="161" y="305" type="curve" smooth="yes"/>
      <point x="126" y="305"/>
      <point x="62" y="282"/>
      <point x="62" y="207" type="curve" smooth="yes"/>
      <point x="62" y="50"/>
      <point x="282" y="-28"/>
      <point x="504" y="-28" type="curve" smooth="yes"/>
      <point x="829" y="-28"/>
      <point x="956" y="141"/>
      <point x="956" y="271" type="curve" smooth="yes"/>
      <point x="956" y="431"/>
      <point x="815" y="524"/>
      <point x="655" y="614" type="curve" smooth="yes"/>
      <point x="526" y="687"/>
      <point x="422" y="733"/>
      <point x="422" y="816" type="curve" smooth="yes"/>
      <point x="422" y="889"/>
      <point x="490" y="938"/>
      <point x="603" y="938" type="curve" smooth="yes"/>
      <point x="650" y="938"/>
      <point x="680" y="922"/>
      <point x="710" y="900" type="curve"/>
      <point x="819" y="748" type="line" smooth="yes"/>
      <point x="837" y="722"/>
      <point x="868" y="713"/>
      <point x="908" y="713" type="curve" smooth="yes"/>
      <point x="949" y="713"/>
      <point x="1007" y="742"/>
      <point x="1007" y="815" type="curve" smooth="yes"/>
      <point x="1007" y="921"/>
      <point x="869" y="1013"/>
      <point x="581" y="1013" type="curve" smooth="yes"/>
      <point x="313" y="1013"/>
      <point x="145" y="898"/>
      <point x="145" y="739" type="curve" smooth="yes"/>
      <point x="145" y="595"/>
      <point x="249" y="498"/>
      <point x="371" y="428" type="curve" smooth="yes"/>
      <point x="517" y="345"/>
      <point x="679" y="271"/>
      <point x="679" y="171" type="curve" smooth="yes"/>
      <point x="679" y="96"/>
      <point x="592" y="50"/>
    </contour>
    <contour>
      <point x="428" y="-170" type="move" name="btm"/>
    </contour>
    <contour>
      <point x="758" y="1700" type="move" name="top"/>
    </contour>
  </outline>
</glyph>
<glyph name="t" format="1">
  <advance width="854"/>
  <unicode hex="0074"/>
  <outline>
    <contour>
      <point x="157" y="223" type="line"/>
      <point x="130" y="20"/>
      <point x="229" y="-28"/>
      <point x="366" y="-28" type="curve" smooth="yes"/>
      <point x="504" y="-28"/>
      <point x="678" y="29"/>
      <point x="799" y="111" type="curve" smooth="yes"/>
      <point x="808" y="117"/>
      <point x="811" y="127"/>
      <point x="811" y="139" type="curve" smooth="yes"/>
      <point x="810" y="169"/>
      <point x="797" y="199"/>
      <point x="764" y="184" type="curve" smooth="yes"/>
      <point x="720" y="164"/>
      <point x="634" y="121"/>
      <point x="555" y="121" type="curve" smooth="yes"/>
      <point x="504" y="121"/>
      <point x="450" y="127"/>
      <point x="474" y="276" type="curve" smooth="yes"/>
      <point x="565" y="892" type="line"/>
      <point x="836" y="892" type="line"/>
      <point x="851" y="898"/>
      <point x="869" y="925"/>
      <point x="869" y="960" type="curve" smooth="yes"/>
      <point x="869" y="976"/>
      <point x="866" y="993"/>
      <point x="850" y="994" type="curve"/>
      <point x="579" y="994" type="line"/>
      <point x="621" y="1267" type="line" smooth="yes"/>
      <point x="623" y="1278"/>
      <point x="615" y="1291"/>
      <point x="598" y="1291" type="curve" smooth="yes"/>
      <point x="521" y="1291" type="line" smooth="yes"/>
      <point x="461" y="1291"/>
      <point x="429" y="1275"/>
      <point x="405" y="1228" type="curve" smooth="yes"/>
      <point x="303" y="1024"/>
      <point x="284" y="1005"/>
      <point x="143" y="984" type="curve" smooth="yes"/>
      <point x="127" y="982"/>
      <point x="116" y="966"/>
      <point x="113" y="941" type="curve" smooth="yes"/>
      <point x="111" y="925"/>
      <point x="114" y="893"/>
      <point x="130" y="892" type="curve"/>
      <point x="254" y="892" type="line"/>
    </contour>
    <contour>
      <point x="365" y="-170" type="move" name="btm"/>
    </contour>
    <contour>
      <point x="623" y="1870" type="move" name="top"/>
    </contour>
  </outline>
</glyph>
<glyph name="u" format="1">
  <advance width="1403"/>
  <unicode hex="0075"/>
  <outline>
    <contour>
      <point x="560" y="852" type="line"/>
      <point x="564" y="906"/>
      <point x="620" y="1007"/>
      <point x="408" y="1007" type="curve" smooth="yes"/>
      <point x="339" y="1007"/>
      <point x="243" y="990"/>
      <point x="114" y="957" type="curve"/>
      <point x="92" y="950"/>
      <point x="82" y="927"/>
      <point x="85" y="912" type="curve" smooth="yes"/>
      <point x="90" y="883"/>
      <point x="107" y="881"/>
      <point x="129" y="885" type="curve" smooth="yes"/>
      <point x="148" y="888"/>
      <point x="173" y="894"/>
      <point x="195" y="894" type="curve" smooth="yes"/>
      <point x="231" y="894"/>
      <point x="261" y="881"/>
      <point x="253" y="822" type="curve" smooth="yes"/>
      <point x="177" y="308" type="line" smooth="yes"/>
      <point x="134" y="60"/>
      <point x="275" y="-28"/>
      <point x="434" y="-28" type="curve" smooth="yes"/>
      <point x="599" y="-28"/>
      <point x="772" y="49"/>
      <point x="824" y="114" type="curve"/>
      <point x="812" y="46"/>
      <point x="848" y="-25"/>
      <point x="956" y="-25" type="curve" smooth="yes"/>
      <point x="1124" y="-25"/>
      <point x="1227" y="28"/>
      <point x="1252" y="42" type="curve" smooth="yes"/>
      <point x="1268" y="56"/>
      <point x="1258" y="110"/>
      <point x="1226" y="101" type="curve" smooth="yes"/>
      <point x="1200" y="94"/>
      <point x="1173" y="88"/>
      <point x="1154" y="88" type="curve" smooth="yes"/>
      <point x="1132" y="88"/>
      <point x="1119" y="113"/>
      <point x="1129" y="183" type="curve" smooth="yes"/>
      <point x="1253" y="958" type="line" smooth="yes"/>
      <point x="1256" y="979"/>
      <point x="1249" y="994"/>
      <point x="1221" y="994" type="curve" smooth="yes"/>
      <point x="946" y="993" type="line"/>
      <point x="822" y="189" type="line"/>
      <point x="763" y="151"/>
      <point x="700" y="113"/>
      <point x="584" y="113" type="curve" smooth="yes"/>
      <point x="466" y="113"/>
      <point x="459" y="198"/>
      <point x="470" y="273" type="curve" smooth="yes"/>
    </contour>
    <contour>
      <point x="556" y="-170" type="move" name="btm"/>
    </contour>
    <contour>
      <point x="850" y="1700" type="move" name="top"/>
    </contour>
  </outline>
</glyph>
<glyph name="v" format="1">
  <advance width="1253"/>
  <unicode hex="0076"/>
  <outline>
    <contour>
      <point x="179" y="799" type="curve" smooth="yes"/>
      <point x="296" y="611"/>
      <point x="341" y="272"/>
      <point x="342" y="91" type="curve" smooth="yes"/>
      <point x="342" y="57"/>
      <point x="341" y="34"/>
      <point x="341" y="22" type="curve" smooth="yes"/>
      <point x="341" y="-13"/>
      <point x="368" y="-24"/>
      <point x="466" y="-24" type="curve" smooth="yes"/>
      <point x="523" y="-24"/>
      <point x="523" y="-24"/>
      <point x="529" y="-23" type="curve" smooth="yes"/>
      <point x="728" y="23"/>
      <point x="1201" y="409"/>
      <point x="1201" y="761" type="curve" smooth="yes"/>
      <point x="1201" y="880"/>
      <point x="1149" y="1014"/>
      <point x="1019" y="1014" type="curve" smooth="yes"/>
      <point x="920" y="1014"/>
      <point x="859" y="952"/>
      <point x="859" y="874" type="curve" smooth="yes"/>
      <point x="859" y="755"/>
      <point x="921" y="689"/>
      <point x="921" y="580" type="curve" smooth="yes"/>
      <point x="921" y="353"/>
      <point x="697" y="145"/>
      <point x="559" y="95" type="curve"/>
      <point x="597" y="141"/>
      <point x="629" y="217"/>
      <point x="629" y="278" type="curve" smooth="yes"/>
      <point x="629" y="568"/>
      <point x="558" y="1014"/>
      <point x="315" y="1014" type="curve" smooth="yes"/>
      <point x="193" y="1014"/>
      <point x="77" y="970"/>
      <point x="-9" y="845" type="curve"/>
      <point x="-13" y="837"/>
      <point x="-15" y="828"/>
      <point x="-15" y="820" type="curve" smooth="yes"/>
      <point x="-15" y="786"/>
      <point x="7" y="774"/>
      <point x="21" y="774" type="curve" smooth="yes"/>
      <point x="32" y="774"/>
      <point x="42" y="780"/>
      <point x="50" y="788" type="curve" smooth="yes"/>
      <point x="76" y="813"/>
      <point x="93" y="832"/>
      <point x="129" y="832" type="curve" smooth="yes"/>
      <point x="152" y="832"/>
      <point x="166" y="817"/>
    </contour>
    <contour>
      <point x="423" y="-170" type="move" name="btm"/>
    </contour>
    <contour>
      <point x="786" y="1700" type="move" name="top"/>
    </contour>
  </outline>
</glyph>
<glyph name="w" format="1">
  <advance width="1913"/>
  <unicode hex="0077"/>
  <outline>
    <contour>
      <point x="892" y="799" type="curve" smooth="yes"/>
      <point x="967" y="695"/>
      <point x="1015" y="479"/>
      <point x="1015" y="91" type="curve" smooth="yes"/>
      <point x="1015" y="57"/>
      <point x="1014" y="34"/>
      <point x="1014" y="22" type="curve" smooth="yes"/>
      <point x="1014" y="-13"/>
      <point x="1041" y="-24"/>
      <point x="1139" y="-24" type="curve" smooth="yes"/>
      <point x="1205" y="-24"/>
      <point x="1202" y="-25"/>
      <point x="1209" y="-23" type="curve" smooth="yes"/>
      <point x="1410" y="23"/>
      <point x="1865" y="409"/>
      <point x="1865" y="761" type="curve" smooth="yes"/>
      <point x="1865" y="880"/>
      <point x="1812" y="1014"/>
      <point x="1682" y="1014" type="curve" smooth="yes"/>
      <point x="1583" y="1014"/>
      <point x="1522" y="952"/>
      <point x="1522" y="874" type="curve" smooth="yes"/>
      <point x="1522" y="755"/>
      <point x="1584" y="689"/>
      <point x="1584" y="580" type="curve" smooth="yes"/>
      <point x="1584" y="353"/>
      <point x="1382" y="178"/>
      <point x="1238" y="95" type="curve"/>
      <point x="1263" y="147"/>
      <point x="1287" y="214"/>
      <point x="1287" y="278" type="curve" smooth="yes"/>
      <point x="1287" y="625"/>
      <point x="1237" y="1014"/>
      <point x="993" y="1014" type="curve" smooth="yes"/>
      <point x="907" y="1014"/>
      <point x="806" y="983"/>
      <point x="705" y="862" type="curve" smooth="yes"/>
      <point x="699" y="855"/>
      <point x="699" y="845"/>
      <point x="699" y="837" type="curve" smooth="yes"/>
      <point x="699" y="803"/>
      <point x="721" y="791"/>
      <point x="735" y="791" type="curve" smooth="yes"/>
      <point x="746" y="791"/>
      <point x="756" y="797"/>
      <point x="764" y="805" type="curve" smooth="yes"/>
      <point x="789" y="830"/>
      <point x="818" y="832"/>
      <point x="834" y="832" type="curve" smooth="yes"/>
      <point x="856" y="832"/>
      <point x="879" y="817"/>
    </contour>
    <contour>
      <point x="184" y="799" type="curve" smooth="yes"/>
      <point x="230" y="720"/>
      <point x="357" y="479"/>
      <point x="357" y="91" type="curve" smooth="yes"/>
      <point x="357" y="57"/>
      <point x="356" y="34"/>
      <point x="356" y="22" type="curve" smooth="yes"/>
      <point x="356" y="-13"/>
      <point x="383" y="-24"/>
      <point x="481" y="-24" type="curve" smooth="yes"/>
      <point x="525" y="-24"/>
      <point x="551" y="-24"/>
      <point x="554" y="-23" type="curve" smooth="yes"/>
      <point x="756" y="31"/>
      <point x="1099" y="315"/>
      <point x="1099" y="761" type="curve"/>
      <point x="945" y="885" type="line"/>
      <point x="945" y="766"/>
      <point x="944" y="753"/>
      <point x="944" y="644" type="curve" smooth="yes"/>
      <point x="944" y="417"/>
      <point x="743" y="165"/>
      <point x="584" y="95" type="curve"/>
      <point x="600" y="159"/>
      <point x="623" y="217"/>
      <point x="623" y="278" type="curve" smooth="yes"/>
      <point x="623" y="568"/>
      <point x="563" y="1014"/>
      <point x="320" y="1014" type="curve" smooth="yes"/>
      <point x="198" y="1014"/>
      <point x="88" y="974"/>
      <point x="-4" y="845" type="curve" smooth="yes"/>
      <point x="-10" y="837"/>
      <point x="-10" y="828"/>
      <point x="-10" y="820" type="curve" smooth="yes"/>
      <point x="-10" y="786"/>
      <point x="12" y="774"/>
      <point x="26" y="774" type="curve" smooth="yes"/>
      <point x="37" y="774"/>
      <point x="47" y="780"/>
      <point x="55" y="788" type="curve" smooth="yes"/>
      <point x="81" y="813"/>
      <point x="98" y="832"/>
      <point x="134" y="832" type="curve" smooth="yes"/>
      <point x="157" y="832"/>
      <point x="173" y="818"/>
    </contour>
    <contour>
      <point x="774" y="-170" type="move" name="btm"/>
    </contour>
    <contour>
      <point x="1140" y="1700" type="move" name="top"/>
    </contour>
  </outline>
</glyph>
<glyph name="x" format="1">
  <advance width="1194"/>
  <unicode hex="0078"/>
  <outline>
    <contour>
      <point x="457" y="438" type="line"/>
      <point x="215" y="196" type="line"/>
      <point x="170" y="272" type="line" smooth="yes"/>
      <point x="157" y="294"/>
      <point x="134" y="309"/>
      <point x="97" y="309" type="curve" smooth="yes"/>
      <point x="34" y="309"/>
      <point x="-24" y="241"/>
      <point x="-24" y="160" type="curve" smooth="yes"/>
      <point x="-24" y="66"/>
      <point x="49" y="-30"/>
      <point x="164" y="-30" type="curve" smooth="yes"/>
      <point x="218" y="-30"/>
      <point x="259" y="2"/>
      <point x="305" y="79" type="curve"/>
      <point x="495" y="345" type="line"/>
      <point x="571" y="112" type="line" smooth="yes"/>
      <point x="604" y="15"/>
      <point x="658" y="-28"/>
      <point x="738" y="-28" type="curve" smooth="yes"/>
      <point x="901" y="-28"/>
      <point x="1012" y="48"/>
      <point x="1100" y="166" type="curve" smooth="yes"/>
      <point x="1115" y="187"/>
      <point x="1109" y="215"/>
      <point x="1098" y="226" type="curve" smooth="yes"/>
      <point x="1076" y="246"/>
      <point x="1057" y="235"/>
      <point x="1040" y="217" type="curve"/>
      <point x="1010" y="182"/>
      <point x="971" y="149"/>
      <point x="929" y="149" type="curve" smooth="yes"/>
      <point x="892" y="149"/>
      <point x="872" y="181"/>
      <point x="847" y="241" type="curve" smooth="yes"/>
      <point x="732" y="538" type="line"/>
      <point x="981" y="777" type="line"/>
      <point x="1045" y="696" type="line" smooth="yes"/>
      <point x="1059" y="678"/>
      <point x="1080" y="671"/>
      <point x="1102" y="671" type="curve" smooth="yes"/>
      <point x="1158" y="672"/>
      <point x="1226" y="726"/>
      <point x="1226" y="812" type="curve" smooth="yes"/>
      <point x="1226" y="906"/>
      <point x="1159" y="994"/>
      <point x="1043" y="994" type="curve" smooth="yes"/>
      <point x="985" y="994"/>
      <point x="926" y="962"/>
      <point x="877" y="887" type="curve"/>
      <point x="701" y="632" type="line"/>
      <point x="624" y="864" type="line" smooth="yes"/>
      <point x="592" y="961"/>
      <point x="536" y="1004"/>
      <point x="456" y="1004" type="curve" smooth="yes"/>
      <point x="293" y="1004"/>
      <point x="182" y="928"/>
      <point x="95" y="810" type="curve" smooth="yes"/>
      <point x="79" y="789"/>
      <point x="85" y="761"/>
      <point x="96" y="750" type="curve" smooth="yes"/>
      <point x="118" y="730"/>
      <point x="138" y="741"/>
      <point x="154" y="759" type="curve" smooth="yes"/>
      <point x="185" y="794"/>
      <point x="223" y="827"/>
      <point x="265" y="827" type="curve" smooth="yes"/>
      <point x="302" y="827"/>
      <point x="325" y="796"/>
      <point x="347" y="735" type="curve" smooth="yes"/>
    </contour>
    <contour>
      <point x="802" y="1700" type="move" name="top"/>
    </contour>
    <contour>
      <point x="439" y="-170" type="move" name="btm"/>
    </contour>
  </outline>
</glyph>
<glyph name="y" format="1">
  <advance width="1370"/>
  <unicode hex="0079"/>
  <outline>
    <contour>
      <point x="365" y="-227" type="curve" smooth="yes"/>
      <point x="258" y="-242"/>
      <point x="204" y="-192"/>
      <point x="117" y="-192" type="curve" smooth="yes"/>
      <point x="8" y="-192"/>
      <point x="-49" y="-247"/>
      <point x="-49" y="-320" type="curve" smooth="yes"/>
      <point x="-49" y="-404"/>
      <point x="32" y="-449"/>
      <point x="147" y="-449" type="curve" smooth="yes"/>
      <point x="313" y="-449"/>
      <point x="494" y="-368"/>
      <point x="677" y="-196" type="curve" smooth="yes"/>
      <point x="947" y="59"/>
      <point x="1278" y="460"/>
      <point x="1278" y="761" type="curve" smooth="yes"/>
      <point x="1278" y="880"/>
      <point x="1225" y="1014"/>
      <point x="1095" y="1014" type="curve" smooth="yes"/>
      <point x="996" y="1014"/>
      <point x="936" y="952"/>
      <point x="936" y="874" type="curve" smooth="yes"/>
      <point x="936" y="755"/>
      <point x="1007" y="689"/>
      <point x="1007" y="580" type="curve" smooth="yes"/>
      <point x="1007" y="314"/>
      <point x="812" y="89"/>
      <point x="737" y="12" type="curve"/>
      <point x="758" y="288"/>
      <point x="713" y="669"/>
      <point x="576" y="903" type="curve" smooth="yes"/>
      <point x="528" y="984"/>
      <point x="462" y="1014"/>
      <point x="371" y="1014" type="curve" smooth="yes"/>
      <point x="300" y="1014"/>
      <point x="142" y="970"/>
      <point x="67" y="845" type="curve"/>
      <point x="63" y="837"/>
      <point x="61" y="828"/>
      <point x="61" y="820" type="curve" smooth="yes"/>
      <point x="61" y="786"/>
      <point x="83" y="774"/>
      <point x="97" y="774" type="curve" smooth="yes"/>
      <point x="108" y="774"/>
      <point x="118" y="780"/>
      <point x="126" y="788" type="curve" smooth="yes"/>
      <point x="141" y="813"/>
      <point x="164" y="832"/>
      <point x="185" y="832" type="curve" smooth="yes"/>
      <point x="205" y="832"/>
      <point x="232" y="815"/>
      <point x="247" y="801" type="curve" smooth="yes"/>
      <point x="326" y="728"/>
      <point x="492" y="356"/>
      <point x="492" y="42" type="curve" smooth="yes"/>
      <point x="492" y="-26"/>
      <point x="512" y="-64"/>
      <point x="650" y="-64" type="curve"/>
      <point x="554" y="-167"/>
      <point x="524" y="-206"/>
    </contour>
    <contour>
      <point x="864" y="1700" type="move" name="top"/>
    </contour>
    <contour>
      <point x="591" y="-170" type="move" name="btm"/>
    </contour>
  </outline>
</glyph>
<glyph name="z" format="1">
  <advance width="1059"/>
  <unicode hex="007A"/>
  <outline>
    <contour>
      <point x="41" y="38" type="curve" smooth="yes"/>
      <point x="41" y="19"/>
      <point x="52" y="0"/>
      <point x="80" y="0" type="curve" smooth="yes"/>
      <point x="892" y="0" type="line"/>
      <point x="912" y="1"/>
      <point x="941" y="15"/>
      <point x="944" y="41" type="curve"/>
      <point x="1004" y="339" type="line"/>
      <point x="1007" y="362"/>
      <point x="955" y="373"/>
      <point x="940" y="373" type="curve" smooth="yes"/>
      <point x="919" y="373"/>
      <point x="905" y="366"/>
      <point x="898" y="340" type="curve" smooth="yes"/>
      <point x="886" y="291"/>
      <point x="784" y="83"/>
      <point x="696" y="83" type="curve" smooth="yes"/>
      <point x="430" y="83" type="line"/>
      <point x="1029" y="889" type="line" smooth="yes"/>
      <point x="1049" y="916"/>
      <point x="1059" y="929"/>
      <point x="1059" y="961" type="curve" smooth="yes"/>
      <point x="1059" y="980"/>
      <point x="1045" y="994"/>
      <point x="1006" y="994" type="curve" smooth="yes"/>
      <point x="214" y="994" type="line"/>
      <point x="194" y="993"/>
      <point x="165" y="977"/>
      <point x="161" y="953" type="curve"/>
      <point x="93" y="655" type="line" smooth="yes"/>
      <point x="89" y="632"/>
      <point x="124" y="621"/>
      <point x="139" y="621" type="curve" smooth="yes"/>
      <point x="160" y="621"/>
      <point x="184" y="628"/>
      <point x="190" y="654" type="curve" smooth="yes"/>
      <point x="202" y="703"/>
      <point x="308" y="911"/>
      <point x="396" y="911" type="curve" smooth="yes"/>
      <point x="661" y="911" type="line"/>
      <point x="85" y="123" type="line" smooth="yes"/>
      <point x="60" y="88"/>
      <point x="41" y="62"/>
    </contour>
    <contour>
      <point x="745" y="1700" type="move" name="top"/>
    </contour>
    <contour>
      <point x="380" y="-170" type="move" name="btm"/>
    </contour>
  </outline>
</glyph>
<glyph name="braceleft" format="1">
  <advance width="1024"/>
  <unicode hex="007B"/>
  <outline>
    <contour>
      <point x="258" y="-29" type="line" smooth="yes"/>
      <point x="223" y="-251"/>
      <point x="403" y="-328"/>
      <point x="543" y="-328" type="curve" smooth="yes"/>
      <point x="786" y="-328" type="line"/>
      <point x="800" y="-241" type="line"/>
      <point x="687" y="-241" type="line" smooth="yes"/>
      <point x="579" y="-241"/>
      <point x="556" y="-148"/>
      <point x="568" y="-72" type="curve" smooth="yes"/>
      <point x="633" y="335" type="line" smooth="yes"/>
      <point x="658" y="498"/>
      <point x="546" y="575"/>
      <point x="378" y="603" type="curve"/>
      <point x="556" y="630"/>
      <point x="693" y="710"/>
      <point x="719" y="873" type="curve" smooth="yes"/>
      <point x="783" y="1280" type="line" smooth="yes"/>
      <point x="798" y="1356"/>
      <point x="851" y="1449"/>
      <point x="957" y="1449" type="curve" smooth="yes"/>
      <point x="1070" y="1449" type="line"/>
      <point x="1083" y="1536" type="line"/>
      <point x="840" y="1536" type="line" smooth="yes"/>
      <point x="700" y="1536"/>
      <point x="497" y="1459"/>
      <point x="461" y="1237" type="curve" smooth="yes"/>
      <point x="399" y="850" type="line" smooth="yes"/>
      <point x="382" y="741"/>
      <point x="274" y="659"/>
      <point x="149" y="659" type="curve" smooth="yes"/>
      <point x="119" y="659" type="line"/>
      <point x="102" y="549" type="line"/>
      <point x="132" y="549" type="line" smooth="yes"/>
      <point x="257" y="549"/>
      <point x="338" y="467"/>
      <point x="321" y="358" type="curve" smooth="yes"/>
    </contour>
  </outline>
</glyph>
<glyph name="bar" format="1">
  <advance width="795"/>
  <unicode hex="007C"/>
  <outline>
    <contour>
      <point x="499" y="1535" type="line"/>
      <point x="499" y="-367" type="line"/>
      <point x="354" y="-367" type="line"/>
      <point x="354" y="1535" type="line"/>
    </contour>
  </outline>
</glyph>
<glyph name="braceright" format="1">
  <advance width="1024"/>
  <unicode hex="007D"/>
  <outline>
    <contour>
      <point x="766" y="1237" type="line"/>
      <point x="807" y="1459"/>
      <point x="629" y="1536"/>
      <point x="489" y="1536" type="curve" smooth="yes"/>
      <point x="246" y="1536" type="line"/>
      <point x="229" y="1449" type="line"/>
      <point x="342" y="1449" type="line" smooth="yes"/>
      <point x="450" y="1449"/>
      <point x="471" y="1356"/>
      <point x="458" y="1280" type="curve"/>
      <point x="383" y="873" type="line"/>
      <point x="354" y="710"/>
      <point x="465" y="633"/>
      <point x="632" y="605" type="curve"/>
      <point x="455" y="578"/>
      <point x="315" y="498"/>
      <point x="285" y="335" type="curve" smooth="yes"/>
      <point x="211" y="-72" type="line" smooth="yes"/>
      <point x="197" y="-148"/>
      <point x="142" y="-241"/>
      <point x="35" y="-241" type="curve" smooth="yes"/>
      <point x="-77" y="-241" type="line"/>
      <point x="-93" y="-328" type="line"/>
      <point x="148" y="-328" type="line" smooth="yes"/>
      <point x="288" y="-328"/>
      <point x="493" y="-251"/>
      <point x="535" y="-29" type="curve"/>
      <point x="605" y="358" type="line" smooth="yes"/>
      <point x="624" y="467"/>
      <point x="734" y="549"/>
      <point x="859" y="549" type="curve" smooth="yes"/>
      <point x="889" y="549" type="line"/>
      <point x="909" y="659" type="line"/>
      <point x="879" y="659" type="line" smooth="yes"/>
      <point x="754" y="659"/>
      <point x="676" y="741"/>
      <point x="695" y="850" type="curve"/>
    </contour>
  </outline>
</glyph>
<glyph name="asciitilde" format="1">
  <advance width="1440"/>
  <unicode hex="007E"/>
  <outline>
    <contour>
      <point x="1183" y="622" type="curve" smooth="yes"/>
      <point x="1190" y="636"/>
      <point x="1209" y="672"/>
      <point x="1200" y="685" type="curve" smooth="yes"/>
      <point x="1185" y="705"/>
      <point x="1162" y="726"/>
      <point x="1147" y="723" type="curve"/>
      <point x="1095" y="702"/>
      <point x="1024" y="524"/>
      <point x="797" y="629" type="curve" smooth="yes"/>
      <point x="707" y="670"/>
      <point x="638" y="725"/>
      <point x="529" y="725" type="curve" smooth="yes"/>
      <point x="397" y="725"/>
      <point x="307" y="606"/>
      <point x="249" y="508" type="curve" smooth="yes"/>
      <point x="241" y="495"/>
      <point x="241" y="459"/>
      <point x="250" y="446" type="curve" smooth="yes"/>
      <point x="265" y="426"/>
      <point x="288" y="405"/>
      <point x="303" y="408" type="curve"/>
      <point x="355" y="429"/>
      <point x="407" y="604"/>
      <point x="635" y="501" type="curve" smooth="yes"/>
      <point x="728" y="459"/>
      <point x="799" y="405"/>
      <point x="913" y="405" type="curve" smooth="yes"/>
      <point x="1049" y="405"/>
      <point x="1131" y="512"/>
    </contour>
  </outline>
</glyph>
<glyph name="cent" format="1">
  <advance width="1239"/>
  <unicode hex="00A2"/>
  <outline>
    <contour>
      <point x="605" y="-245" type="line"/>
      <point x="639" y="3" type="line"/>
      <point x="523" y="3" type="line"/>
      <point x="489" y="-245" type="line"/>
    </contour>
    <contour>
      <point x="720" y="1251" type="line"/>
      <point x="680" y="1004" type="line"/>
      <point x="796" y="1004" type="line"/>
      <point x="836" y="1251" type="line"/>
    </contour>
    <component base="c" xOffset="65"/>
  </outline>
</glyph>
<glyph name="sterling" format="1">
  <advance width="1413"/>
  <unicode hex="00A3"/>
  <outline>
    <contour>
      <point x="-22" y="91" type="curve" smooth="yes"/>
      <point x="-22" y="32"/>
      <point x="40" y="0"/>
      <point x="93" y="0" type="curve" smooth="yes"/>
      <point x="192" y="0"/>
      <point x="254" y="5"/>
      <point x="349" y="87" type="curve"/>
      <point x="437" y="83"/>
      <point x="503" y="-16"/>
      <point x="830" y="-16" type="curve" smooth="yes"/>
      <point x="1070" y="-16"/>
      <point x="1357" y="69"/>
      <point x="1357" y="301" type="curve" smooth="yes"/>
      <point x="1357" y="391"/>
      <point x="1318" y="510"/>
      <point x="1179" y="510" type="curve" smooth="yes"/>
      <point x="1088" y="510"/>
      <point x="1044" y="431"/>
      <point x="1044" y="431" type="curve"/>
      <point x="1085" y="259" type="line"/>
      <point x="1049" y="152"/>
      <point x="943" y="80"/>
      <point x="755" y="88" type="curve" smooth="yes"/>
      <point x="612" y="95"/>
      <point x="526" y="119"/>
      <point x="439" y="158" type="curve"/>
      <point x="604" y="266"/>
      <point x="664" y="390"/>
      <point x="701" y="626" type="curve" smooth="yes"/>
      <point x="733" y="893" type="line" smooth="yes"/>
      <point x="789" y="1252"/>
      <point x="829" y="1366"/>
      <point x="947" y="1366" type="curve" smooth="yes"/>
      <point x="993" y="1366"/>
      <point x="1000" y="1360"/>
      <point x="1021" y="1350" type="curve"/>
      <point x="1145" y="1128" type="line" smooth="yes"/>
      <point x="1161" y="1100"/>
      <point x="1200" y="1099"/>
      <point x="1232" y="1099" type="curve" smooth="yes"/>
      <point x="1289" y="1099"/>
      <point x="1330" y="1131"/>
      <point x="1330" y="1233" type="curve" smooth="yes"/>
      <point x="1330" y="1333"/>
      <point x="1234" y="1448"/>
      <point x="1028" y="1448" type="curve" smooth="yes"/>
      <point x="577" y="1448"/>
      <point x="426" y="1213"/>
      <point x="387" y="871" type="curve" smooth="yes"/>
      <point x="350" y="547" type="line" smooth="yes"/>
      <point x="326" y="337"/>
      <point x="331" y="284"/>
      <point x="289" y="241" type="curve"/>
      <point x="148" y="235"/>
      <point x="-22" y="197"/>
    </contour>
    <contour>
      <point x="976" y="679" type="line"/>
      <point x="991" y="685"/>
      <point x="1006" y="727"/>
      <point x="1010" y="752" type="curve" smooth="yes"/>
      <point x="1012" y="768"/>
      <point x="1007" y="785"/>
      <point x="991" y="786" type="curve"/>
      <point x="182" y="786" type="line"/>
      <point x="167" y="780"/>
      <point x="154" y="758"/>
      <point x="150" y="733" type="curve" smooth="yes"/>
      <point x="148" y="717"/>
      <point x="151" y="680"/>
      <point x="167" y="679" type="curve"/>
    </contour>
  </outline>
</glyph>
<glyph name="currency" format="1">
  <advance width="1440"/>
  <unicode hex="00A4"/>
  <outline>
    <contour>
      <point x="355" y="575" type="curve" smooth="yes"/>
      <point x="355" y="374"/>
      <point x="492" y="211"/>
      <point x="709" y="211" type="curve" smooth="yes"/>
      <point x="926" y="211"/>
      <point x="1065" y="374"/>
      <point x="1065" y="575" type="curve" smooth="yes"/>
      <point x="1065" y="776"/>
      <point x="930" y="939"/>
      <point x="713" y="939" type="curve" smooth="yes"/>
      <point x="496" y="939"/>
      <point x="355" y="776"/>
    </contour>
    <contour>
      <point x="872" y="575" type="curve" smooth="yes"/>
      <point x="872" y="433"/>
      <point x="813" y="364"/>
      <point x="711" y="364" type="curve" smooth="yes"/>
      <point x="608" y="364"/>
      <point x="547" y="433"/>
      <point x="547" y="575" type="curve" smooth="yes"/>
      <point x="547" y="717"/>
      <point x="605" y="786"/>
      <point x="708" y="786" type="curve" smooth="yes"/>
      <point x="810" y="786"/>
      <point x="872" y="717"/>
    </contour>
    <contour>
      <point x="830" y="332" type="line"/>
      <point x="1070" y="87" type="line"/>
      <point x="1195" y="203" type="line"/>
      <point x="936" y="467" type="line"/>
    </contour>
    <contour>
      <point x="592" y="817" type="line"/>
      <point x="350" y="1063" type="line"/>
      <point x="225" y="946" type="line"/>
      <point x="481" y="685" type="line"/>
    </contour>
    <contour>
      <point x="471" y="454" type="line"/>
      <point x="225" y="203" type="line"/>
      <point x="350" y="87" type="line"/>
      <point x="595" y="336" type="line"/>
    </contour>
    <contour>
      <point x="937" y="684" type="line"/>
      <point x="1195" y="946" type="line"/>
      <point x="1070" y="1063" type="line"/>
      <point x="828" y="817" type="line"/>
    </contour>
  </outline>
</glyph>
<glyph name="yen" format="1">
  <advance width="1499"/>
  <unicode hex="00A5"/>
  <outline>
    <contour>
      <point x="669" y="1287" type="line" smooth="yes"/>
      <point x="652" y="1333"/>
      <point x="734" y="1336"/>
      <point x="825" y="1341" type="curve"/>
      <point x="851" y="1344"/>
      <point x="860" y="1357"/>
      <point x="863" y="1378" type="curve" smooth="yes"/>
      <point x="865" y="1393"/>
      <point x="858" y="1419"/>
      <point x="835" y="1419" type="curve" smooth="yes"/>
      <point x="130" y="1419" type="line" smooth="yes"/>
      <point x="108" y="1419"/>
      <point x="92" y="1393"/>
      <point x="90" y="1378" type="curve" smooth="yes"/>
      <point x="86" y="1348"/>
      <point x="93" y="1344"/>
      <point x="121" y="1341" type="curve" smooth="yes"/>
      <point x="169" y="1336"/>
      <point x="268" y="1333"/>
      <point x="310" y="1254" type="curve" smooth="yes"/>
      <point x="671" y="544" type="line"/>
      <point x="767" y="546" type="line"/>
      <point x="860" y="789" type="line"/>
    </contour>
    <contour>
      <point x="853" y="789" type="line"/>
      <point x="767" y="546" type="line"/>
      <point x="1433" y="1254" type="line" smooth="yes"/>
      <point x="1500" y="1326"/>
      <point x="1555" y="1336"/>
      <point x="1606" y="1341" type="curve" smooth="yes"/>
      <point x="1634" y="1344"/>
      <point x="1643" y="1348"/>
      <point x="1647" y="1378" type="curve" smooth="yes"/>
      <point x="1649" y="1393"/>
      <point x="1641" y="1419"/>
      <point x="1619" y="1419" type="curve" smooth="yes"/>
      <point x="1194" y="1419" type="line" smooth="yes"/>
      <point x="1171" y="1419"/>
      <point x="1156" y="1393"/>
      <point x="1154" y="1378" type="curve" smooth="yes"/>
      <point x="1151" y="1357"/>
      <point x="1156" y="1344"/>
      <point x="1182" y="1341" type="curve"/>
      <point x="1271" y="1336"/>
      <point x="1349" y="1327"/>
      <point x="1312" y="1287" type="curve" smooth="yes"/>
    </contour>
    <contour>
      <point x="611" y="780" type="line"/>
      <point x="529" y="152" type="line" smooth="yes"/>
      <point x="519" y="81"/>
      <point x="408" y="93"/>
      <point x="340" y="88" type="curve"/>
      <point x="314" y="85"/>
      <point x="295" y="72"/>
      <point x="292" y="51" type="curve" smooth="yes"/>
      <point x="290" y="36"/>
      <point x="296" y="0"/>
      <point x="319" y="0" type="curve" smooth="yes"/>
      <point x="1014" y="0" type="line" smooth="yes"/>
      <point x="1036" y="0"/>
      <point x="1053" y="36"/>
      <point x="1055" y="51" type="curve" smooth="yes"/>
      <point x="1059" y="81"/>
      <point x="1041" y="85"/>
      <point x="1014" y="88" type="curve"/>
      <point x="948" y="93"/>
      <point x="825" y="79"/>
      <point x="837" y="165" type="curve" smooth="yes"/>
      <point x="917" y="780" type="line"/>
    </contour>
    <contour>
      <point x="1296" y="635" type="line" smooth="yes"/>
      <point x="1309" y="635"/>
      <point x="1324" y="667"/>
      <point x="1328" y="692" type="curve" smooth="yes"/>
      <point x="1331" y="708"/>
      <point x="1325" y="735"/>
      <point x="1309" y="736" type="curve"/>
      <point x="185" y="736" type="line"/>
      <point x="172" y="736"/>
      <point x="157" y="709"/>
      <point x="153" y="684" type="curve" smooth="yes"/>
      <point x="150" y="668"/>
      <point x="156" y="636"/>
      <point x="172" y="635" type="curve"/>
    </contour>
    <contour>
      <point x="136" y="300" type="line"/>
      <point x="1260" y="300" type="line"/>
      <point x="1261" y="300" type="line"/>
      <point x="1274" y="300"/>
      <point x="1289" y="335"/>
      <point x="1293" y="360" type="curve" smooth="yes"/>
      <point x="1296" y="376"/>
      <point x="1290" y="403"/>
      <point x="1274" y="404" type="curve"/>
      <point x="150" y="404" type="line"/>
      <point x="137" y="404"/>
      <point x="122" y="377"/>
      <point x="118" y="352" type="curve" smooth="yes"/>
      <point x="115" y="336"/>
      <point x="121" y="301"/>
      <point x="137" y="300" type="curve"/>
    </contour>
  </outline>
</glyph>
<glyph name="section" format="1">
  <advance width="1153"/>
  <unicode hex="00A7"/>
  <outline>
    <contour>
      <point x="700" y="191" type="line"/>
      <point x="817" y="211"/>
      <point x="962" y="329"/>
      <point x="986" y="479" type="curve" smooth="yes"/>
      <point x="1002" y="598"/>
      <point x="968" y="701"/>
      <point x="868" y="812" type="curve"/>
      <point x="688" y="998"/>
      <point x="531" y="1056"/>
      <point x="556" y="1221" type="curve" smooth="yes"/>
      <point x="568" y="1299"/>
      <point x="621" y="1359"/>
      <point x="710" y="1359" type="curve" smooth="yes"/>
      <point x="719" y="1359"/>
      <point x="729" y="1359"/>
      <point x="738" y="1357" type="curve"/>
      <point x="765" y="1389" type="line"/>
      <point x="703" y="1372" type="line"/>
      <point x="739" y="1292"/>
      <point x="825" y="1169"/>
      <point x="842" y="1139" type="curve"/>
      <point x="859" y="1114"/>
      <point x="885" y="1103"/>
      <point x="909" y="1103" type="curve" smooth="yes"/>
      <point x="961" y="1103"/>
      <point x="1017" y="1149"/>
      <point x="1028" y="1220" type="curve" smooth="yes"/>
      <point x="1048" y="1349"/>
      <point x="925" y="1449"/>
      <point x="717" y="1449" type="curve" smooth="yes"/>
      <point x="488" y="1449"/>
      <point x="325" y="1320"/>
      <point x="301" y="1153" type="curve" smooth="yes"/>
      <point x="269" y="944"/>
      <point x="430" y="837"/>
      <point x="653" y="642" type="curve" smooth="yes"/>
      <point x="703" y="600"/>
      <point x="752" y="526"/>
      <point x="737" y="422" type="curve" smooth="yes"/>
      <point x="729" y="374"/>
      <point x="694" y="302"/>
      <point x="657" y="257" type="curve"/>
      <point x="665" y="225" type="line"/>
    </contour>
    <contour>
      <point x="444" y="897" type="line"/>
      <point x="327" y="877"/>
      <point x="183" y="759"/>
      <point x="160" y="609" type="curve" smooth="yes"/>
      <point x="142" y="490"/>
      <point x="174" y="385"/>
      <point x="276" y="276" type="curve" smooth="yes"/>
      <point x="454" y="87"/>
      <point x="614" y="32"/>
      <point x="588" y="-133" type="curve" smooth="yes"/>
      <point x="578" y="-211"/>
      <point x="524" y="-271"/>
      <point x="435" y="-271" type="curve" smooth="yes"/>
      <point x="426" y="-271"/>
      <point x="416" y="-271"/>
      <point x="408" y="-269" type="curve"/>
      <point x="380" y="-301" type="line"/>
      <point x="440" y="-284" type="line"/>
      <point x="407" y="-204"/>
      <point x="320" y="-81"/>
      <point x="301" y="-51" type="curve"/>
      <point x="286" y="-26"/>
      <point x="261" y="-15"/>
      <point x="237" y="-15" type="curve" smooth="yes"/>
      <point x="185" y="-15"/>
      <point x="128" y="-61"/>
      <point x="116" y="-132" type="curve" smooth="yes"/>
      <point x="98" y="-261"/>
      <point x="219" y="-361"/>
      <point x="427" y="-361" type="curve" smooth="yes"/>
      <point x="656" y="-361"/>
      <point x="818" y="-232"/>
      <point x="845" y="-65" type="curve" smooth="yes"/>
      <point x="874" y="144"/>
      <point x="714" y="251"/>
      <point x="490" y="446" type="curve" smooth="yes"/>
      <point x="441" y="488"/>
      <point x="393" y="562"/>
      <point x="409" y="666" type="curve" smooth="yes"/>
      <point x="416" y="714"/>
      <point x="451" y="786"/>
      <point x="487" y="831" type="curve"/>
      <point x="480" y="863" type="line"/>
    </contour>
  </outline>
</glyph>
<glyph name="dieresis" format="1">
  <advance width="1024"/>
  <unicode hex="00A8"/>
  <outline>
    <contour>
      <point x="183" y="1363" type="curve" smooth="yes"/>
      <point x="183" y="1269"/>
      <point x="235" y="1190"/>
      <point x="332" y="1190" type="curve" smooth="yes"/>
      <point x="428" y="1190"/>
      <point x="502" y="1259"/>
      <point x="502" y="1363" type="curve" smooth="yes"/>
      <point x="502" y="1458"/>
      <point x="448" y="1537"/>
      <point x="352" y="1537" type="curve" smooth="yes"/>
      <point x="255" y="1537"/>
      <point x="183" y="1468"/>
    </contour>
    <contour>
      <point x="661" y="1363" type="curve" smooth="yes"/>
      <point x="661" y="1269"/>
      <point x="713" y="1190"/>
      <point x="810" y="1190" type="curve" smooth="yes"/>
      <point x="906" y="1190"/>
      <point x="980" y="1259"/>
      <point x="980" y="1363" type="curve" smooth="yes"/>
      <point x="980" y="1458"/>
      <point x="926" y="1537"/>
      <point x="830" y="1537" type="curve" smooth="yes"/>
      <point x="733" y="1537"/>
      <point x="661" y="1468"/>
    </contour>
    <contour>
      <point x="645" y="1700" type="move" name="_top"/>
    </contour>
  </outline>
</glyph>
<glyph name="copyright" format="1">
  <advance width="1929"/>
  <unicode hex="00A9"/>
  <outline>
    <contour>
      <point x="1007" y="1030" type="curve" smooth="yes"/>
      <point x="1053" y="1030"/>
      <point x="1092" y="1001"/>
      <point x="1092" y="1001" type="curve"/>
      <point x="1112" y="978"/>
      <point x="1115" y="939"/>
      <point x="1131" y="904" type="curve" smooth="yes"/>
      <point x="1147" y="869"/>
      <point x="1164" y="830"/>
      <point x="1220" y="830" type="curve" smooth="yes"/>
      <point x="1264" y="830"/>
      <point x="1303" y="894"/>
      <point x="1231" y="1003" type="curve" smooth="yes"/>
      <point x="1176" y="1087"/>
      <point x="1066" y="1104"/>
      <point x="1005" y="1104" type="curve" smooth="yes"/>
      <point x="792" y="1104"/>
      <point x="627" y="985"/>
      <point x="627" y="718" type="curve" smooth="yes"/>
      <point x="627" y="450"/>
      <point x="753" y="322"/>
      <point x="998" y="322" type="curve" smooth="yes"/>
      <point x="1142" y="322"/>
      <point x="1243" y="393"/>
      <point x="1279" y="550" type="curve" smooth="yes"/>
      <point x="1281" y="557"/>
      <point x="1280" y="569"/>
      <point x="1266" y="569" type="curve" smooth="yes"/>
      <point x="1209" y="568" type="line" smooth="yes"/>
      <point x="1199" y="568"/>
      <point x="1199" y="558"/>
      <point x="1197" y="551" type="curve" smooth="yes"/>
      <point x="1170" y="427"/>
      <point x="1082" y="394"/>
      <point x="995" y="394" type="curve" smooth="yes"/>
      <point x="904" y="394"/>
      <point x="774" y="452"/>
      <point x="774" y="710" type="curve" smooth="yes"/>
      <point x="774" y="970"/>
      <point x="877" y="1030"/>
    </contour>
    <contour>
      <point x="253" y="710" type="curve" smooth="yes"/>
      <point x="253" y="315"/>
      <point x="570" y="-5"/>
      <point x="966" y="-5" type="curve" smooth="yes"/>
      <point x="1361" y="-5"/>
      <point x="1679" y="315"/>
      <point x="1679" y="710" type="curve" smooth="yes"/>
      <point x="1679" y="1106"/>
      <point x="1361" y="1426"/>
      <point x="966" y="1426" type="curve" smooth="yes"/>
      <point x="570" y="1426"/>
      <point x="253" y="1106"/>
    </contour>
    <contour>
      <point x="347" y="710" type="curve" smooth="yes"/>
      <point x="347" y="1054"/>
      <point x="620" y="1344"/>
      <point x="967" y="1344" type="curve" smooth="yes"/>
      <point x="1314" y="1344"/>
      <point x="1587" y="1058"/>
      <point x="1587" y="710" type="curve" smooth="yes"/>
      <point x="1587" y="367"/>
      <point x="1310" y="75"/>
      <point x="967" y="75" type="curve" smooth="yes"/>
      <point x="623" y="75"/>
      <point x="347" y="367"/>
    </contour>
  </outline>
</glyph>
<glyph name="ordfeminine" format="1">
  <advance width="1130"/>
  <unicode hex="00AA"/>
  <outline>
    <contour>
      <point x="671" y="1470" type="curve" smooth="yes"/>
      <point x="351" y="1470"/>
      <point x="86" y="1233"/>
      <point x="81" y="921" type="curve" smooth="yes"/>
      <point x="80" y="755"/>
      <point x="175" y="614"/>
      <point x="344" y="614" type="curve" smooth="yes"/>
      <point x="527" y="614"/>
      <point x="670" y="749"/>
      <point x="756" y="890" type="curve"/>
      <point x="755" y="879"/>
      <point x="730" y="731"/>
      <point x="730" y="724" type="curve" smooth="yes"/>
      <point x="731" y="672"/>
      <point x="757" y="616"/>
      <point x="832" y="616" type="curve" smooth="yes"/>
      <point x="961" y="616"/>
      <point x="1113" y="678"/>
      <point x="1136" y="689" type="curve" smooth="yes"/>
      <point x="1140" y="692"/>
      <point x="1141" y="700"/>
      <point x="1141" y="707" type="curve" smooth="yes"/>
      <point x="1141" y="727"/>
      <point x="1138" y="760"/>
      <point x="1124" y="757" type="curve" smooth="yes"/>
      <point x="1091" y="751"/>
      <point x="1056" y="739"/>
      <point x="1023" y="739" type="curve" smooth="yes"/>
      <point x="1009" y="739"/>
      <point x="999" y="751"/>
      <point x="998" y="783" type="curve" smooth="yes"/>
      <point x="998" y="791"/>
      <point x="999" y="803"/>
      <point x="1001" y="817" type="curve" smooth="yes"/>
      <point x="1114" y="1426" type="line"/>
      <point x="1114" y="1426"/>
      <point x="1115" y="1431"/>
      <point x="1115" y="1433" type="curve" smooth="yes"/>
      <point x="1115" y="1447"/>
      <point x="1105" y="1463"/>
      <point x="1087" y="1456" type="curve"/>
      <point x="910" y="1409" type="line"/>
      <point x="857" y="1447"/>
      <point x="766" y="1470"/>
    </contour>
    <contour>
      <point x="368" y="927" type="curve" smooth="yes"/>
      <point x="368" y="1178"/>
      <point x="463" y="1386"/>
      <point x="663" y="1386" type="curve" smooth="yes"/>
      <point x="728" y="1386"/>
      <point x="800" y="1368"/>
      <point x="834" y="1323" type="curve"/>
      <point x="778" y="1044" type="line"/>
      <point x="721" y="962"/>
      <point x="606" y="778"/>
      <point x="464" y="778" type="curve" smooth="yes"/>
      <point x="417" y="778"/>
      <point x="368" y="818"/>
    </contour>
  </outline>
</glyph>
<glyph name="logicalnot" format="1">
  <advance width="1440"/>
  <unicode hex="00AC"/>
  <outline>
    <contour>
      <point x="1188" y="125" type="line"/>
      <point x="1188" y="501" type="line"/>
      <point x="1032" y="622" type="line"/>
      <point x="1032" y="125" type="line"/>
    </contour>
    <contour>
      <point x="218" y="501" type="line"/>
      <point x="1188" y="501" type="line"/>
      <point x="1188" y="647" type="line"/>
      <point x="218" y="647" type="line"/>
    </contour>
  </outline>
</glyph>
<glyph name="uni00AD" format="1">
  <advance width="776"/>
  <unicode hex="00AD"/>
  <outline>
    <contour>
      <point x="97" y="496" type="line"/>
      <point x="654" y="496" type="line"/>
      <point x="673" y="632" type="line"/>
      <point x="116" y="632" type="line"/>
    </contour>
  </outline>
</glyph>
<glyph name="registered" format="1">
  <advance width="1929"/>
  <unicode hex="00AE"/>
  <outline>
    <contour>
      <point x="862" y="1064" type="line"/>
      <point x="877" y="1072" type="line"/>
      <point x="835" y="1093" type="line"/>
      <point x="652" y="1093" type="line" smooth="yes"/>
      <point x="640" y="1093"/>
      <point x="634" y="1085"/>
      <point x="634" y="1077" type="curve" smooth="yes"/>
      <point x="634" y="1061"/>
      <point x="638" y="1059"/>
      <point x="652" y="1057" type="curve"/>
      <point x="684" y="1055"/>
      <point x="727" y="1052"/>
      <point x="727" y="1007" type="curve" smooth="yes"/>
      <point x="727" y="416" type="line" smooth="yes"/>
      <point x="727" y="393"/>
      <point x="698" y="385"/>
      <point x="665" y="383" type="curve"/>
      <point x="651" y="381"/>
      <point x="648" y="366"/>
      <point x="648" y="356" type="curve" smooth="yes"/>
      <point x="648" y="348"/>
      <point x="653" y="331"/>
      <point x="665" y="331" type="curve" smooth="yes"/>
      <point x="943" y="331" type="line" smooth="yes"/>
      <point x="955" y="331"/>
      <point x="960" y="348"/>
      <point x="960" y="356" type="curve" smooth="yes"/>
      <point x="960" y="371"/>
      <point x="956" y="381"/>
      <point x="941" y="383" type="curve"/>
      <point x="904" y="385"/>
      <point x="862" y="388"/>
      <point x="862" y="433" type="curve" smooth="yes"/>
    </contour>
    <contour>
      <point x="835" y="1093" type="line"/>
      <point x="841" y="1012" type="line"/>
      <point x="841" y="1012"/>
      <point x="860" y="1012"/>
      <point x="937" y="1012" type="curve" smooth="yes"/>
      <point x="1043" y="1012"/>
      <point x="1123" y="1012"/>
      <point x="1123" y="874" type="curve" smooth="yes"/>
      <point x="1123" y="771"/>
      <point x="1062" y="719"/>
      <point x="933" y="719" type="curve" smooth="yes"/>
      <point x="896" y="719"/>
      <point x="838" y="719"/>
      <point x="838" y="719" type="curve"/>
      <point x="838" y="719"/>
      <point x="838" y="646"/>
      <point x="838" y="646" type="curve"/>
      <point x="838" y="646"/>
      <point x="926" y="646"/>
      <point x="972" y="646" type="curve" smooth="yes"/>
      <point x="1007" y="646"/>
      <point x="1042" y="655"/>
      <point x="1072" y="664" type="curve"/>
      <point x="1197" y="695"/>
      <point x="1259" y="771"/>
      <point x="1259" y="890" type="curve" smooth="yes"/>
      <point x="1259" y="1044"/>
      <point x="1130" y="1093"/>
      <point x="977" y="1093" type="curve" smooth="yes"/>
    </contour>
    <contour>
      <point x="253" y="710" type="curve" smooth="yes"/>
      <point x="253" y="315"/>
      <point x="570" y="-5"/>
      <point x="966" y="-5" type="curve" smooth="yes"/>
      <point x="1361" y="-5"/>
      <point x="1679" y="315"/>
      <point x="1679" y="710" type="curve" smooth="yes"/>
      <point x="1679" y="1106"/>
      <point x="1361" y="1426"/>
      <point x="966" y="1426" type="curve" smooth="yes"/>
      <point x="570" y="1426"/>
      <point x="253" y="1106"/>
    </contour>
    <contour>
      <point x="347" y="710" type="curve" smooth="yes"/>
      <point x="347" y="1054"/>
      <point x="620" y="1344"/>
      <point x="967" y="1344" type="curve" smooth="yes"/>
      <point x="1314" y="1344"/>
      <point x="1587" y="1058"/>
      <point x="1587" y="710" type="curve" smooth="yes"/>
      <point x="1587" y="367"/>
      <point x="1310" y="75"/>
      <point x="967" y="75" type="curve" smooth="yes"/>
      <point x="623" y="75"/>
      <point x="347" y="367"/>
    </contour>
    <contour>
      <point x="943" y="683" type="line"/>
      <point x="1005" y="632"/>
      <point x="1058" y="479"/>
      <point x="1114" y="371" type="curve"/>
      <point x="1131" y="353"/>
      <point x="1149" y="332"/>
      <point x="1190" y="332" type="curve" smooth="yes"/>
      <point x="1300" y="332" type="line" smooth="yes"/>
      <point x="1313" y="332"/>
      <point x="1321" y="342"/>
      <point x="1321" y="350" type="curve"/>
      <point x="1323" y="367"/>
      <point x="1324" y="380"/>
      <point x="1303" y="382" type="curve" smooth="yes"/>
      <point x="1250" y="387"/>
      <point x="1215" y="467"/>
      <point x="1188" y="508" type="curve" smooth="yes"/>
      <point x="1147" y="571"/>
      <point x="1115" y="649"/>
      <point x="1068" y="702" type="curve"/>
    </contour>
  </outline>
</glyph>
